G04 #@! TF.GenerationSoftware,KiCad,Pcbnew,9.0.5*
G04 #@! TF.CreationDate,2025-10-24T02:47:50+02:00*
G04 #@! TF.ProjectId,ESPHomeModule,45535048-6f6d-4654-9d6f-64756c652e6b,V1.0*
G04 #@! TF.SameCoordinates,Original*
G04 #@! TF.FileFunction,Copper,L2,Bot*
G04 #@! TF.FilePolarity,Positive*
%FSLAX46Y46*%
G04 Gerber Fmt 4.6, Leading zero omitted, Abs format (unit mm)*
G04 Created by KiCad (PCBNEW 9.0.5) date 2025-10-24 02:47:50*
%MOMM*%
%LPD*%
G01*
G04 APERTURE LIST*
G04 Aperture macros list*
%AMRoundRect*
0 Rectangle with rounded corners*
0 $1 Rounding radius*
0 $2 $3 $4 $5 $6 $7 $8 $9 X,Y pos of 4 corners*
0 Add a 4 corners polygon primitive as box body*
4,1,4,$2,$3,$4,$5,$6,$7,$8,$9,$2,$3,0*
0 Add four circle primitives for the rounded corners*
1,1,$1+$1,$2,$3*
1,1,$1+$1,$4,$5*
1,1,$1+$1,$6,$7*
1,1,$1+$1,$8,$9*
0 Add four rect primitives between the rounded corners*
20,1,$1+$1,$2,$3,$4,$5,0*
20,1,$1+$1,$4,$5,$6,$7,0*
20,1,$1+$1,$6,$7,$8,$9,0*
20,1,$1+$1,$8,$9,$2,$3,0*%
G04 Aperture macros list end*
G04 #@! TA.AperFunction,EtchedComponent*
%ADD10C,0.000000*%
G04 #@! TD*
G04 #@! TA.AperFunction,ComponentPad*
%ADD11C,1.600000*%
G04 #@! TD*
G04 #@! TA.AperFunction,ComponentPad*
%ADD12C,1.850000*%
G04 #@! TD*
G04 #@! TA.AperFunction,ComponentPad*
%ADD13R,2.000000X2.000000*%
G04 #@! TD*
G04 #@! TA.AperFunction,ComponentPad*
%ADD14C,2.000000*%
G04 #@! TD*
G04 #@! TA.AperFunction,ComponentPad*
%ADD15R,3.200000X2.000000*%
G04 #@! TD*
G04 #@! TA.AperFunction,ComponentPad*
%ADD16R,1.508000X1.508000*%
G04 #@! TD*
G04 #@! TA.AperFunction,ComponentPad*
%ADD17C,1.508000*%
G04 #@! TD*
G04 #@! TA.AperFunction,ComponentPad*
%ADD18C,3.000000*%
G04 #@! TD*
G04 #@! TA.AperFunction,ComponentPad*
%ADD19C,2.500000*%
G04 #@! TD*
G04 #@! TA.AperFunction,SMDPad,CuDef*
%ADD20R,1.299990X0.900000*%
G04 #@! TD*
G04 #@! TA.AperFunction,SMDPad,CuDef*
%ADD21R,1.299998X0.899998*%
G04 #@! TD*
G04 #@! TA.AperFunction,SMDPad,CuDef*
%ADD22RoundRect,0.250000X0.412500X0.650000X-0.412500X0.650000X-0.412500X-0.650000X0.412500X-0.650000X0*%
G04 #@! TD*
G04 #@! TA.AperFunction,SMDPad,CuDef*
%ADD23RoundRect,0.250000X-0.412500X-0.650000X0.412500X-0.650000X0.412500X0.650000X-0.412500X0.650000X0*%
G04 #@! TD*
G04 #@! TA.AperFunction,ViaPad*
%ADD24C,0.600000*%
G04 #@! TD*
G04 #@! TA.AperFunction,Conductor*
%ADD25C,0.200000*%
G04 #@! TD*
G04 #@! TA.AperFunction,Conductor*
%ADD26C,0.635000*%
G04 #@! TD*
G04 #@! TA.AperFunction,Conductor*
%ADD27C,0.317500*%
G04 #@! TD*
G04 APERTURE END LIST*
D10*
G04 #@! TA.AperFunction,EtchedComponent*
G36*
X150929304Y-77160602D02*
G01*
X150950426Y-77172620D01*
X150986218Y-77193131D01*
X151035748Y-77221598D01*
X151098087Y-77257484D01*
X151172302Y-77300252D01*
X151257463Y-77349365D01*
X151352639Y-77404285D01*
X151456900Y-77464476D01*
X151569313Y-77529401D01*
X151688949Y-77598522D01*
X151814876Y-77671303D01*
X151946163Y-77747205D01*
X152081880Y-77825694D01*
X153230650Y-78490157D01*
X153780706Y-79445950D01*
X153821112Y-79516185D01*
X153890712Y-79637278D01*
X153957261Y-79753204D01*
X154020180Y-79862949D01*
X154078889Y-79965498D01*
X154132810Y-80059833D01*
X154181364Y-80144941D01*
X154223972Y-80219806D01*
X154260055Y-80283413D01*
X154289034Y-80334746D01*
X154310329Y-80372790D01*
X154323363Y-80396529D01*
X154327555Y-80404949D01*
X154323514Y-80402939D01*
X154304400Y-80392301D01*
X154270277Y-80372914D01*
X154221909Y-80345218D01*
X154160055Y-80309654D01*
X154085477Y-80266664D01*
X153998936Y-80216686D01*
X153901193Y-80160163D01*
X153793009Y-80097534D01*
X153675145Y-80029241D01*
X153548362Y-79955725D01*
X153413422Y-79877425D01*
X153271086Y-79794782D01*
X153122114Y-79708238D01*
X152967267Y-79618232D01*
X152807308Y-79525206D01*
X152642996Y-79429600D01*
X152531115Y-79364504D01*
X152369437Y-79270502D01*
X152212531Y-79179354D01*
X152061165Y-79091504D01*
X151916106Y-79007393D01*
X151778122Y-78927466D01*
X151647981Y-78852164D01*
X151526451Y-78781932D01*
X151414300Y-78717212D01*
X151312295Y-78658447D01*
X151221205Y-78606080D01*
X151141797Y-78560554D01*
X151074839Y-78522312D01*
X151021100Y-78491797D01*
X150981346Y-78469452D01*
X150956346Y-78455721D01*
X150946867Y-78451045D01*
X150944592Y-78451964D01*
X150927843Y-78460779D01*
X150895287Y-78478771D01*
X150847273Y-78505740D01*
X150784149Y-78541485D01*
X150706264Y-78585807D01*
X150613965Y-78638505D01*
X150507601Y-78699378D01*
X150387519Y-78768226D01*
X150254069Y-78844849D01*
X150107599Y-78929046D01*
X149948456Y-79020616D01*
X149776990Y-79119360D01*
X149593547Y-79225076D01*
X149398477Y-79337565D01*
X149192128Y-79456626D01*
X148974848Y-79582058D01*
X148746985Y-79713662D01*
X148508887Y-79851236D01*
X148260904Y-79994580D01*
X148003382Y-80143495D01*
X147736670Y-80297778D01*
X147461116Y-80457231D01*
X147289049Y-80556817D01*
X147289236Y-79918442D01*
X147289424Y-79280067D01*
X149078267Y-78239857D01*
X149109759Y-78221543D01*
X149278982Y-78123083D01*
X149443896Y-78027048D01*
X149603753Y-77933877D01*
X149757802Y-77844011D01*
X149905293Y-77757890D01*
X150045475Y-77675953D01*
X150177600Y-77598641D01*
X150300916Y-77526393D01*
X150414673Y-77459651D01*
X150518123Y-77398853D01*
X150610513Y-77344439D01*
X150691095Y-77296851D01*
X150759118Y-77256527D01*
X150813832Y-77223908D01*
X150854487Y-77199434D01*
X150880333Y-77183545D01*
X150890620Y-77176681D01*
X150893192Y-77174243D01*
X150911178Y-77160903D01*
X150923619Y-77157473D01*
X150929304Y-77160602D01*
G37*
G04 #@! TD.AperFunction*
G04 #@! TA.AperFunction,EtchedComponent*
G36*
X149673932Y-77268092D02*
G01*
X149825923Y-77268370D01*
X149959415Y-77268813D01*
X150074520Y-77269424D01*
X150171348Y-77270204D01*
X150250009Y-77271152D01*
X150310616Y-77272270D01*
X150353277Y-77273559D01*
X150378105Y-77275019D01*
X150385210Y-77276652D01*
X150381461Y-77279027D01*
X150362591Y-77290100D01*
X150328560Y-77309735D01*
X150280140Y-77337495D01*
X150218106Y-77372938D01*
X150143231Y-77415627D01*
X150056288Y-77465121D01*
X149958050Y-77520982D01*
X149849292Y-77582769D01*
X149730786Y-77650044D01*
X149603307Y-77722368D01*
X149467627Y-77799300D01*
X149324520Y-77880402D01*
X149174759Y-77965234D01*
X149019119Y-78053357D01*
X148858372Y-78144331D01*
X148693291Y-78237718D01*
X147010912Y-79189244D01*
X147008535Y-81315966D01*
X147008430Y-81406090D01*
X147008178Y-81602783D01*
X147007899Y-81794066D01*
X147007595Y-81979100D01*
X147007270Y-82157044D01*
X147006926Y-82327057D01*
X147006565Y-82488299D01*
X147006190Y-82639929D01*
X147005803Y-82781107D01*
X147005407Y-82910992D01*
X147005004Y-83028745D01*
X147004597Y-83133523D01*
X147004188Y-83224488D01*
X147003780Y-83300799D01*
X147003375Y-83361615D01*
X147002976Y-83406095D01*
X147002586Y-83433399D01*
X147002206Y-83442688D01*
X146999251Y-83441208D01*
X146981978Y-83431654D01*
X146950462Y-83413889D01*
X146906041Y-83388680D01*
X146850056Y-83356790D01*
X146783848Y-83318984D01*
X146708758Y-83276029D01*
X146626126Y-83228688D01*
X146537291Y-83177726D01*
X146443596Y-83123910D01*
X145888937Y-82805131D01*
X145886560Y-80679521D01*
X145884182Y-78553910D01*
X147013249Y-77911468D01*
X148142315Y-77269025D01*
X149268533Y-77268069D01*
X149314011Y-77268034D01*
X149503332Y-77267981D01*
X149673932Y-77268092D01*
G37*
G04 #@! TD.AperFunction*
G04 #@! TA.AperFunction,EtchedComponent*
G36*
X150843534Y-78730051D02*
G01*
X150858301Y-78738425D01*
X150888323Y-78755714D01*
X150932871Y-78781492D01*
X150991215Y-78815335D01*
X151062628Y-78856818D01*
X151146380Y-78905517D01*
X151241741Y-78961007D01*
X151347983Y-79022863D01*
X151464378Y-79090661D01*
X151590195Y-79163977D01*
X151724706Y-79242385D01*
X151867181Y-79325461D01*
X152016893Y-79412781D01*
X152173111Y-79503919D01*
X152335108Y-79598452D01*
X152502153Y-79695955D01*
X152673517Y-79796002D01*
X154501744Y-80863496D01*
X154501744Y-82200702D01*
X154501736Y-82350597D01*
X154501698Y-82522482D01*
X154501619Y-82677172D01*
X154501488Y-82815591D01*
X154501295Y-82938663D01*
X154501029Y-83047314D01*
X154500680Y-83142468D01*
X154500237Y-83225049D01*
X154499690Y-83295982D01*
X154499028Y-83356192D01*
X154498240Y-83406603D01*
X154497317Y-83448140D01*
X154496247Y-83481727D01*
X154495020Y-83508289D01*
X154493626Y-83528750D01*
X154492053Y-83544036D01*
X154490292Y-83555070D01*
X154488332Y-83562777D01*
X154486162Y-83568082D01*
X154479206Y-83580753D01*
X154463490Y-83608626D01*
X154439948Y-83650034D01*
X154409296Y-83703733D01*
X154372252Y-83768477D01*
X154329532Y-83843021D01*
X154281855Y-83926119D01*
X154229938Y-84016526D01*
X154174499Y-84112997D01*
X154116253Y-84214286D01*
X154055920Y-84319148D01*
X153994217Y-84426338D01*
X153931860Y-84534611D01*
X153869567Y-84642721D01*
X153808057Y-84749422D01*
X153748045Y-84853470D01*
X153690249Y-84953619D01*
X153635388Y-85048623D01*
X153584178Y-85137238D01*
X153537336Y-85218218D01*
X153495580Y-85290318D01*
X153459628Y-85352293D01*
X153430197Y-85402896D01*
X153408004Y-85440883D01*
X153393766Y-85465009D01*
X153388202Y-85474028D01*
X153388073Y-85473980D01*
X153387173Y-85463046D01*
X153386309Y-85434013D01*
X153385485Y-85387544D01*
X153384703Y-85324303D01*
X153383966Y-85244953D01*
X153383277Y-85150159D01*
X153382639Y-85040584D01*
X153382054Y-84916892D01*
X153381526Y-84779746D01*
X153381058Y-84629810D01*
X153380651Y-84467749D01*
X153380310Y-84294226D01*
X153380037Y-84109904D01*
X153379835Y-83915448D01*
X153379706Y-83711521D01*
X153379655Y-83498786D01*
X153379540Y-81514588D01*
X152571173Y-81020861D01*
X152502963Y-80979191D01*
X152392018Y-80911373D01*
X152285905Y-80846458D01*
X152185751Y-80785138D01*
X152092682Y-80728106D01*
X152007826Y-80676053D01*
X151932307Y-80629669D01*
X151867254Y-80589648D01*
X151813793Y-80556680D01*
X151773050Y-80531458D01*
X151746151Y-80514672D01*
X151734224Y-80507015D01*
X151728416Y-80503388D01*
X151706600Y-80490493D01*
X151670110Y-80469270D01*
X151619988Y-80440317D01*
X151557281Y-80404233D01*
X151483033Y-80361615D01*
X151398288Y-80313063D01*
X151304090Y-80259175D01*
X151201485Y-80200548D01*
X151091517Y-80137781D01*
X150975230Y-80071473D01*
X150853669Y-80002221D01*
X150727879Y-79930624D01*
X150641244Y-79881317D01*
X150519182Y-79811782D01*
X150402462Y-79745214D01*
X150292089Y-79682191D01*
X150189069Y-79623289D01*
X150094406Y-79569085D01*
X150009105Y-79520156D01*
X149934171Y-79477078D01*
X149870609Y-79440427D01*
X149819425Y-79410781D01*
X149781624Y-79388716D01*
X149758209Y-79374809D01*
X149750188Y-79369637D01*
X149752158Y-79368090D01*
X149767664Y-79358273D01*
X149797476Y-79340160D01*
X149840259Y-79314542D01*
X149894677Y-79282210D01*
X149959394Y-79243954D01*
X150033075Y-79200564D01*
X150114384Y-79152832D01*
X150201986Y-79101547D01*
X150294543Y-79047500D01*
X150340725Y-79020571D01*
X150431108Y-78967891D01*
X150515956Y-78918468D01*
X150593928Y-78873082D01*
X150663677Y-78832515D01*
X150723861Y-78797547D01*
X150773135Y-78768960D01*
X150810155Y-78747534D01*
X150833578Y-78734051D01*
X150842059Y-78729293D01*
X150843534Y-78730051D01*
G37*
G04 #@! TD.AperFunction*
G04 #@! TA.AperFunction,EtchedComponent*
G36*
X145599037Y-80928173D02*
G01*
X145601417Y-82900716D01*
X146438161Y-83396901D01*
X146499985Y-83433521D01*
X146635035Y-83513280D01*
X146782674Y-83600203D01*
X146940384Y-83692816D01*
X147105645Y-83789650D01*
X147275936Y-83889233D01*
X147448738Y-83990093D01*
X147621532Y-84090759D01*
X147791797Y-84189759D01*
X147957015Y-84285623D01*
X148114664Y-84376879D01*
X148262227Y-84462055D01*
X148360059Y-84518485D01*
X148481940Y-84588936D01*
X148598327Y-84656375D01*
X148708231Y-84720223D01*
X148810666Y-84779902D01*
X148904645Y-84834830D01*
X148989179Y-84884428D01*
X149063282Y-84928118D01*
X149125967Y-84965320D01*
X149176246Y-84995453D01*
X149213132Y-85017939D01*
X149235638Y-85032197D01*
X149242776Y-85037649D01*
X149235841Y-85042447D01*
X149213778Y-85056003D01*
X149178444Y-85077009D01*
X149131483Y-85104527D01*
X149074540Y-85137619D01*
X149009260Y-85175347D01*
X148937288Y-85216776D01*
X148860268Y-85260967D01*
X148779845Y-85306983D01*
X148697664Y-85353887D01*
X148615370Y-85400741D01*
X148534607Y-85446609D01*
X148457019Y-85490552D01*
X148384253Y-85531634D01*
X148317951Y-85568917D01*
X148259760Y-85601465D01*
X148211324Y-85628338D01*
X148174287Y-85648601D01*
X148150295Y-85661316D01*
X148140991Y-85665546D01*
X148139686Y-85664907D01*
X148125226Y-85656816D01*
X148095474Y-85639783D01*
X148051167Y-85614238D01*
X147993038Y-85580607D01*
X147921824Y-85539319D01*
X147838260Y-85490801D01*
X147743081Y-85435482D01*
X147637023Y-85373790D01*
X147520821Y-85306152D01*
X147395210Y-85232997D01*
X147260925Y-85154753D01*
X147118703Y-85071847D01*
X146969277Y-84984708D01*
X146813385Y-84893763D01*
X146651761Y-84799441D01*
X146485139Y-84702169D01*
X146314257Y-84602376D01*
X144498276Y-83541686D01*
X144498266Y-82202858D01*
X144498257Y-80864031D01*
X145047457Y-79909830D01*
X145596658Y-78955629D01*
X145599037Y-80928173D01*
G37*
G04 #@! TD.AperFunction*
G04 #@! TA.AperFunction,EtchedComponent*
G36*
X152345007Y-81393590D02*
G01*
X152376807Y-81411874D01*
X152462635Y-81461204D01*
X152549407Y-81511053D01*
X152634240Y-81559767D01*
X152714253Y-81605692D01*
X152786566Y-81647173D01*
X152848297Y-81682559D01*
X152896566Y-81710194D01*
X153078061Y-81814003D01*
X153077712Y-83941244D01*
X153077363Y-86068486D01*
X151950883Y-86707296D01*
X150824404Y-87346105D01*
X149712701Y-87343710D01*
X148600999Y-87341314D01*
X150257329Y-86400754D01*
X150336533Y-86355775D01*
X150498667Y-86263695D01*
X150656274Y-86174174D01*
X150808563Y-86087661D01*
X150954744Y-86004606D01*
X151094024Y-85925461D01*
X151225612Y-85850675D01*
X151348716Y-85780697D01*
X151462546Y-85715979D01*
X151566309Y-85656969D01*
X151659214Y-85604118D01*
X151740469Y-85557877D01*
X151809284Y-85518694D01*
X151864866Y-85487021D01*
X151906424Y-85463307D01*
X151933166Y-85448002D01*
X151944301Y-85441557D01*
X151974943Y-85422920D01*
X151974943Y-83301858D01*
X151974943Y-81180796D01*
X152345007Y-81393590D01*
G37*
G04 #@! TD.AperFunction*
G04 #@! TA.AperFunction,EtchedComponent*
G36*
X151708847Y-83937460D02*
G01*
X151709230Y-83957778D01*
X151709587Y-83994460D01*
X151709916Y-84045988D01*
X151710208Y-84110842D01*
X151710460Y-84187504D01*
X151710666Y-84274455D01*
X151710820Y-84370175D01*
X151710916Y-84473145D01*
X151710949Y-84581847D01*
X151710949Y-85230731D01*
X149886315Y-86289270D01*
X148061682Y-87347808D01*
X147102592Y-86793227D01*
X147063595Y-86770678D01*
X146935671Y-86696706D01*
X146809725Y-86623876D01*
X146687062Y-86552944D01*
X146568985Y-86484663D01*
X146456800Y-86419787D01*
X146351810Y-86359070D01*
X146255319Y-86303267D01*
X146168632Y-86253132D01*
X146093052Y-86209419D01*
X146029884Y-86172883D01*
X145980432Y-86144277D01*
X145946001Y-86124356D01*
X145748498Y-86010066D01*
X145212432Y-85072869D01*
X145185309Y-85025445D01*
X145115692Y-84903691D01*
X145048690Y-84786458D01*
X144984917Y-84674824D01*
X144924985Y-84569866D01*
X144869510Y-84472660D01*
X144819105Y-84384283D01*
X144774384Y-84305812D01*
X144735961Y-84238322D01*
X144704450Y-84182891D01*
X144680465Y-84140596D01*
X144664619Y-84112513D01*
X144657527Y-84099718D01*
X144638687Y-84063765D01*
X144660397Y-84075162D01*
X144666394Y-84078538D01*
X144688156Y-84090977D01*
X144724914Y-84112063D01*
X144775895Y-84141353D01*
X144840328Y-84178402D01*
X144917444Y-84222767D01*
X145006471Y-84274004D01*
X145106638Y-84331669D01*
X145217174Y-84395317D01*
X145337308Y-84464506D01*
X145466270Y-84538790D01*
X145603289Y-84617727D01*
X145747593Y-84700873D01*
X145898412Y-84787782D01*
X146054975Y-84878013D01*
X146216511Y-84971119D01*
X146382249Y-85066659D01*
X146516850Y-85144222D01*
X146702673Y-85251192D01*
X146879172Y-85352661D01*
X147045848Y-85448346D01*
X147202202Y-85537964D01*
X147347734Y-85621231D01*
X147481948Y-85697864D01*
X147604343Y-85767579D01*
X147714422Y-85830093D01*
X147811685Y-85885121D01*
X147895634Y-85932381D01*
X147965770Y-85971589D01*
X148021594Y-86002462D01*
X148062608Y-86024715D01*
X148088313Y-86038066D01*
X148098210Y-86042231D01*
X148100756Y-86041136D01*
X148117862Y-86032071D01*
X148149125Y-86014624D01*
X148193221Y-85989571D01*
X148248826Y-85957688D01*
X148314615Y-85919751D01*
X148389264Y-85876536D01*
X148471448Y-85828820D01*
X148559842Y-85777379D01*
X148653123Y-85722989D01*
X148749965Y-85666427D01*
X148849045Y-85608469D01*
X148949037Y-85549891D01*
X149048618Y-85491468D01*
X149146463Y-85433979D01*
X149241247Y-85378198D01*
X149331645Y-85324903D01*
X149416334Y-85274868D01*
X149493989Y-85228872D01*
X149563286Y-85187689D01*
X149622899Y-85152096D01*
X149671505Y-85122870D01*
X149707779Y-85100786D01*
X149730396Y-85086621D01*
X149738032Y-85081152D01*
X149742502Y-85077772D01*
X149762023Y-85065474D01*
X149796129Y-85044784D01*
X149843826Y-85016285D01*
X149904123Y-84980559D01*
X149976027Y-84938188D01*
X150058544Y-84889754D01*
X150150684Y-84835840D01*
X150251453Y-84777029D01*
X150359859Y-84713902D01*
X150474909Y-84647041D01*
X150595611Y-84577030D01*
X150720972Y-84504450D01*
X150817062Y-84448870D01*
X150939063Y-84378311D01*
X151055715Y-84310855D01*
X151166020Y-84247078D01*
X151268982Y-84187556D01*
X151363602Y-84132866D01*
X151448884Y-84083584D01*
X151523829Y-84040287D01*
X151587440Y-84003551D01*
X151638719Y-83973953D01*
X151676669Y-83952068D01*
X151700293Y-83938474D01*
X151708592Y-83933747D01*
X151708847Y-83937460D01*
G37*
G04 #@! TD.AperFunction*
D11*
X118442000Y-57834000D03*
X115942000Y-57834000D03*
D12*
X124600000Y-82900000D03*
X124600000Y-80360000D03*
X124600000Y-77820000D03*
X124600000Y-75280000D03*
X124600000Y-72740000D03*
X124600000Y-70200000D03*
X124600000Y-67660000D03*
X124600000Y-65120000D03*
D13*
X171000000Y-74500000D03*
D14*
X171000000Y-79500000D03*
X171000000Y-77000000D03*
D15*
X178500000Y-71400000D03*
X178500000Y-82600000D03*
D14*
X185500000Y-79500000D03*
X185500000Y-74500000D03*
D16*
X145690000Y-66500000D03*
D17*
X148230000Y-66500000D03*
X150770000Y-66500000D03*
X153310000Y-66500000D03*
D18*
X138500000Y-67000000D03*
X160500000Y-67000000D03*
X160500000Y-89000000D03*
X138500000Y-89000000D03*
D19*
X143110000Y-105540000D03*
X136760000Y-108080000D03*
X163510000Y-105540000D03*
X157160000Y-108080000D03*
D12*
X168350000Y-57320000D03*
X168350000Y-59860000D03*
X168350000Y-62400000D03*
X168350000Y-64940000D03*
X168350000Y-67480000D03*
X183320000Y-91800000D03*
X180780000Y-91800000D03*
X178240000Y-91800000D03*
X175700000Y-91800000D03*
D20*
X146650005Y-60250000D03*
D21*
X146650001Y-61749999D03*
X152349999Y-61749999D03*
X152349999Y-60250001D03*
D20*
X142149995Y-98550000D03*
D21*
X142149999Y-97050001D03*
X136450001Y-97050001D03*
X136450001Y-98549999D03*
D22*
X140862500Y-93900000D03*
X137737500Y-93900000D03*
X161262500Y-94200000D03*
X158137500Y-94200000D03*
X182254500Y-94918000D03*
X179129500Y-94918000D03*
D20*
X162549995Y-98550000D03*
D21*
X162549999Y-97050001D03*
X156850001Y-97050001D03*
X156850001Y-98549999D03*
D22*
X148472500Y-69264000D03*
X145347500Y-69264000D03*
D23*
X147937500Y-57500000D03*
X151062500Y-57500000D03*
D24*
X133702000Y-60628000D03*
X151228000Y-110666000D03*
X147164000Y-110920000D03*
X133702000Y-64946000D03*
X133702000Y-73582000D03*
X151482000Y-94156000D03*
X132940000Y-78916000D03*
X137766000Y-77138000D03*
X147799000Y-94156000D03*
X133702000Y-69264000D03*
X131162000Y-63422000D03*
X131416000Y-86028000D03*
X131416000Y-80948000D03*
X109700000Y-93300000D03*
X131162000Y-68248000D03*
X145894000Y-95426000D03*
X131162000Y-59104000D03*
X109700000Y-92600000D03*
X108900000Y-94000000D03*
X109700000Y-94000000D03*
X131162000Y-72058000D03*
X134464000Y-95934000D03*
X108900000Y-92600000D03*
X142592000Y-95426000D03*
X131416000Y-83488000D03*
X108900000Y-93300000D03*
X151228000Y-113714000D03*
X131162000Y-76376000D03*
X150720000Y-72566000D03*
X147926000Y-111682000D03*
X151228000Y-111682000D03*
X150720000Y-69518000D03*
X151228000Y-112698000D03*
X151736000Y-69518000D03*
X151736000Y-72566000D03*
X148688000Y-112444000D03*
X128622000Y-60628000D03*
X142084000Y-90346000D03*
X128622000Y-77900000D03*
X144250000Y-56818000D03*
X144624000Y-90346000D03*
X128622000Y-64946000D03*
X128622000Y-69264000D03*
X128622000Y-73582000D03*
X146402000Y-110158000D03*
X151228000Y-109650000D03*
X143608000Y-96950000D03*
X145894000Y-96950000D03*
X153768000Y-60247000D03*
D25*
X144250000Y-56818000D02*
X143100000Y-57968000D01*
X143100000Y-57968000D02*
X143100000Y-60247000D01*
X133702000Y-64946000D02*
X133702000Y-69264000D01*
D26*
X148472500Y-69264000D02*
X148472500Y-66742500D01*
D25*
X133702000Y-73582000D02*
X133702000Y-77138000D01*
X147418000Y-110666000D02*
X147164000Y-110920000D01*
X133702000Y-69264000D02*
X133702000Y-73582000D01*
X133702000Y-77138000D02*
X133702000Y-78154000D01*
X151482000Y-94156000D02*
X147799000Y-94156000D01*
X151228000Y-110666000D02*
X147418000Y-110666000D01*
X133702000Y-78154000D02*
X132940000Y-78916000D01*
X137766000Y-77138000D02*
X133702000Y-77138000D01*
X133702000Y-60628000D02*
X133702000Y-64946000D01*
D26*
X148472500Y-66742500D02*
X148230000Y-66500000D01*
D27*
X182254500Y-94918000D02*
X182254500Y-92865500D01*
X182254500Y-92865500D02*
X183320000Y-91800000D01*
D26*
X130400000Y-108126000D02*
X130446000Y-108080000D01*
D25*
X147518001Y-97050001D02*
X145894000Y-95426000D01*
X151062500Y-57500000D02*
X154900000Y-57500000D01*
D26*
X130660000Y-57320000D02*
X130654000Y-57326000D01*
X178384000Y-77000000D02*
X178500000Y-76884000D01*
D25*
X154550001Y-61749999D02*
X154900000Y-61400000D01*
D26*
X178500000Y-71400000D02*
X178500000Y-74598000D01*
X145347500Y-66842500D02*
X145690000Y-66500000D01*
X145690000Y-65310000D02*
X146500000Y-64500000D01*
X185500000Y-74500000D02*
X178598000Y-74500000D01*
D25*
X156850001Y-94629999D02*
X157280000Y-94200000D01*
X130654000Y-96950000D02*
X130754000Y-97050000D01*
D26*
X145347500Y-69264000D02*
X145347500Y-66842500D01*
D25*
X136550000Y-97050000D02*
X136550000Y-95426000D01*
D26*
X154500000Y-55500000D02*
X134000000Y-55500000D01*
D25*
X130754000Y-97050000D02*
X136550000Y-97050000D01*
D26*
X158000000Y-55500000D02*
X156000000Y-55500000D01*
X159820000Y-57320000D02*
X158000000Y-55500000D01*
X178598000Y-74500000D02*
X178500000Y-74598000D01*
D25*
X156816000Y-107736000D02*
X157160000Y-108080000D01*
D27*
X179129500Y-94918000D02*
X179129500Y-92689500D01*
D26*
X154784000Y-55500000D02*
X154500000Y-55500000D01*
X145690000Y-66500000D02*
X145690000Y-65310000D01*
X164944000Y-57320000D02*
X164944000Y-64946000D01*
X164950000Y-64940000D02*
X164944000Y-64946000D01*
X134464000Y-95934000D02*
X130654000Y-95934000D01*
D27*
X131416000Y-86028000D02*
X130908000Y-86028000D01*
X131416000Y-80948000D02*
X130908000Y-80948000D01*
D25*
X131162000Y-68248000D02*
X130908000Y-68248000D01*
D26*
X164944000Y-57320000D02*
X159820000Y-57320000D01*
D25*
X131162000Y-59104000D02*
X130908000Y-59104000D01*
X136550000Y-94450000D02*
X137100000Y-93900000D01*
D27*
X151228000Y-113714000D02*
X130654000Y-113714000D01*
D25*
X152349999Y-61749999D02*
X154550001Y-61749999D01*
X142592000Y-95426000D02*
X136550000Y-95426000D01*
D26*
X156000000Y-55500000D02*
X154784000Y-55500000D01*
X178500000Y-74598000D02*
X178500000Y-76884000D01*
D25*
X136550000Y-95426000D02*
X136550000Y-94450000D01*
X154900000Y-55616000D02*
X154784000Y-55500000D01*
D27*
X131416000Y-83488000D02*
X130908000Y-83488000D01*
D26*
X132180000Y-57320000D02*
X130660000Y-57320000D01*
D25*
X131162000Y-72058000D02*
X130908000Y-72058000D01*
X154900000Y-57500000D02*
X154900000Y-55616000D01*
D26*
X164944000Y-75476000D02*
X166468000Y-77000000D01*
X136760000Y-108080000D02*
X130446000Y-108080000D01*
X156000000Y-63500000D02*
X156000000Y-55500000D01*
D25*
X157280000Y-94200000D02*
X158137500Y-94200000D01*
D26*
X136760000Y-108080000D02*
X157160000Y-108080000D01*
D25*
X131162000Y-76376000D02*
X130908000Y-76376000D01*
D27*
X179129500Y-92689500D02*
X178240000Y-91800000D01*
D26*
X168350000Y-64940000D02*
X164950000Y-64940000D01*
X146500000Y-64500000D02*
X155000000Y-64500000D01*
X155000000Y-64500000D02*
X156000000Y-63500000D01*
D25*
X156850001Y-97050001D02*
X156850001Y-94629999D01*
D26*
X178500000Y-76884000D02*
X178500000Y-82600000D01*
X171000000Y-77000000D02*
X166468000Y-77000000D01*
D25*
X131162000Y-63422000D02*
X130908000Y-63422000D01*
D26*
X164944000Y-64946000D02*
X164944000Y-75476000D01*
D25*
X156662001Y-97050001D02*
X156562000Y-96950000D01*
X137100000Y-93900000D02*
X137737500Y-93900000D01*
D26*
X171000000Y-77000000D02*
X170989000Y-77011000D01*
X168350000Y-57320000D02*
X164944000Y-57320000D01*
X171000000Y-77000000D02*
X178384000Y-77000000D01*
X134000000Y-55500000D02*
X132180000Y-57320000D01*
D25*
X154900000Y-61400000D02*
X154900000Y-57500000D01*
X156850001Y-97050001D02*
X147518001Y-97050001D01*
X150720000Y-69518000D02*
X150720000Y-72566000D01*
X147926000Y-111682000D02*
X151228000Y-111682000D01*
X151736000Y-69518000D02*
X151736000Y-72566000D01*
X148688000Y-112444000D02*
X148942000Y-112698000D01*
X148942000Y-112698000D02*
X151228000Y-112698000D01*
X144294000Y-98550000D02*
X142050000Y-98550000D01*
X147117000Y-57500000D02*
X146750000Y-57867000D01*
X128622000Y-64946000D02*
X128622000Y-69264000D01*
X146750000Y-60250000D02*
X144373000Y-60250000D01*
X128622000Y-69264000D02*
X128622000Y-73582000D01*
X163464000Y-94200000D02*
X164182000Y-94918000D01*
X161262500Y-92252500D02*
X160626000Y-91616000D01*
X147937500Y-57500000D02*
X147117000Y-57500000D01*
X140862500Y-93900000D02*
X143098000Y-93900000D01*
X128622000Y-60628000D02*
X128622000Y-64946000D01*
X144373000Y-60250000D02*
X144370000Y-60247000D01*
X160626000Y-91616000D02*
X145894000Y-91616000D01*
X164182000Y-94918000D02*
X164182000Y-97966000D01*
X143100000Y-94156000D02*
X143100000Y-94664000D01*
X146750000Y-57867000D02*
X146750000Y-60250000D01*
X128622000Y-73582000D02*
X128622000Y-77900000D01*
X144624000Y-96188000D02*
X144624000Y-98220000D01*
X142084000Y-90346000D02*
X143100000Y-90346000D01*
X143100000Y-94664000D02*
X144624000Y-96188000D01*
X161262500Y-94200000D02*
X163464000Y-94200000D01*
X143098000Y-93900000D02*
X143100000Y-93902000D01*
X144624000Y-98220000D02*
X144294000Y-98550000D01*
X163598000Y-98550000D02*
X162549995Y-98550000D01*
X143100000Y-93902000D02*
X143100000Y-94156000D01*
X143100000Y-90346000D02*
X143100000Y-60247000D01*
X164182000Y-97966000D02*
X163598000Y-98550000D01*
X143100000Y-90346000D02*
X143100000Y-93902000D01*
X144370000Y-60247000D02*
X143100000Y-60247000D01*
X145894000Y-91616000D02*
X144624000Y-90346000D01*
X161262500Y-94200000D02*
X161262500Y-92252500D01*
X151228000Y-109650000D02*
X146910000Y-109650000D01*
X146910000Y-109650000D02*
X146402000Y-110158000D01*
X137107000Y-100101000D02*
X136550000Y-99544000D01*
X136550000Y-99544000D02*
X136550000Y-98550000D01*
X144264000Y-61750000D02*
X143608000Y-62406000D01*
X143608000Y-94410000D02*
X145132000Y-95934000D01*
X145132000Y-99490000D02*
X144521000Y-100101000D01*
X146750000Y-61750000D02*
X144264000Y-61750000D01*
X143608000Y-62406000D02*
X143608000Y-94410000D01*
X145132000Y-95934000D02*
X145132000Y-99490000D01*
X144521000Y-100101000D02*
X137107000Y-100101000D01*
X156850001Y-98549999D02*
X155875999Y-98549999D01*
X155875999Y-98549999D02*
X154784000Y-97458000D01*
X142238000Y-97050000D02*
X142050000Y-97050000D01*
X142050000Y-96984000D02*
X142084000Y-96950000D01*
X154784000Y-97458000D02*
X146402000Y-97458000D01*
X142050000Y-97050000D02*
X142050000Y-96984000D01*
X143608000Y-96950000D02*
X142338000Y-96950000D01*
X142338000Y-96950000D02*
X142238000Y-97050000D01*
X146402000Y-97458000D02*
X145894000Y-96950000D01*
X152250000Y-60250000D02*
X153765000Y-60250000D01*
X153768000Y-60247000D02*
X153765000Y-60250000D01*
G04 #@! TA.AperFunction,Conductor*
G36*
X129492648Y-54519454D02*
G01*
X129573430Y-54573430D01*
X130927070Y-55927070D01*
X130981046Y-56007852D01*
X131000000Y-56103140D01*
X131000000Y-113896860D01*
X130981046Y-113992148D01*
X130927070Y-114072930D01*
X129573430Y-115426570D01*
X129492648Y-115480546D01*
X129397360Y-115499500D01*
X109006111Y-115499500D01*
X108993893Y-115499200D01*
X108669207Y-115483249D01*
X108644889Y-115480854D01*
X108329382Y-115434053D01*
X108305416Y-115429286D01*
X107996010Y-115351784D01*
X107972626Y-115344690D01*
X107672315Y-115237236D01*
X107649740Y-115227885D01*
X107361410Y-115091515D01*
X107339860Y-115079997D01*
X107203673Y-114998370D01*
X107066268Y-114916013D01*
X107045955Y-114902440D01*
X106789764Y-114712435D01*
X106770876Y-114696934D01*
X106534534Y-114482726D01*
X106517273Y-114465465D01*
X106303063Y-114229121D01*
X106287564Y-114210235D01*
X106185731Y-114072930D01*
X106097554Y-113954037D01*
X106083989Y-113933735D01*
X105920001Y-113660138D01*
X105908484Y-113638589D01*
X105772114Y-113350259D01*
X105762763Y-113327684D01*
X105686238Y-113113812D01*
X105655305Y-113027360D01*
X105648219Y-113004002D01*
X105570710Y-112694568D01*
X105565949Y-112670633D01*
X105519143Y-112355095D01*
X105516751Y-112330804D01*
X105500800Y-112006105D01*
X105500500Y-111993888D01*
X105500500Y-111868880D01*
X106999500Y-111868880D01*
X106999500Y-112131119D01*
X107033729Y-112391112D01*
X107101601Y-112644417D01*
X107201953Y-112886689D01*
X107201955Y-112886693D01*
X107333073Y-113113798D01*
X107333082Y-113113812D01*
X107492713Y-113321845D01*
X107492718Y-113321851D01*
X107678149Y-113507282D01*
X107678153Y-113507285D01*
X107678154Y-113507286D01*
X107886187Y-113666917D01*
X107886192Y-113666920D01*
X107886197Y-113666924D01*
X108113303Y-113798043D01*
X108355581Y-113898398D01*
X108608884Y-113966270D01*
X108868880Y-114000500D01*
X109131120Y-114000500D01*
X109391116Y-113966270D01*
X109644419Y-113898398D01*
X109886697Y-113798043D01*
X110113803Y-113666924D01*
X110321851Y-113507282D01*
X110507282Y-113321851D01*
X110666924Y-113113803D01*
X110798043Y-112886697D01*
X110898398Y-112644419D01*
X110966270Y-112391116D01*
X111000500Y-112131120D01*
X111000500Y-111868880D01*
X110966270Y-111608884D01*
X110898398Y-111355581D01*
X110798043Y-111113303D01*
X110666924Y-110886197D01*
X110666920Y-110886192D01*
X110666917Y-110886187D01*
X110507286Y-110678154D01*
X110507285Y-110678153D01*
X110507282Y-110678149D01*
X110321851Y-110492718D01*
X110321846Y-110492714D01*
X110321845Y-110492713D01*
X110113812Y-110333082D01*
X110113798Y-110333073D01*
X110052937Y-110297935D01*
X109886697Y-110201957D01*
X109886695Y-110201956D01*
X109886693Y-110201955D01*
X109886689Y-110201953D01*
X109644417Y-110101601D01*
X109534730Y-110072211D01*
X109391116Y-110033730D01*
X109391111Y-110033729D01*
X109391114Y-110033729D01*
X109131120Y-109999500D01*
X108868880Y-109999500D01*
X108608887Y-110033729D01*
X108355582Y-110101601D01*
X108113310Y-110201953D01*
X108113306Y-110201955D01*
X107886201Y-110333073D01*
X107886187Y-110333082D01*
X107678154Y-110492713D01*
X107492713Y-110678154D01*
X107333082Y-110886187D01*
X107333073Y-110886201D01*
X107201955Y-111113306D01*
X107201953Y-111113310D01*
X107101601Y-111355582D01*
X107033729Y-111608887D01*
X106999500Y-111868880D01*
X105500500Y-111868880D01*
X105500500Y-77570000D01*
X123196834Y-77570000D01*
X124166988Y-77570000D01*
X124134075Y-77627007D01*
X124100000Y-77754174D01*
X124100000Y-77885826D01*
X124134075Y-78012993D01*
X124166988Y-78070000D01*
X123196834Y-78070000D01*
X123210088Y-78153685D01*
X123279399Y-78367004D01*
X123279401Y-78367009D01*
X123381233Y-78566866D01*
X123513068Y-78748321D01*
X123671681Y-78906934D01*
X123731024Y-78950049D01*
X123796973Y-79021392D01*
X123830600Y-79112541D01*
X123826786Y-79209622D01*
X123786111Y-79297852D01*
X123742747Y-79341223D01*
X123743933Y-79342612D01*
X123736504Y-79348956D01*
X123588963Y-79496497D01*
X123466330Y-79665286D01*
X123371610Y-79851185D01*
X123371608Y-79851191D01*
X123307137Y-80049614D01*
X123274501Y-80255669D01*
X123274500Y-80255685D01*
X123274500Y-80464314D01*
X123274501Y-80464330D01*
X123307137Y-80670385D01*
X123307138Y-80670389D01*
X123371611Y-80868816D01*
X123466330Y-81054714D01*
X123588965Y-81223505D01*
X123736495Y-81371035D01*
X123736498Y-81371037D01*
X123815665Y-81428556D01*
X123881613Y-81499899D01*
X123915240Y-81591049D01*
X123911425Y-81688129D01*
X123870749Y-81776360D01*
X123815665Y-81831444D01*
X123736498Y-81888962D01*
X123588963Y-82036497D01*
X123466330Y-82205286D01*
X123371610Y-82391185D01*
X123371608Y-82391191D01*
X123307137Y-82589614D01*
X123274501Y-82795669D01*
X123274500Y-82795685D01*
X123274500Y-83004314D01*
X123274501Y-83004330D01*
X123307137Y-83210385D01*
X123307138Y-83210389D01*
X123371611Y-83408816D01*
X123466330Y-83594714D01*
X123588965Y-83763505D01*
X123736495Y-83911035D01*
X123905286Y-84033670D01*
X124091184Y-84128389D01*
X124289611Y-84192862D01*
X124495681Y-84225500D01*
X124495685Y-84225500D01*
X124704315Y-84225500D01*
X124704319Y-84225500D01*
X124910389Y-84192862D01*
X125108816Y-84128389D01*
X125294714Y-84033670D01*
X125463505Y-83911035D01*
X125611035Y-83763505D01*
X125733670Y-83594714D01*
X125828389Y-83408816D01*
X125892862Y-83210389D01*
X125925500Y-83004319D01*
X125925500Y-82795681D01*
X125892862Y-82589611D01*
X125828389Y-82391184D01*
X125733670Y-82205286D01*
X125611035Y-82036495D01*
X125463505Y-81888965D01*
X125384332Y-81831442D01*
X125318387Y-81760102D01*
X125284760Y-81668952D01*
X125288574Y-81571872D01*
X125329249Y-81483641D01*
X125384331Y-81428558D01*
X125463505Y-81371035D01*
X125611035Y-81223505D01*
X125733670Y-81054714D01*
X125828389Y-80868816D01*
X125892862Y-80670389D01*
X125925500Y-80464319D01*
X125925500Y-80255681D01*
X125892862Y-80049611D01*
X125828389Y-79851184D01*
X125733670Y-79665286D01*
X125611035Y-79496495D01*
X125463505Y-79348965D01*
X125463501Y-79348962D01*
X125463495Y-79348956D01*
X125456067Y-79342612D01*
X125457681Y-79340721D01*
X125403030Y-79281603D01*
X125369400Y-79190454D01*
X125373211Y-79093374D01*
X125413883Y-79005142D01*
X125468976Y-78950048D01*
X125528320Y-78906932D01*
X125686931Y-78748321D01*
X125818766Y-78566866D01*
X125920598Y-78367009D01*
X125920600Y-78367004D01*
X125989911Y-78153685D01*
X126003166Y-78070000D01*
X125033012Y-78070000D01*
X125065925Y-78012993D01*
X125100000Y-77885826D01*
X125100000Y-77754174D01*
X125065925Y-77627007D01*
X125033012Y-77570000D01*
X126003166Y-77570000D01*
X125989911Y-77486314D01*
X125920600Y-77272995D01*
X125920598Y-77272990D01*
X125818766Y-77073133D01*
X125686931Y-76891678D01*
X125528321Y-76733068D01*
X125468974Y-76689950D01*
X125403025Y-76618607D01*
X125369399Y-76527457D01*
X125373213Y-76430377D01*
X125413888Y-76342146D01*
X125457261Y-76298786D01*
X125456067Y-76297388D01*
X125463495Y-76291043D01*
X125463497Y-76291040D01*
X125463505Y-76291035D01*
X125611035Y-76143505D01*
X125733670Y-75974714D01*
X125828389Y-75788816D01*
X125892862Y-75590389D01*
X125925500Y-75384319D01*
X125925500Y-75175681D01*
X125892862Y-74969611D01*
X125828389Y-74771184D01*
X125733670Y-74585286D01*
X125611035Y-74416495D01*
X125463505Y-74268965D01*
X125384332Y-74211442D01*
X125318387Y-74140102D01*
X125284760Y-74048952D01*
X125288574Y-73951872D01*
X125329249Y-73863641D01*
X125384331Y-73808558D01*
X125463505Y-73751035D01*
X125611035Y-73603505D01*
X125733670Y-73434714D01*
X125828389Y-73248816D01*
X125892862Y-73050389D01*
X125925500Y-72844319D01*
X125925500Y-72635681D01*
X125892862Y-72429611D01*
X125828389Y-72231184D01*
X125733670Y-72045286D01*
X125611035Y-71876495D01*
X125463505Y-71728965D01*
X125384332Y-71671442D01*
X125318387Y-71600102D01*
X125284760Y-71508952D01*
X125288574Y-71411872D01*
X125329249Y-71323641D01*
X125384331Y-71268558D01*
X125463505Y-71211035D01*
X125611035Y-71063505D01*
X125733670Y-70894714D01*
X125828389Y-70708816D01*
X125892862Y-70510389D01*
X125925500Y-70304319D01*
X125925500Y-70095681D01*
X125892862Y-69889611D01*
X125828389Y-69691184D01*
X125733670Y-69505286D01*
X125611035Y-69336495D01*
X125463505Y-69188965D01*
X125384332Y-69131442D01*
X125318387Y-69060102D01*
X125284760Y-68968952D01*
X125288574Y-68871872D01*
X125329249Y-68783641D01*
X125384331Y-68728558D01*
X125463505Y-68671035D01*
X125611035Y-68523505D01*
X125733670Y-68354714D01*
X125828389Y-68168816D01*
X125892862Y-67970389D01*
X125925500Y-67764319D01*
X125925500Y-67555681D01*
X125892862Y-67349611D01*
X125828389Y-67151184D01*
X125733670Y-66965286D01*
X125611035Y-66796495D01*
X125463505Y-66648965D01*
X125384332Y-66591442D01*
X125318387Y-66520102D01*
X125284760Y-66428952D01*
X125288574Y-66331872D01*
X125329249Y-66243641D01*
X125384331Y-66188558D01*
X125463505Y-66131035D01*
X125611035Y-65983505D01*
X125733670Y-65814714D01*
X125828389Y-65628816D01*
X125892862Y-65430389D01*
X125925500Y-65224319D01*
X125925500Y-65015681D01*
X125892862Y-64809611D01*
X125828389Y-64611184D01*
X125733670Y-64425286D01*
X125611035Y-64256495D01*
X125463505Y-64108965D01*
X125294714Y-63986330D01*
X125108816Y-63891611D01*
X125108815Y-63891610D01*
X125108814Y-63891610D01*
X125108808Y-63891608D01*
X124995294Y-63854725D01*
X124910389Y-63827138D01*
X124910387Y-63827137D01*
X124910385Y-63827137D01*
X124704330Y-63794501D01*
X124704321Y-63794500D01*
X124704319Y-63794500D01*
X124495681Y-63794500D01*
X124495678Y-63794500D01*
X124495669Y-63794501D01*
X124289614Y-63827137D01*
X124091191Y-63891608D01*
X124091185Y-63891610D01*
X123905286Y-63986330D01*
X123736497Y-64108963D01*
X123588963Y-64256497D01*
X123466330Y-64425286D01*
X123371610Y-64611185D01*
X123371608Y-64611191D01*
X123307137Y-64809614D01*
X123274501Y-65015669D01*
X123274500Y-65015685D01*
X123274500Y-65224314D01*
X123274501Y-65224330D01*
X123307137Y-65430385D01*
X123370458Y-65625269D01*
X123371611Y-65628816D01*
X123466330Y-65814714D01*
X123588965Y-65983505D01*
X123736495Y-66131035D01*
X123736498Y-66131037D01*
X123815665Y-66188556D01*
X123881613Y-66259899D01*
X123915240Y-66351049D01*
X123911425Y-66448129D01*
X123870749Y-66536360D01*
X123815665Y-66591444D01*
X123736498Y-66648962D01*
X123588963Y-66796497D01*
X123466330Y-66965286D01*
X123371610Y-67151185D01*
X123371608Y-67151191D01*
X123307137Y-67349614D01*
X123274501Y-67555669D01*
X123274500Y-67555685D01*
X123274500Y-67764314D01*
X123274501Y-67764330D01*
X123307137Y-67970385D01*
X123307138Y-67970389D01*
X123371611Y-68168816D01*
X123466330Y-68354714D01*
X123588965Y-68523505D01*
X123736495Y-68671035D01*
X123736498Y-68671037D01*
X123815665Y-68728556D01*
X123881613Y-68799899D01*
X123915240Y-68891049D01*
X123911425Y-68988129D01*
X123870749Y-69076360D01*
X123815665Y-69131444D01*
X123736498Y-69188962D01*
X123588963Y-69336497D01*
X123466330Y-69505286D01*
X123371610Y-69691185D01*
X123371608Y-69691191D01*
X123307137Y-69889614D01*
X123274501Y-70095669D01*
X123274500Y-70095685D01*
X123274500Y-70304314D01*
X123274501Y-70304330D01*
X123307137Y-70510385D01*
X123307138Y-70510389D01*
X123371611Y-70708816D01*
X123466330Y-70894714D01*
X123588965Y-71063505D01*
X123736495Y-71211035D01*
X123736498Y-71211037D01*
X123815665Y-71268556D01*
X123881613Y-71339899D01*
X123915240Y-71431049D01*
X123911425Y-71528129D01*
X123870749Y-71616360D01*
X123815665Y-71671444D01*
X123736498Y-71728962D01*
X123588963Y-71876497D01*
X123466330Y-72045286D01*
X123371610Y-72231185D01*
X123371608Y-72231191D01*
X123307137Y-72429614D01*
X123274501Y-72635669D01*
X123274500Y-72635685D01*
X123274500Y-72844314D01*
X123274501Y-72844330D01*
X123283751Y-72902730D01*
X123307138Y-73050389D01*
X123371611Y-73248816D01*
X123466330Y-73434714D01*
X123588965Y-73603505D01*
X123736495Y-73751035D01*
X123736498Y-73751037D01*
X123815665Y-73808556D01*
X123881613Y-73879899D01*
X123915240Y-73971049D01*
X123911425Y-74068129D01*
X123870749Y-74156360D01*
X123815665Y-74211444D01*
X123736498Y-74268962D01*
X123588963Y-74416497D01*
X123466330Y-74585286D01*
X123371610Y-74771185D01*
X123371608Y-74771191D01*
X123307137Y-74969614D01*
X123274501Y-75175669D01*
X123274500Y-75175685D01*
X123274500Y-75384314D01*
X123274501Y-75384330D01*
X123307137Y-75590385D01*
X123307138Y-75590389D01*
X123371611Y-75788816D01*
X123466330Y-75974714D01*
X123588965Y-76143505D01*
X123736495Y-76291035D01*
X123736498Y-76291037D01*
X123736504Y-76291043D01*
X123743933Y-76297388D01*
X123742316Y-76299280D01*
X123796960Y-76358380D01*
X123830596Y-76449527D01*
X123826792Y-76546607D01*
X123786127Y-76634842D01*
X123731026Y-76689949D01*
X123671679Y-76733067D01*
X123513068Y-76891678D01*
X123381233Y-77073133D01*
X123279401Y-77272990D01*
X123279399Y-77272995D01*
X123210088Y-77486314D01*
X123196834Y-77570000D01*
X105500500Y-77570000D01*
X105500500Y-64292682D01*
X107499500Y-64292682D01*
X107499500Y-64334108D01*
X107499500Y-71334108D01*
X107499500Y-71400000D01*
X107499500Y-71507318D01*
X107530046Y-71719769D01*
X107590516Y-71925710D01*
X107590517Y-71925713D01*
X107590518Y-71925715D01*
X107590519Y-71925718D01*
X107679677Y-72120946D01*
X107679684Y-72120959D01*
X107737699Y-72211231D01*
X107795719Y-72301513D01*
X107936276Y-72463724D01*
X108098487Y-72604281D01*
X108229918Y-72688746D01*
X108279040Y-72720315D01*
X108279044Y-72720317D01*
X108279050Y-72720321D01*
X108474290Y-72809484D01*
X108680231Y-72869954D01*
X108892682Y-72900500D01*
X108892686Y-72900500D01*
X116507314Y-72900500D01*
X116507318Y-72900500D01*
X116719769Y-72869954D01*
X116925710Y-72809484D01*
X117120950Y-72720321D01*
X117301513Y-72604281D01*
X117463724Y-72463724D01*
X117604281Y-72301513D01*
X117720321Y-72120950D01*
X117809484Y-71925710D01*
X117869954Y-71719769D01*
X117900500Y-71507318D01*
X117900500Y-71400000D01*
X117900500Y-71334108D01*
X117900500Y-64334108D01*
X117900500Y-64292682D01*
X117869954Y-64080231D01*
X117809484Y-63874290D01*
X117720321Y-63679050D01*
X117604281Y-63498487D01*
X117463724Y-63336276D01*
X117301513Y-63195719D01*
X117211231Y-63137699D01*
X117120959Y-63079684D01*
X117120946Y-63079677D01*
X116925718Y-62990519D01*
X116925715Y-62990518D01*
X116925713Y-62990517D01*
X116925710Y-62990516D01*
X116719769Y-62930046D01*
X116507318Y-62899500D01*
X116465892Y-62899500D01*
X109065892Y-62899500D01*
X109000000Y-62899500D01*
X108892682Y-62899500D01*
X108680231Y-62930046D01*
X108474290Y-62990516D01*
X108474288Y-62990516D01*
X108474284Y-62990518D01*
X108474281Y-62990519D01*
X108279053Y-63079677D01*
X108279040Y-63079684D01*
X108114761Y-63185260D01*
X108098487Y-63195719D01*
X108098484Y-63195722D01*
X107936281Y-63336271D01*
X107936271Y-63336281D01*
X107848427Y-63437657D01*
X107795719Y-63498487D01*
X107795714Y-63498495D01*
X107679684Y-63679040D01*
X107679677Y-63679053D01*
X107590519Y-63874281D01*
X107590518Y-63874284D01*
X107590516Y-63874288D01*
X107590516Y-63874290D01*
X107530046Y-64080231D01*
X107499500Y-64292682D01*
X105500500Y-64292682D01*
X105500500Y-60559007D01*
X127921500Y-60559007D01*
X127921500Y-60696993D01*
X127948420Y-60832328D01*
X127955454Y-60849309D01*
X127966699Y-60880324D01*
X127966700Y-60880328D01*
X128106588Y-61266141D01*
X128121500Y-61351016D01*
X128121500Y-64222982D01*
X128106588Y-64307858D01*
X127958280Y-64716889D01*
X127958261Y-64716944D01*
X127955450Y-64724698D01*
X127948420Y-64741672D01*
X127946644Y-64750598D01*
X127941969Y-64765158D01*
X127941915Y-64765348D01*
X127941912Y-64765359D01*
X127941508Y-64766800D01*
X127941501Y-64766828D01*
X127929385Y-64827435D01*
X127929197Y-64829771D01*
X127925222Y-64858289D01*
X127921500Y-64877007D01*
X127921500Y-65014993D01*
X127937652Y-65096194D01*
X127948420Y-65150330D01*
X127953320Y-65162159D01*
X127957359Y-65172565D01*
X128106588Y-65584141D01*
X128121500Y-65669016D01*
X128121500Y-68540982D01*
X128106588Y-68625858D01*
X127957349Y-69037459D01*
X127953311Y-69047861D01*
X127948420Y-69059668D01*
X127946344Y-69066514D01*
X127943189Y-69078690D01*
X127943220Y-69078699D01*
X127942799Y-69080199D01*
X127942300Y-69082123D01*
X127941976Y-69083131D01*
X127941508Y-69084800D01*
X127941501Y-69084828D01*
X127929385Y-69145435D01*
X127929197Y-69147771D01*
X127925222Y-69176289D01*
X127921500Y-69195007D01*
X127921500Y-69332993D01*
X127937652Y-69414194D01*
X127948420Y-69468330D01*
X127953320Y-69480159D01*
X127957359Y-69490565D01*
X128106588Y-69902141D01*
X128121500Y-69987016D01*
X128121500Y-72858982D01*
X128106588Y-72943858D01*
X127957349Y-73355459D01*
X127953311Y-73365861D01*
X127948420Y-73377668D01*
X127946344Y-73384514D01*
X127943189Y-73396690D01*
X127943220Y-73396699D01*
X127942799Y-73398199D01*
X127942300Y-73400123D01*
X127941976Y-73401131D01*
X127941508Y-73402800D01*
X127941501Y-73402828D01*
X127929385Y-73463435D01*
X127929197Y-73465771D01*
X127925222Y-73494289D01*
X127921500Y-73513007D01*
X127921500Y-73650993D01*
X127937652Y-73732194D01*
X127948420Y-73786330D01*
X127953320Y-73798159D01*
X127957359Y-73808565D01*
X128106588Y-74220141D01*
X128121500Y-74305016D01*
X128121500Y-77176982D01*
X128106588Y-77261858D01*
X127957349Y-77673459D01*
X127953311Y-77683861D01*
X127948420Y-77695668D01*
X127946344Y-77702514D01*
X127943189Y-77714690D01*
X127943220Y-77714699D01*
X127942799Y-77716199D01*
X127942300Y-77718123D01*
X127941976Y-77719131D01*
X127941508Y-77720800D01*
X127941501Y-77720828D01*
X127929385Y-77781435D01*
X127929197Y-77783771D01*
X127925223Y-77812289D01*
X127921500Y-77831006D01*
X127921500Y-77968997D01*
X127948418Y-78104324D01*
X127948419Y-78104327D01*
X128001224Y-78231808D01*
X128001225Y-78231812D01*
X128060151Y-78320000D01*
X128077886Y-78346542D01*
X128175458Y-78444114D01*
X128175461Y-78444116D01*
X128290187Y-78520774D01*
X128290189Y-78520775D01*
X128401463Y-78566866D01*
X128417672Y-78573580D01*
X128417675Y-78573581D01*
X128551203Y-78600141D01*
X128553007Y-78600500D01*
X128690993Y-78600500D01*
X128758660Y-78587040D01*
X128826324Y-78573581D01*
X128826325Y-78573580D01*
X128826328Y-78573580D01*
X128953811Y-78520775D01*
X129068542Y-78444114D01*
X129166114Y-78346542D01*
X129242775Y-78231811D01*
X129295580Y-78104328D01*
X129322500Y-77968993D01*
X129322500Y-77831007D01*
X129295580Y-77695672D01*
X129290681Y-77683845D01*
X129286640Y-77673434D01*
X129137412Y-77261857D01*
X129122500Y-77176982D01*
X129122500Y-74305016D01*
X129137412Y-74220141D01*
X129213604Y-74010000D01*
X129286643Y-73808552D01*
X129290671Y-73798176D01*
X129295580Y-73786328D01*
X129295581Y-73786323D01*
X129297721Y-73779266D01*
X129300777Y-73767479D01*
X129300729Y-73767466D01*
X129301395Y-73765095D01*
X129301738Y-73763773D01*
X129301971Y-73763050D01*
X129302440Y-73761382D01*
X129314613Y-73700564D01*
X129314613Y-73700560D01*
X129314803Y-73698213D01*
X129318777Y-73669705D01*
X129322500Y-73650993D01*
X129322500Y-73513007D01*
X129295580Y-73377672D01*
X129290681Y-73365845D01*
X129286640Y-73355434D01*
X129137412Y-72943857D01*
X129122500Y-72858982D01*
X129122500Y-69987016D01*
X129137412Y-69902141D01*
X129213897Y-69691191D01*
X129286643Y-69490552D01*
X129290671Y-69480176D01*
X129295580Y-69468328D01*
X129295581Y-69468323D01*
X129297721Y-69461266D01*
X129300777Y-69449479D01*
X129300729Y-69449466D01*
X129301395Y-69447095D01*
X129301738Y-69445773D01*
X129301971Y-69445050D01*
X129302440Y-69443382D01*
X129314613Y-69382564D01*
X129314613Y-69382560D01*
X129314803Y-69380213D01*
X129318777Y-69351705D01*
X129322500Y-69332993D01*
X129322500Y-69195007D01*
X129295580Y-69059672D01*
X129290681Y-69047845D01*
X129286640Y-69037434D01*
X129137412Y-68625857D01*
X129122500Y-68540982D01*
X129122500Y-65669016D01*
X129137412Y-65584141D01*
X129193160Y-65430385D01*
X129286643Y-65172552D01*
X129290671Y-65162176D01*
X129295580Y-65150328D01*
X129295581Y-65150323D01*
X129297721Y-65143266D01*
X129300777Y-65131479D01*
X129300729Y-65131466D01*
X129301395Y-65129095D01*
X129301738Y-65127773D01*
X129301971Y-65127050D01*
X129302440Y-65125382D01*
X129314613Y-65064564D01*
X129314613Y-65064560D01*
X129314803Y-65062213D01*
X129318777Y-65033705D01*
X129322500Y-65014993D01*
X129322500Y-64877007D01*
X129295580Y-64741672D01*
X129290681Y-64729845D01*
X129286640Y-64719434D01*
X129137412Y-64307857D01*
X129122500Y-64222982D01*
X129122500Y-61351016D01*
X129137412Y-61266141D01*
X129286638Y-60854568D01*
X129290671Y-60844176D01*
X129295580Y-60832328D01*
X129295581Y-60832323D01*
X129297721Y-60825266D01*
X129300777Y-60813479D01*
X129300729Y-60813466D01*
X129301395Y-60811095D01*
X129301738Y-60809773D01*
X129301971Y-60809050D01*
X129302440Y-60807382D01*
X129314613Y-60746564D01*
X129314613Y-60746560D01*
X129314803Y-60744213D01*
X129318777Y-60715705D01*
X129322500Y-60696993D01*
X129322500Y-60559007D01*
X129295580Y-60423672D01*
X129242775Y-60296189D01*
X129166114Y-60181458D01*
X129068542Y-60083886D01*
X129068538Y-60083883D01*
X128953812Y-60007225D01*
X128953809Y-60007224D01*
X128854937Y-59966270D01*
X128826327Y-59954419D01*
X128826324Y-59954418D01*
X128690997Y-59927500D01*
X128690993Y-59927500D01*
X128553007Y-59927500D01*
X128553002Y-59927500D01*
X128417675Y-59954418D01*
X128417672Y-59954419D01*
X128290191Y-60007224D01*
X128290187Y-60007225D01*
X128175461Y-60083883D01*
X128077883Y-60181461D01*
X128001225Y-60296187D01*
X128001224Y-60296191D01*
X127948419Y-60423672D01*
X127948418Y-60423675D01*
X127923714Y-60547872D01*
X127923714Y-60547874D01*
X127921500Y-60559007D01*
X105500500Y-60559007D01*
X105500500Y-58006111D01*
X105500800Y-57993894D01*
X105506941Y-57868880D01*
X106999500Y-57868880D01*
X106999500Y-58131119D01*
X107033729Y-58391112D01*
X107101601Y-58644417D01*
X107201953Y-58886689D01*
X107201955Y-58886693D01*
X107201957Y-58886697D01*
X107287291Y-59034500D01*
X107333073Y-59113798D01*
X107333082Y-59113812D01*
X107492713Y-59321845D01*
X107492718Y-59321851D01*
X107678149Y-59507282D01*
X107678153Y-59507285D01*
X107678154Y-59507286D01*
X107886187Y-59666917D01*
X107886192Y-59666920D01*
X107886197Y-59666924D01*
X108113303Y-59798043D01*
X108355581Y-59898398D01*
X108608884Y-59966270D01*
X108868880Y-60000500D01*
X109131120Y-60000500D01*
X109391116Y-59966270D01*
X109644419Y-59898398D01*
X109886697Y-59798043D01*
X110113803Y-59666924D01*
X110321851Y-59507282D01*
X110507282Y-59321851D01*
X110666924Y-59113803D01*
X110798043Y-58886697D01*
X110898398Y-58644419D01*
X110966270Y-58391116D01*
X111000500Y-58131120D01*
X111000500Y-57868880D01*
X110982438Y-57731692D01*
X114642000Y-57731692D01*
X114642000Y-57936307D01*
X114642001Y-57936323D01*
X114674009Y-58138413D01*
X114737240Y-58333019D01*
X114737242Y-58333025D01*
X114830140Y-58515350D01*
X114862523Y-58559920D01*
X114862524Y-58559920D01*
X115542000Y-57880444D01*
X115542000Y-57886661D01*
X115569259Y-57988394D01*
X115621920Y-58079606D01*
X115696394Y-58154080D01*
X115787606Y-58206741D01*
X115889339Y-58234000D01*
X115895554Y-58234000D01*
X115216078Y-58913474D01*
X115216078Y-58913475D01*
X115260652Y-58945860D01*
X115442974Y-59038757D01*
X115442980Y-59038759D01*
X115637586Y-59101990D01*
X115839676Y-59133998D01*
X115839692Y-59134000D01*
X116044308Y-59134000D01*
X116044323Y-59133998D01*
X116246413Y-59101990D01*
X116441019Y-59038759D01*
X116441025Y-59038757D01*
X116623342Y-58945863D01*
X116623347Y-58945859D01*
X116667920Y-58913474D01*
X116667921Y-58913474D01*
X115988446Y-58234000D01*
X115994661Y-58234000D01*
X116096394Y-58206741D01*
X116187606Y-58154080D01*
X116262080Y-58079606D01*
X116314741Y-57988394D01*
X116342000Y-57886661D01*
X116342000Y-57880446D01*
X117021474Y-58559921D01*
X117052051Y-58517837D01*
X117123395Y-58451890D01*
X117214545Y-58418264D01*
X117311626Y-58422080D01*
X117399856Y-58462756D01*
X117454939Y-58517841D01*
X117526301Y-58616062D01*
X117526304Y-58616066D01*
X117526306Y-58616068D01*
X117526310Y-58616073D01*
X117659927Y-58749690D01*
X117812801Y-58860760D01*
X117981168Y-58946547D01*
X118160882Y-59004940D01*
X118347519Y-59034500D01*
X118347523Y-59034500D01*
X118536477Y-59034500D01*
X118536481Y-59034500D01*
X118723118Y-59004940D01*
X118902832Y-58946547D01*
X119071199Y-58860760D01*
X119224073Y-58749690D01*
X119357690Y-58616073D01*
X119468760Y-58463199D01*
X119554547Y-58294832D01*
X119612940Y-58115118D01*
X119642500Y-57928481D01*
X119642500Y-57739519D01*
X119612940Y-57552882D01*
X119554547Y-57373168D01*
X119468760Y-57204801D01*
X119357690Y-57051927D01*
X119224073Y-56918310D01*
X119224069Y-56918307D01*
X119224068Y-56918306D01*
X119179860Y-56886187D01*
X119071199Y-56807240D01*
X118902832Y-56721453D01*
X118902829Y-56721452D01*
X118902827Y-56721451D01*
X118769572Y-56678154D01*
X118723118Y-56663060D01*
X118723116Y-56663059D01*
X118723114Y-56663059D01*
X118536492Y-56633501D01*
X118536483Y-56633500D01*
X118536481Y-56633500D01*
X118347519Y-56633500D01*
X118347516Y-56633500D01*
X118347507Y-56633501D01*
X118160885Y-56663059D01*
X117981172Y-56721451D01*
X117981168Y-56721452D01*
X117981168Y-56721453D01*
X117812801Y-56807240D01*
X117812800Y-56807241D01*
X117659931Y-56918306D01*
X117526305Y-57051932D01*
X117454939Y-57150159D01*
X117383595Y-57216108D01*
X117292445Y-57249735D01*
X117195365Y-57245920D01*
X117107135Y-57205245D01*
X117052050Y-57150160D01*
X117021475Y-57108078D01*
X117021474Y-57108078D01*
X116342000Y-57787552D01*
X116342000Y-57781339D01*
X116314741Y-57679606D01*
X116262080Y-57588394D01*
X116187606Y-57513920D01*
X116096394Y-57461259D01*
X115994661Y-57434000D01*
X115988445Y-57434000D01*
X116667920Y-56754524D01*
X116667920Y-56754523D01*
X116623350Y-56722140D01*
X116441025Y-56629242D01*
X116441019Y-56629240D01*
X116246413Y-56566009D01*
X116044323Y-56534001D01*
X116044308Y-56534000D01*
X115839692Y-56534000D01*
X115839676Y-56534001D01*
X115637586Y-56566009D01*
X115442980Y-56629240D01*
X115442974Y-56629242D01*
X115260647Y-56722142D01*
X115216078Y-56754523D01*
X115895555Y-57434000D01*
X115889339Y-57434000D01*
X115787606Y-57461259D01*
X115696394Y-57513920D01*
X115621920Y-57588394D01*
X115569259Y-57679606D01*
X115542000Y-57781339D01*
X115542000Y-57787555D01*
X114862523Y-57108078D01*
X114830142Y-57152647D01*
X114737242Y-57334974D01*
X114737240Y-57334980D01*
X114674009Y-57529586D01*
X114642001Y-57731676D01*
X114642000Y-57731692D01*
X110982438Y-57731692D01*
X110966270Y-57608884D01*
X110898398Y-57355581D01*
X110798043Y-57113303D01*
X110666924Y-56886197D01*
X110666920Y-56886192D01*
X110666917Y-56886187D01*
X110507286Y-56678154D01*
X110507285Y-56678153D01*
X110507282Y-56678149D01*
X110321851Y-56492718D01*
X110321846Y-56492714D01*
X110321845Y-56492713D01*
X110113812Y-56333082D01*
X110113798Y-56333073D01*
X110015103Y-56276092D01*
X109886697Y-56201957D01*
X109886695Y-56201956D01*
X109886693Y-56201955D01*
X109886689Y-56201953D01*
X109644417Y-56101601D01*
X109512572Y-56066274D01*
X109391116Y-56033730D01*
X109391111Y-56033729D01*
X109391114Y-56033729D01*
X109131120Y-55999500D01*
X108868880Y-55999500D01*
X108608887Y-56033729D01*
X108355582Y-56101601D01*
X108113310Y-56201953D01*
X108113306Y-56201955D01*
X107886201Y-56333073D01*
X107886187Y-56333082D01*
X107678154Y-56492713D01*
X107492713Y-56678154D01*
X107333082Y-56886187D01*
X107333073Y-56886201D01*
X107201955Y-57113306D01*
X107201953Y-57113310D01*
X107101601Y-57355582D01*
X107033729Y-57608887D01*
X106999500Y-57868880D01*
X105506941Y-57868880D01*
X105507942Y-57848511D01*
X105513296Y-57739523D01*
X105516751Y-57669193D01*
X105519143Y-57644906D01*
X105565949Y-57329362D01*
X105570709Y-57305435D01*
X105648220Y-56995991D01*
X105655303Y-56972644D01*
X105762766Y-56672306D01*
X105772110Y-56649748D01*
X105908489Y-56361400D01*
X105919996Y-56339870D01*
X106083995Y-56066254D01*
X106097547Y-56045971D01*
X106287571Y-55789754D01*
X106303055Y-55770888D01*
X106517282Y-55534524D01*
X106534524Y-55517282D01*
X106770888Y-55303055D01*
X106789754Y-55287571D01*
X107045971Y-55097547D01*
X107066254Y-55083995D01*
X107339870Y-54919996D01*
X107361400Y-54908489D01*
X107649748Y-54772110D01*
X107672306Y-54762766D01*
X107972644Y-54655303D01*
X107995991Y-54648220D01*
X108305435Y-54570709D01*
X108329362Y-54565949D01*
X108644906Y-54519143D01*
X108669193Y-54516751D01*
X108979950Y-54501484D01*
X108993894Y-54500800D01*
X109006111Y-54500500D01*
X129397360Y-54500500D01*
X129492648Y-54519454D01*
G37*
G04 #@! TD.AperFunction*
G04 #@! TA.AperFunction,Conductor*
G36*
X144010362Y-56657986D02*
G01*
X144011872Y-56658835D01*
X144248734Y-56815984D01*
X144252015Y-56819265D01*
X144409164Y-57056127D01*
X144410883Y-57064915D01*
X144405883Y-57072344D01*
X144404373Y-57073193D01*
X143907953Y-57305422D01*
X143899007Y-57305823D01*
X143894722Y-57303097D01*
X143764902Y-57173277D01*
X143761475Y-57165004D01*
X143762575Y-57160051D01*
X143994806Y-56663625D01*
X144001416Y-56657585D01*
X144010362Y-56657986D01*
G37*
G04 #@! TD.AperFunction*
G04 #@! TA.AperFunction,Conductor*
G36*
X133982930Y-65001835D02*
G01*
X133990358Y-65006834D01*
X133992077Y-65015622D01*
X133991608Y-65017290D01*
X133804796Y-65532524D01*
X133798755Y-65539134D01*
X133793797Y-65540236D01*
X133610203Y-65540236D01*
X133601930Y-65536809D01*
X133599204Y-65532524D01*
X133551544Y-65401078D01*
X133412391Y-65017288D01*
X133412792Y-65008344D01*
X133419402Y-65002303D01*
X133421056Y-65001837D01*
X133699682Y-64945469D01*
X133704318Y-64945469D01*
X133982930Y-65001835D01*
G37*
G04 #@! TD.AperFunction*
G04 #@! TA.AperFunction,Conductor*
G36*
X133802070Y-68673191D02*
G01*
X133804796Y-68677476D01*
X133991608Y-69192709D01*
X133991207Y-69201655D01*
X133984597Y-69207696D01*
X133982929Y-69208165D01*
X133704320Y-69264530D01*
X133699680Y-69264530D01*
X133421070Y-69208165D01*
X133413641Y-69203165D01*
X133411922Y-69194377D01*
X133412387Y-69192720D01*
X133599204Y-68677476D01*
X133605245Y-68670866D01*
X133610203Y-68669764D01*
X133793797Y-68669764D01*
X133802070Y-68673191D01*
G37*
G04 #@! TD.AperFunction*
G04 #@! TA.AperFunction,Conductor*
G36*
X133982930Y-73637835D02*
G01*
X133990358Y-73642834D01*
X133992077Y-73651622D01*
X133991608Y-73653290D01*
X133804796Y-74168524D01*
X133798755Y-74175134D01*
X133793797Y-74176236D01*
X133610203Y-74176236D01*
X133601930Y-74172809D01*
X133599204Y-74168524D01*
X133551544Y-74037078D01*
X133412391Y-73653288D01*
X133412792Y-73644344D01*
X133419402Y-73638303D01*
X133421056Y-73637837D01*
X133699682Y-73581469D01*
X133704318Y-73581469D01*
X133982930Y-73637835D01*
G37*
G04 #@! TD.AperFunction*
G04 #@! TA.AperFunction,Conductor*
G36*
X147648652Y-110569924D02*
G01*
X147652956Y-110577777D01*
X147653025Y-110579046D01*
X147653025Y-110762111D01*
X147650698Y-110769114D01*
X147420072Y-111077795D01*
X147412375Y-111082371D01*
X147404217Y-111080532D01*
X147167064Y-110922704D01*
X147162075Y-110915268D01*
X147162063Y-110915209D01*
X147107915Y-110638256D01*
X147109691Y-110629481D01*
X147117153Y-110624530D01*
X147118114Y-110624384D01*
X147640057Y-110567415D01*
X147648652Y-110569924D01*
G37*
G04 #@! TD.AperFunction*
G04 #@! TA.AperFunction,Conductor*
G36*
X133802070Y-72991191D02*
G01*
X133804796Y-72995476D01*
X133991608Y-73510709D01*
X133991207Y-73519655D01*
X133984597Y-73525696D01*
X133982929Y-73526165D01*
X133704320Y-73582530D01*
X133699680Y-73582530D01*
X133421070Y-73526165D01*
X133413641Y-73521165D01*
X133411922Y-73512377D01*
X133412387Y-73510720D01*
X133599204Y-72995476D01*
X133605245Y-72988866D01*
X133610203Y-72987764D01*
X133793797Y-72987764D01*
X133802070Y-72991191D01*
G37*
G04 #@! TD.AperFunction*
G04 #@! TA.AperFunction,Conductor*
G36*
X133982930Y-69319835D02*
G01*
X133990358Y-69324834D01*
X133992077Y-69333622D01*
X133991608Y-69335290D01*
X133804796Y-69850524D01*
X133798755Y-69857134D01*
X133793797Y-69858236D01*
X133610203Y-69858236D01*
X133601930Y-69854809D01*
X133599204Y-69850524D01*
X133551544Y-69719078D01*
X133412391Y-69335288D01*
X133412792Y-69326344D01*
X133419402Y-69320303D01*
X133421056Y-69319837D01*
X133699682Y-69263469D01*
X133704318Y-69263469D01*
X133982930Y-69319835D01*
G37*
G04 #@! TD.AperFunction*
G04 #@! TA.AperFunction,Conductor*
G36*
X147870282Y-93866389D02*
G01*
X148385525Y-94053204D01*
X148392134Y-94059244D01*
X148393236Y-94064202D01*
X148393236Y-94247797D01*
X148389809Y-94256070D01*
X148385524Y-94258796D01*
X147870290Y-94445608D01*
X147861344Y-94445207D01*
X147855303Y-94438597D01*
X147854837Y-94436939D01*
X147798469Y-94158318D01*
X147798469Y-94153680D01*
X147854835Y-93875067D01*
X147859834Y-93867641D01*
X147868622Y-93865922D01*
X147870282Y-93866389D01*
G37*
G04 #@! TD.AperFunction*
G04 #@! TA.AperFunction,Conductor*
G36*
X151419655Y-93866792D02*
G01*
X151425696Y-93873402D01*
X151426165Y-93875070D01*
X151482530Y-94153680D01*
X151482530Y-94158320D01*
X151426165Y-94436929D01*
X151421165Y-94444358D01*
X151412377Y-94446077D01*
X151410709Y-94445608D01*
X150895476Y-94258796D01*
X150888866Y-94252755D01*
X150887764Y-94247797D01*
X150887764Y-94064202D01*
X150891191Y-94055929D01*
X150895473Y-94053204D01*
X151410711Y-93866391D01*
X151419655Y-93866792D01*
G37*
G04 #@! TD.AperFunction*
G04 #@! TA.AperFunction,Conductor*
G36*
X151165655Y-110376792D02*
G01*
X151171696Y-110383402D01*
X151172165Y-110385070D01*
X151228530Y-110663680D01*
X151228530Y-110668320D01*
X151172165Y-110946929D01*
X151167165Y-110954358D01*
X151158377Y-110956077D01*
X151156709Y-110955608D01*
X150641476Y-110768796D01*
X150634866Y-110762755D01*
X150633764Y-110757797D01*
X150633764Y-110574202D01*
X150637191Y-110565929D01*
X150641473Y-110563204D01*
X151156711Y-110376391D01*
X151165655Y-110376792D01*
G37*
G04 #@! TD.AperFunction*
G04 #@! TA.AperFunction,Conductor*
G36*
X133295277Y-78430902D02*
G01*
X133425097Y-78560722D01*
X133428524Y-78568995D01*
X133427422Y-78573953D01*
X133195193Y-79070373D01*
X133188583Y-79076414D01*
X133179637Y-79076013D01*
X133178127Y-79075164D01*
X132941265Y-78918015D01*
X132937984Y-78914734D01*
X132780835Y-78677872D01*
X132779116Y-78669084D01*
X132784116Y-78661655D01*
X132785621Y-78660808D01*
X133282048Y-78428576D01*
X133290992Y-78428176D01*
X133295277Y-78430902D01*
G37*
G04 #@! TD.AperFunction*
G04 #@! TA.AperFunction,Conductor*
G36*
X137703655Y-76848792D02*
G01*
X137709696Y-76855402D01*
X137710165Y-76857070D01*
X137766530Y-77135680D01*
X137766530Y-77140320D01*
X137710165Y-77418929D01*
X137705165Y-77426358D01*
X137696377Y-77428077D01*
X137694709Y-77427608D01*
X137179476Y-77240796D01*
X137172866Y-77234755D01*
X137171764Y-77229797D01*
X137171764Y-77046202D01*
X137175191Y-77037929D01*
X137179473Y-77035204D01*
X137694711Y-76848391D01*
X137703655Y-76848792D01*
G37*
G04 #@! TD.AperFunction*
G04 #@! TA.AperFunction,Conductor*
G36*
X133982930Y-60683835D02*
G01*
X133990358Y-60688834D01*
X133992077Y-60697622D01*
X133991608Y-60699290D01*
X133804796Y-61214524D01*
X133798755Y-61221134D01*
X133793797Y-61222236D01*
X133610203Y-61222236D01*
X133601930Y-61218809D01*
X133599204Y-61214524D01*
X133551544Y-61083078D01*
X133412391Y-60699288D01*
X133412792Y-60690344D01*
X133419402Y-60684303D01*
X133421056Y-60683837D01*
X133699682Y-60627469D01*
X133704318Y-60627469D01*
X133982930Y-60683835D01*
G37*
G04 #@! TD.AperFunction*
G04 #@! TA.AperFunction,Conductor*
G36*
X133802070Y-64355191D02*
G01*
X133804796Y-64359476D01*
X133991608Y-64874709D01*
X133991207Y-64883655D01*
X133984597Y-64889696D01*
X133982929Y-64890165D01*
X133704320Y-64946530D01*
X133699680Y-64946530D01*
X133421070Y-64890165D01*
X133413641Y-64885165D01*
X133411922Y-64876377D01*
X133412387Y-64874720D01*
X133599204Y-64359476D01*
X133605245Y-64352866D01*
X133610203Y-64351764D01*
X133793797Y-64351764D01*
X133802070Y-64355191D01*
G37*
G04 #@! TD.AperFunction*
G04 #@! TA.AperFunction,Conductor*
G36*
X146148344Y-95270116D02*
G01*
X146149193Y-95271626D01*
X146221080Y-95425293D01*
X146340791Y-95681193D01*
X146381422Y-95768046D01*
X146381823Y-95776992D01*
X146379097Y-95781277D01*
X146249277Y-95911097D01*
X146241004Y-95914524D01*
X146236047Y-95913422D01*
X146085428Y-95842961D01*
X145739626Y-95681193D01*
X145733585Y-95674583D01*
X145733986Y-95665637D01*
X145734835Y-95664127D01*
X145891985Y-95427263D01*
X145895263Y-95423985D01*
X146132127Y-95266834D01*
X146140915Y-95265116D01*
X146148344Y-95270116D01*
G37*
G04 #@! TD.AperFunction*
G04 #@! TA.AperFunction,Conductor*
G36*
X131354084Y-85738364D02*
G01*
X131359753Y-85745296D01*
X131360019Y-85746353D01*
X131416530Y-86025680D01*
X131416530Y-86030320D01*
X131360019Y-86309646D01*
X131355019Y-86317075D01*
X131346231Y-86318794D01*
X131345174Y-86318528D01*
X131000000Y-86214480D01*
X131000000Y-86214481D01*
X130908000Y-86186750D01*
X130908000Y-85869250D01*
X131345174Y-85737471D01*
X131354084Y-85738364D01*
G37*
G04 #@! TD.AperFunction*
G04 #@! TA.AperFunction,Conductor*
G36*
X131354084Y-80658364D02*
G01*
X131359753Y-80665296D01*
X131360019Y-80666353D01*
X131416530Y-80945680D01*
X131416530Y-80950320D01*
X131360019Y-81229646D01*
X131355019Y-81237075D01*
X131346231Y-81238794D01*
X131345174Y-81238528D01*
X131000000Y-81134480D01*
X131000000Y-81134481D01*
X130908000Y-81106750D01*
X130908000Y-80789250D01*
X131345174Y-80657471D01*
X131354084Y-80658364D01*
G37*
G04 #@! TD.AperFunction*
G04 #@! TA.AperFunction,Conductor*
G36*
X151166431Y-113424068D02*
G01*
X151171782Y-113431248D01*
X151171907Y-113431797D01*
X151228530Y-113711680D01*
X151228530Y-113716320D01*
X151171907Y-113996202D01*
X151166907Y-114003631D01*
X151158119Y-114005350D01*
X151157570Y-114005225D01*
X150642595Y-113874983D01*
X150635415Y-113869632D01*
X150633764Y-113863640D01*
X150633764Y-113564359D01*
X150637191Y-113556086D01*
X150642593Y-113553016D01*
X151157570Y-113422774D01*
X151166431Y-113424068D01*
G37*
G04 #@! TD.AperFunction*
G04 #@! TA.AperFunction,Conductor*
G36*
X142529655Y-95136792D02*
G01*
X142535696Y-95143402D01*
X142536165Y-95145070D01*
X142592530Y-95423680D01*
X142592530Y-95428320D01*
X142536165Y-95706929D01*
X142531165Y-95714358D01*
X142522377Y-95716077D01*
X142520709Y-95715608D01*
X142005476Y-95528796D01*
X141998866Y-95522755D01*
X141997764Y-95517797D01*
X141997764Y-95334202D01*
X142001191Y-95325929D01*
X142005473Y-95323204D01*
X142520711Y-95136391D01*
X142529655Y-95136792D01*
G37*
G04 #@! TD.AperFunction*
G04 #@! TA.AperFunction,Conductor*
G36*
X131354084Y-83198364D02*
G01*
X131359753Y-83205296D01*
X131360019Y-83206353D01*
X131416530Y-83485680D01*
X131416530Y-83490320D01*
X131360019Y-83769646D01*
X131355019Y-83777075D01*
X131346231Y-83778794D01*
X131345174Y-83778528D01*
X131000000Y-83674480D01*
X131000000Y-83674481D01*
X130908000Y-83646750D01*
X130908000Y-83329250D01*
X131345174Y-83197471D01*
X131354084Y-83198364D01*
G37*
G04 #@! TD.AperFunction*
G04 #@! TA.AperFunction,Conductor*
G36*
X150820070Y-71975191D02*
G01*
X150822796Y-71979476D01*
X151009608Y-72494709D01*
X151009207Y-72503655D01*
X151002597Y-72509696D01*
X151000929Y-72510165D01*
X150722320Y-72566530D01*
X150717680Y-72566530D01*
X150439070Y-72510165D01*
X150431641Y-72505165D01*
X150429922Y-72496377D01*
X150430387Y-72494720D01*
X150617204Y-71979476D01*
X150623245Y-71972866D01*
X150628203Y-71971764D01*
X150811797Y-71971764D01*
X150820070Y-71975191D01*
G37*
G04 #@! TD.AperFunction*
G04 #@! TA.AperFunction,Conductor*
G36*
X151000930Y-69573835D02*
G01*
X151008358Y-69578834D01*
X151010077Y-69587622D01*
X151009608Y-69589290D01*
X150822796Y-70104524D01*
X150816755Y-70111134D01*
X150811797Y-70112236D01*
X150628203Y-70112236D01*
X150619930Y-70108809D01*
X150617204Y-70104524D01*
X150569544Y-69973078D01*
X150430391Y-69589288D01*
X150430792Y-69580344D01*
X150437402Y-69574303D01*
X150439056Y-69573837D01*
X150717682Y-69517469D01*
X150722318Y-69517469D01*
X151000930Y-69573835D01*
G37*
G04 #@! TD.AperFunction*
G04 #@! TA.AperFunction,Conductor*
G36*
X151165655Y-111392792D02*
G01*
X151171696Y-111399402D01*
X151172165Y-111401070D01*
X151228530Y-111679680D01*
X151228530Y-111684320D01*
X151172165Y-111962929D01*
X151167165Y-111970358D01*
X151158377Y-111972077D01*
X151156709Y-111971608D01*
X150641476Y-111784796D01*
X150634866Y-111778755D01*
X150633764Y-111773797D01*
X150633764Y-111590202D01*
X150637191Y-111581929D01*
X150641473Y-111579204D01*
X151156711Y-111392391D01*
X151165655Y-111392792D01*
G37*
G04 #@! TD.AperFunction*
G04 #@! TA.AperFunction,Conductor*
G36*
X147997282Y-111392389D02*
G01*
X148512525Y-111579204D01*
X148519134Y-111585244D01*
X148520236Y-111590202D01*
X148520236Y-111773797D01*
X148516809Y-111782070D01*
X148512524Y-111784796D01*
X147997290Y-111971608D01*
X147988344Y-111971207D01*
X147982303Y-111964597D01*
X147981837Y-111962939D01*
X147925469Y-111684318D01*
X147925469Y-111679680D01*
X147981835Y-111401067D01*
X147986834Y-111393641D01*
X147995622Y-111391922D01*
X147997282Y-111392389D01*
G37*
G04 #@! TD.AperFunction*
G04 #@! TA.AperFunction,Conductor*
G36*
X151836070Y-71975191D02*
G01*
X151838796Y-71979476D01*
X152025608Y-72494709D01*
X152025207Y-72503655D01*
X152018597Y-72509696D01*
X152016929Y-72510165D01*
X151738320Y-72566530D01*
X151733680Y-72566530D01*
X151455070Y-72510165D01*
X151447641Y-72505165D01*
X151445922Y-72496377D01*
X151446387Y-72494720D01*
X151633204Y-71979476D01*
X151639245Y-71972866D01*
X151644203Y-71971764D01*
X151827797Y-71971764D01*
X151836070Y-71975191D01*
G37*
G04 #@! TD.AperFunction*
G04 #@! TA.AperFunction,Conductor*
G36*
X152016930Y-69573835D02*
G01*
X152024358Y-69578834D01*
X152026077Y-69587622D01*
X152025608Y-69589290D01*
X151838796Y-70104524D01*
X151832755Y-70111134D01*
X151827797Y-70112236D01*
X151644203Y-70112236D01*
X151635930Y-70108809D01*
X151633204Y-70104524D01*
X151585544Y-69973078D01*
X151446391Y-69589288D01*
X151446792Y-69580344D01*
X151453402Y-69574303D01*
X151455056Y-69573837D01*
X151733682Y-69517469D01*
X151738318Y-69517469D01*
X152016930Y-69573835D01*
G37*
G04 #@! TD.AperFunction*
G04 #@! TA.AperFunction,Conductor*
G36*
X148944071Y-112286203D02*
G01*
X149061966Y-112444000D01*
X149174698Y-112594885D01*
X149177025Y-112601888D01*
X149177025Y-112784953D01*
X149173598Y-112793226D01*
X149165325Y-112796653D01*
X149164056Y-112796584D01*
X148642129Y-112739617D01*
X148634276Y-112735313D01*
X148631767Y-112726717D01*
X148631911Y-112725762D01*
X148686063Y-112448788D01*
X148691013Y-112441329D01*
X148928218Y-112283466D01*
X148937003Y-112281736D01*
X148944071Y-112286203D01*
G37*
G04 #@! TD.AperFunction*
G04 #@! TA.AperFunction,Conductor*
G36*
X151165655Y-112408792D02*
G01*
X151171696Y-112415402D01*
X151172165Y-112417070D01*
X151228530Y-112695680D01*
X151228530Y-112700320D01*
X151172165Y-112978929D01*
X151167165Y-112986358D01*
X151158377Y-112988077D01*
X151156709Y-112987608D01*
X150641476Y-112800796D01*
X150634866Y-112794755D01*
X150633764Y-112789797D01*
X150633764Y-112606202D01*
X150637191Y-112597929D01*
X150641473Y-112595204D01*
X151156711Y-112408391D01*
X151165655Y-112408792D01*
G37*
G04 #@! TD.AperFunction*
G04 #@! TA.AperFunction,Conductor*
G36*
X128722070Y-68673191D02*
G01*
X128724796Y-68677476D01*
X128911608Y-69192709D01*
X128911207Y-69201655D01*
X128904597Y-69207696D01*
X128902929Y-69208165D01*
X128624320Y-69264530D01*
X128619680Y-69264530D01*
X128341070Y-69208165D01*
X128333641Y-69203165D01*
X128331922Y-69194377D01*
X128332387Y-69192720D01*
X128519204Y-68677476D01*
X128525245Y-68670866D01*
X128530203Y-68669764D01*
X128713797Y-68669764D01*
X128722070Y-68673191D01*
G37*
G04 #@! TD.AperFunction*
G04 #@! TA.AperFunction,Conductor*
G36*
X128902930Y-65001835D02*
G01*
X128910358Y-65006834D01*
X128912077Y-65015622D01*
X128911608Y-65017290D01*
X128724796Y-65532524D01*
X128718755Y-65539134D01*
X128713797Y-65540236D01*
X128530203Y-65540236D01*
X128521930Y-65536809D01*
X128519204Y-65532524D01*
X128471544Y-65401078D01*
X128332391Y-65017288D01*
X128332792Y-65008344D01*
X128339402Y-65002303D01*
X128341056Y-65001837D01*
X128619682Y-64945469D01*
X128624318Y-64945469D01*
X128902930Y-65001835D01*
G37*
G04 #@! TD.AperFunction*
G04 #@! TA.AperFunction,Conductor*
G36*
X128902930Y-69319835D02*
G01*
X128910358Y-69324834D01*
X128912077Y-69333622D01*
X128911608Y-69335290D01*
X128724796Y-69850524D01*
X128718755Y-69857134D01*
X128713797Y-69858236D01*
X128530203Y-69858236D01*
X128521930Y-69854809D01*
X128519204Y-69850524D01*
X128471544Y-69719078D01*
X128332391Y-69335288D01*
X128332792Y-69326344D01*
X128339402Y-69320303D01*
X128341056Y-69319837D01*
X128619682Y-69263469D01*
X128624318Y-69263469D01*
X128902930Y-69319835D01*
G37*
G04 #@! TD.AperFunction*
G04 #@! TA.AperFunction,Conductor*
G36*
X128722070Y-72991191D02*
G01*
X128724796Y-72995476D01*
X128911608Y-73510709D01*
X128911207Y-73519655D01*
X128904597Y-73525696D01*
X128902929Y-73526165D01*
X128624320Y-73582530D01*
X128619680Y-73582530D01*
X128341070Y-73526165D01*
X128333641Y-73521165D01*
X128331922Y-73512377D01*
X128332387Y-73510720D01*
X128519204Y-72995476D01*
X128525245Y-72988866D01*
X128530203Y-72987764D01*
X128713797Y-72987764D01*
X128722070Y-72991191D01*
G37*
G04 #@! TD.AperFunction*
G04 #@! TA.AperFunction,Conductor*
G36*
X128722070Y-64355191D02*
G01*
X128724796Y-64359476D01*
X128911608Y-64874709D01*
X128911207Y-64883655D01*
X128904597Y-64889696D01*
X128902929Y-64890165D01*
X128624320Y-64946530D01*
X128619680Y-64946530D01*
X128341070Y-64890165D01*
X128333641Y-64885165D01*
X128331922Y-64876377D01*
X128332387Y-64874720D01*
X128519204Y-64359476D01*
X128525245Y-64352866D01*
X128530203Y-64351764D01*
X128713797Y-64351764D01*
X128722070Y-64355191D01*
G37*
G04 #@! TD.AperFunction*
G04 #@! TA.AperFunction,Conductor*
G36*
X128902930Y-60683835D02*
G01*
X128910358Y-60688834D01*
X128912077Y-60697622D01*
X128911608Y-60699290D01*
X128724796Y-61214524D01*
X128718755Y-61221134D01*
X128713797Y-61222236D01*
X128530203Y-61222236D01*
X128521930Y-61218809D01*
X128519204Y-61214524D01*
X128471544Y-61083078D01*
X128332391Y-60699288D01*
X128332792Y-60690344D01*
X128339402Y-60684303D01*
X128341056Y-60683837D01*
X128619682Y-60627469D01*
X128624318Y-60627469D01*
X128902930Y-60683835D01*
G37*
G04 #@! TD.AperFunction*
G04 #@! TA.AperFunction,Conductor*
G36*
X128902930Y-73637835D02*
G01*
X128910358Y-73642834D01*
X128912077Y-73651622D01*
X128911608Y-73653290D01*
X128724796Y-74168524D01*
X128718755Y-74175134D01*
X128713797Y-74176236D01*
X128530203Y-74176236D01*
X128521930Y-74172809D01*
X128519204Y-74168524D01*
X128471544Y-74037078D01*
X128332391Y-73653288D01*
X128332792Y-73644344D01*
X128339402Y-73638303D01*
X128341056Y-73637837D01*
X128619682Y-73581469D01*
X128624318Y-73581469D01*
X128902930Y-73637835D01*
G37*
G04 #@! TD.AperFunction*
G04 #@! TA.AperFunction,Conductor*
G36*
X128722070Y-77309191D02*
G01*
X128724796Y-77313476D01*
X128911608Y-77828709D01*
X128911207Y-77837655D01*
X128904597Y-77843696D01*
X128902929Y-77844165D01*
X128624320Y-77900530D01*
X128619680Y-77900530D01*
X128341070Y-77844165D01*
X128333641Y-77839165D01*
X128331922Y-77830377D01*
X128332387Y-77828720D01*
X128519204Y-77313476D01*
X128525245Y-77306866D01*
X128530203Y-77305764D01*
X128713797Y-77305764D01*
X128722070Y-77309191D01*
G37*
G04 #@! TD.AperFunction*
G04 #@! TA.AperFunction,Conductor*
G36*
X142155282Y-90056389D02*
G01*
X142670525Y-90243204D01*
X142677134Y-90249244D01*
X142678236Y-90254202D01*
X142678236Y-90437797D01*
X142674809Y-90446070D01*
X142670524Y-90448796D01*
X142155290Y-90635608D01*
X142146344Y-90635207D01*
X142140303Y-90628597D01*
X142139837Y-90626939D01*
X142083469Y-90348318D01*
X142083469Y-90343680D01*
X142139835Y-90065067D01*
X142144834Y-90057641D01*
X142153622Y-90055922D01*
X142155282Y-90056389D01*
G37*
G04 #@! TD.AperFunction*
G04 #@! TA.AperFunction,Conductor*
G36*
X144878344Y-90190116D02*
G01*
X144879193Y-90191626D01*
X144951080Y-90345293D01*
X145070791Y-90601193D01*
X145111422Y-90688046D01*
X145111823Y-90696992D01*
X145109097Y-90701277D01*
X144979277Y-90831097D01*
X144971004Y-90834524D01*
X144966047Y-90833422D01*
X144815428Y-90762961D01*
X144469626Y-90601193D01*
X144463585Y-90594583D01*
X144463986Y-90585637D01*
X144464835Y-90584127D01*
X144621985Y-90347263D01*
X144625263Y-90343985D01*
X144862127Y-90186834D01*
X144870915Y-90185116D01*
X144878344Y-90190116D01*
G37*
G04 #@! TD.AperFunction*
G04 #@! TA.AperFunction,Conductor*
G36*
X151165655Y-109360792D02*
G01*
X151171696Y-109367402D01*
X151172165Y-109369070D01*
X151228530Y-109647680D01*
X151228530Y-109652320D01*
X151172165Y-109930929D01*
X151167165Y-109938358D01*
X151158377Y-109940077D01*
X151156709Y-109939608D01*
X150641476Y-109752796D01*
X150634866Y-109746755D01*
X150633764Y-109741797D01*
X150633764Y-109558202D01*
X150637191Y-109549929D01*
X150641473Y-109547204D01*
X151156711Y-109360391D01*
X151165655Y-109360792D01*
G37*
G04 #@! TD.AperFunction*
G04 #@! TA.AperFunction,Conductor*
G36*
X146757277Y-109672902D02*
G01*
X146887097Y-109802722D01*
X146890524Y-109810995D01*
X146889422Y-109815953D01*
X146657193Y-110312373D01*
X146650583Y-110318414D01*
X146641637Y-110318013D01*
X146640127Y-110317164D01*
X146403265Y-110160015D01*
X146399984Y-110156734D01*
X146242835Y-109919872D01*
X146241116Y-109911084D01*
X146246116Y-109903655D01*
X146247621Y-109902808D01*
X146744048Y-109670576D01*
X146752992Y-109670176D01*
X146757277Y-109672902D01*
G37*
G04 #@! TD.AperFunction*
G04 #@! TA.AperFunction,Conductor*
G36*
X143545655Y-96660792D02*
G01*
X143551696Y-96667402D01*
X143552165Y-96669070D01*
X143608530Y-96947680D01*
X143608530Y-96952320D01*
X143552165Y-97230929D01*
X143547165Y-97238358D01*
X143538377Y-97240077D01*
X143536709Y-97239608D01*
X143021476Y-97052796D01*
X143014866Y-97046755D01*
X143013764Y-97041797D01*
X143013764Y-96858202D01*
X143017191Y-96849929D01*
X143021473Y-96847204D01*
X143536711Y-96660391D01*
X143545655Y-96660792D01*
G37*
G04 #@! TD.AperFunction*
G04 #@! TA.AperFunction,Conductor*
G36*
X146148344Y-96794116D02*
G01*
X146149193Y-96795626D01*
X146221080Y-96949293D01*
X146340791Y-97205193D01*
X146381422Y-97292046D01*
X146381823Y-97300992D01*
X146379097Y-97305277D01*
X146249277Y-97435097D01*
X146241004Y-97438524D01*
X146236047Y-97437422D01*
X146085428Y-97366961D01*
X145739626Y-97205193D01*
X145733585Y-97198583D01*
X145733986Y-97189637D01*
X145734835Y-97188127D01*
X145891985Y-96951263D01*
X145895263Y-96947985D01*
X146132127Y-96790834D01*
X146140915Y-96789116D01*
X146148344Y-96794116D01*
G37*
G04 #@! TD.AperFunction*
G04 #@! TA.AperFunction,Conductor*
G36*
X153705615Y-59957835D02*
G01*
X153711689Y-59964415D01*
X153712178Y-59966137D01*
X153768530Y-60244680D01*
X153768530Y-60249320D01*
X153712151Y-60527995D01*
X153707151Y-60535424D01*
X153698363Y-60537143D01*
X153696751Y-60536694D01*
X153497708Y-60465640D01*
X153181530Y-60352772D01*
X153174891Y-60346763D01*
X153173764Y-60341753D01*
X153173764Y-60158159D01*
X153177191Y-60149886D01*
X153181420Y-60147181D01*
X153696669Y-59957478D01*
X153705615Y-59957835D01*
G37*
G04 #@! TD.AperFunction*
M02*
