G04 #@! TF.GenerationSoftware,KiCad,Pcbnew,9.0.5*
G04 #@! TF.CreationDate,2025-10-24T02:47:50+02:00*
G04 #@! TF.ProjectId,ESPHomeModule,45535048-6f6d-4654-9d6f-64756c652e6b,V1.0*
G04 #@! TF.SameCoordinates,Original*
G04 #@! TF.FileFunction,Soldermask,Bot*
G04 #@! TF.FilePolarity,Negative*
%FSLAX46Y46*%
G04 Gerber Fmt 4.6, Leading zero omitted, Abs format (unit mm)*
G04 Created by KiCad (PCBNEW 9.0.5) date 2025-10-24 02:47:50*
%MOMM*%
%LPD*%
G01*
G04 APERTURE LIST*
G04 Aperture macros list*
%AMRoundRect*
0 Rectangle with rounded corners*
0 $1 Rounding radius*
0 $2 $3 $4 $5 $6 $7 $8 $9 X,Y pos of 4 corners*
0 Add a 4 corners polygon primitive as box body*
4,1,4,$2,$3,$4,$5,$6,$7,$8,$9,$2,$3,0*
0 Add four circle primitives for the rounded corners*
1,1,$1+$1,$2,$3*
1,1,$1+$1,$4,$5*
1,1,$1+$1,$6,$7*
1,1,$1+$1,$8,$9*
0 Add four rect primitives between the rounded corners*
20,1,$1+$1,$2,$3,$4,$5,0*
20,1,$1+$1,$4,$5,$6,$7,0*
20,1,$1+$1,$6,$7,$8,$9,0*
20,1,$1+$1,$8,$9,$2,$3,0*%
G04 Aperture macros list end*
%ADD10C,1.600000*%
%ADD11C,1.850000*%
%ADD12R,2.000000X2.000000*%
%ADD13C,2.000000*%
%ADD14R,3.200000X2.000000*%
%ADD15RoundRect,0.102000X-0.754000X-0.754000X0.754000X-0.754000X0.754000X0.754000X-0.754000X0.754000X0*%
%ADD16C,1.712000*%
%ADD17C,3.204000*%
%ADD18C,2.500000*%
%ADD19C,4.000000*%
%ADD20C,1.750000*%
%ADD21RoundRect,0.102000X0.649995X0.450000X-0.649995X0.450000X-0.649995X-0.450000X0.649995X-0.450000X0*%
%ADD22RoundRect,0.102000X0.649999X0.449999X-0.649999X0.449999X-0.649999X-0.449999X0.649999X-0.449999X0*%
%ADD23RoundRect,0.102000X-0.649995X-0.450000X0.649995X-0.450000X0.649995X0.450000X-0.649995X0.450000X0*%
%ADD24RoundRect,0.102000X-0.649999X-0.449999X0.649999X-0.449999X0.649999X0.449999X-0.649999X0.449999X0*%
%ADD25RoundRect,0.250000X0.412500X0.650000X-0.412500X0.650000X-0.412500X-0.650000X0.412500X-0.650000X0*%
%ADD26RoundRect,0.250000X-0.412500X-0.650000X0.412500X-0.650000X0.412500X0.650000X-0.412500X0.650000X0*%
G04 APERTURE END LIST*
D10*
X118442000Y-57834000D03*
X115942000Y-57834000D03*
D11*
X124600000Y-82900000D03*
X124600000Y-80360000D03*
X124600000Y-77820000D03*
X124600000Y-75280000D03*
X124600000Y-72740000D03*
X124600000Y-70200000D03*
X124600000Y-67660000D03*
X124600000Y-65120000D03*
D12*
X171000000Y-74500000D03*
D13*
X171000000Y-79500000D03*
X171000000Y-77000000D03*
D14*
X178500000Y-71400000D03*
X178500000Y-82600000D03*
D13*
X185500000Y-79500000D03*
X185500000Y-74500000D03*
D15*
X145690000Y-66500000D03*
D16*
X148230000Y-66500000D03*
X150770000Y-66500000D03*
X153310000Y-66500000D03*
D17*
X138500000Y-67000000D03*
X160500000Y-67000000D03*
X160500000Y-89000000D03*
X138500000Y-89000000D03*
D18*
X143110000Y-105540000D03*
X136760000Y-108080000D03*
D19*
X139300000Y-103000000D03*
D20*
X144380000Y-103000000D03*
X134220000Y-103000000D03*
D18*
X163510000Y-105540000D03*
X157160000Y-108080000D03*
D19*
X159700000Y-103000000D03*
D20*
X164780000Y-103000000D03*
X154620000Y-103000000D03*
D11*
X168350000Y-57320000D03*
X168350000Y-59860000D03*
X168350000Y-62400000D03*
X168350000Y-64940000D03*
X168350000Y-67480000D03*
X183320000Y-91800000D03*
X180780000Y-91800000D03*
X178240000Y-91800000D03*
X175700000Y-91800000D03*
D21*
X146650005Y-60250000D03*
D22*
X146650001Y-61749999D03*
X152349999Y-61749999D03*
X152349999Y-60250001D03*
D23*
X142149995Y-98550000D03*
D24*
X142149999Y-97050001D03*
X136450001Y-97050001D03*
X136450001Y-98549999D03*
D25*
X140862500Y-93900000D03*
X137737500Y-93900000D03*
X161262500Y-94200000D03*
X158137500Y-94200000D03*
X182254500Y-94918000D03*
X179129500Y-94918000D03*
D23*
X162549995Y-98550000D03*
D24*
X162549999Y-97050001D03*
X156850001Y-97050001D03*
X156850001Y-98549999D03*
D25*
X148472500Y-69264000D03*
X145347500Y-69264000D03*
D26*
X147937500Y-57500000D03*
X151062500Y-57500000D03*
M02*
