M48
; DRILL file {KiCad 9.0.5} date 2025-10-24T02:47:55+0200
; FORMAT={-:-/ absolute / metric / decimal}
; #@! TF.CreationDate,2025-10-24T02:47:55+02:00
; #@! TF.GenerationSoftware,Kicad,Pcbnew,9.0.5
; #@! TF.FileFunction,Plated,1,2,PTH
FMAT,2
METRIC
; #@! TA.AperFunction,Plated,PTH,ViaDrill
T1C0.300
; #@! TA.AperFunction,Plated,PTH,ComponentDrill
T2C0.800
; #@! TA.AperFunction,Plated,PTH,ComponentDrill
T3C1.000
; #@! TA.AperFunction,Plated,PTH,ComponentDrill
T4C1.500
; #@! TA.AperFunction,Plated,PTH,ComponentDrill
T5C2.000
%
G90
G05
T1
X108.9Y-92.6
X108.9Y-93.3
X108.9Y-94.0
X109.7Y-92.6
X109.7Y-93.3
X109.7Y-94.0
X128.622Y-60.628
X128.622Y-64.946
X128.622Y-69.264
X128.622Y-73.582
X128.622Y-77.9
X131.162Y-59.104
X131.162Y-63.422
X131.162Y-68.248
X131.162Y-72.058
X131.162Y-76.376
X131.416Y-80.948
X131.416Y-83.488
X131.416Y-86.028
X132.94Y-78.916
X133.702Y-60.628
X133.702Y-64.946
X133.702Y-69.264
X133.702Y-73.582
X134.464Y-95.934
X137.766Y-77.138
X142.084Y-90.346
X142.592Y-95.426
X143.608Y-96.95
X144.25Y-56.818
X144.624Y-90.346
X145.894Y-95.426
X145.894Y-96.95
X146.402Y-110.158
X147.164Y-110.92
X147.799Y-94.156
X147.926Y-111.682
X148.688Y-112.444
X150.72Y-69.518
X150.72Y-72.566
X151.228Y-109.65
X151.228Y-110.666
X151.228Y-111.682
X151.228Y-112.698
X151.228Y-113.714
X151.482Y-94.156
X151.736Y-69.518
X151.736Y-72.566
X153.768Y-60.247
T2
X115.942Y-57.834
X118.442Y-57.834
T3
X124.6Y-65.12
X124.6Y-67.66
X124.6Y-70.2
X124.6Y-72.74
X124.6Y-75.28
X124.6Y-77.82
X124.6Y-80.36
X124.6Y-82.9
X145.69Y-66.5
X148.23Y-66.5
X150.77Y-66.5
X153.31Y-66.5
X168.35Y-57.32
X168.35Y-59.86
X168.35Y-62.4
X168.35Y-64.94
X168.35Y-67.48
X171.0Y-74.5
X171.0Y-77.0
X171.0Y-79.5
X175.7Y-91.8
X178.24Y-91.8
X180.78Y-91.8
X183.32Y-91.8
X185.5Y-74.5
X185.5Y-79.5
T4
X136.76Y-108.08
X143.11Y-105.54
X157.16Y-108.08
X163.51Y-105.54
T5
X138.5Y-67.0
X138.5Y-89.0
X160.5Y-67.0
X160.5Y-89.0
T4
X177.85Y-71.4G85X179.15Y-71.4
G05
X177.85Y-82.6G85X179.15Y-82.6
G05
M30
