G04 #@! TF.GenerationSoftware,KiCad,Pcbnew,9.0.5*
G04 #@! TF.CreationDate,2025-10-24T02:47:50+02:00*
G04 #@! TF.ProjectId,ESPHomeModule,45535048-6f6d-4654-9d6f-64756c652e6b,V1.0*
G04 #@! TF.SameCoordinates,Original*
G04 #@! TF.FileFunction,Profile,NP*
%FSLAX46Y46*%
G04 Gerber Fmt 4.6, Leading zero omitted, Abs format (unit mm)*
G04 Created by KiCad (PCBNEW 9.0.5) date 2025-10-24 02:47:50*
%MOMM*%
%LPD*%
G01*
G04 APERTURE LIST*
G04 #@! TA.AperFunction,Profile*
%ADD10C,0.050000*%
G04 #@! TD*
G04 #@! TA.AperFunction,Profile*
%ADD11C,0.100000*%
G04 #@! TD*
G04 #@! TA.AperFunction,Profile*
%ADD12C,0.010000*%
G04 #@! TD*
G04 APERTURE END LIST*
D10*
X110500000Y-58000000D02*
G75*
G02*
X107500000Y-58000000I-1500000J0D01*
G01*
X107500000Y-58000000D02*
G75*
G02*
X110500000Y-58000000I1500000J0D01*
G01*
X181250000Y-111750000D02*
X181250000Y-108250000D01*
X105000000Y-112000000D02*
X105000000Y-58000000D01*
X109000000Y-116000000D02*
G75*
G02*
X105000000Y-112000000I0J4000000D01*
G01*
X188500000Y-105250000D02*
X188500000Y-89750000D01*
X187500001Y-88750001D02*
X171500001Y-88750001D01*
X175750000Y-106250000D02*
G75*
G02*
X177750000Y-108250000I0J-2000000D01*
G01*
X187500000Y-107750000D02*
X183750000Y-107750000D01*
X175750000Y-106250000D02*
X171500000Y-106250000D01*
X187500000Y-106250000D02*
X183250000Y-106250000D01*
X170500001Y-89750001D02*
G75*
G02*
X171500000Y-88750001I999999J1D01*
G01*
X187500000Y-87250000D02*
X171500000Y-87250000D01*
X171500000Y-106250000D02*
G75*
G02*
X170500000Y-105250001I0J1000000D01*
G01*
X188500000Y-105250000D02*
G75*
G02*
X187500001Y-106250000I-1000000J0D01*
G01*
X187500000Y-87250000D02*
G75*
G02*
X190000000Y-89749999I0J-2500000D01*
G01*
X177750000Y-111750000D02*
X177750000Y-108250000D01*
X190000000Y-105250000D02*
X190000000Y-89750000D01*
X181250000Y-108250000D02*
G75*
G02*
X183250000Y-106250000I2000000J0D01*
G01*
X187500001Y-88750001D02*
G75*
G02*
X188499999Y-89750000I-1J-999999D01*
G01*
X194000000Y-58000000D02*
X194000000Y-112000000D01*
X182750000Y-108750000D02*
G75*
G02*
X183750000Y-107750000I1000000J0D01*
G01*
X191500000Y-58000000D02*
G75*
G02*
X188500000Y-58000000I-1500000J0D01*
G01*
X188500000Y-58000000D02*
G75*
G02*
X191500000Y-58000000I1500000J0D01*
G01*
X194000000Y-112000000D02*
G75*
G02*
X190000000Y-116000000I-4000000J0D01*
G01*
X176250000Y-111750000D02*
X176250000Y-108750000D01*
X109000000Y-54000000D02*
X190000000Y-54000000D01*
X175250000Y-107750000D02*
X171500000Y-107750000D01*
X105000000Y-58000000D02*
G75*
G02*
X109000000Y-54000000I4000000J0D01*
G01*
X182750000Y-111750000D02*
X182750000Y-108750000D01*
X177750000Y-111750000D02*
G75*
G02*
X176250000Y-111750000I-750000J0D01*
G01*
X170500000Y-105250000D02*
X170500000Y-89750000D01*
X110500000Y-112000000D02*
G75*
G02*
X107500000Y-112000000I-1500000J0D01*
G01*
X107500000Y-112000000D02*
G75*
G02*
X110500000Y-112000000I1500000J0D01*
G01*
X182750000Y-111750000D02*
G75*
G02*
X181250000Y-111750000I-750000J0D01*
G01*
X175250001Y-107750001D02*
G75*
G02*
X176249999Y-108750000I-1J-999999D01*
G01*
X191500000Y-112000000D02*
G75*
G02*
X188500000Y-112000000I-1500000J0D01*
G01*
X188500000Y-112000000D02*
G75*
G02*
X191500000Y-112000000I1500000J0D01*
G01*
X190000000Y-116000000D02*
X109000000Y-116000000D01*
X171500000Y-107750000D02*
G75*
G02*
X169000000Y-105250000I0J2500000D01*
G01*
X190000000Y-54000000D02*
G75*
G02*
X194000000Y-58000000I0J-4000000D01*
G01*
X190000000Y-105250000D02*
G75*
G02*
X187500001Y-107750000I-2500000J0D01*
G01*
X169000000Y-105250000D02*
X169000000Y-89750000D01*
X169000000Y-89750000D02*
G75*
G02*
X171500000Y-87250000I2500000J0D01*
G01*
D11*
X116400000Y-72400000D02*
X109000000Y-72400000D01*
X108000000Y-71400000D02*
X108000000Y-64400000D01*
X117400000Y-64400000D02*
X117400000Y-71400000D01*
X109000000Y-63400000D02*
X116400000Y-63400000D01*
X109000000Y-72400000D02*
G75*
G02*
X108000000Y-71400000I0J1000000D01*
G01*
X117400000Y-71400000D02*
G75*
G02*
X116400000Y-72400000I-1000000J0D01*
G01*
X108000000Y-64400000D02*
G75*
G02*
X109000000Y-63400000I1000000J0D01*
G01*
X116400000Y-63400000D02*
G75*
G02*
X117400000Y-64400000I0J-1000000D01*
G01*
D12*
X151400000Y-59300000D02*
X147600000Y-59300000D01*
X151400000Y-62700000D02*
X151400000Y-59300000D01*
X147600000Y-59300000D02*
X147600000Y-62700000D01*
X147600000Y-62700000D02*
X151400000Y-62700000D01*
X137400000Y-99500000D02*
X141200000Y-99500000D01*
X137400000Y-96100000D02*
X137400000Y-99500000D01*
X141200000Y-99500000D02*
X141200000Y-96100000D01*
X141200000Y-96100000D02*
X137400000Y-96100000D01*
X157800000Y-99500000D02*
X161600000Y-99500000D01*
X157800000Y-96100000D02*
X157800000Y-99500000D01*
X161600000Y-99500000D02*
X161600000Y-96100000D01*
X161600000Y-96100000D02*
X157800000Y-96100000D01*
M02*
