G04 #@! TF.GenerationSoftware,KiCad,Pcbnew,9.0.5*
G04 #@! TF.CreationDate,2025-10-24T02:47:50+02:00*
G04 #@! TF.ProjectId,ESPHomeModule,45535048-6f6d-4654-9d6f-64756c652e6b,V1.0*
G04 #@! TF.SameCoordinates,Original*
G04 #@! TF.FileFunction,Legend,Bot*
G04 #@! TF.FilePolarity,Positive*
%FSLAX46Y46*%
G04 Gerber Fmt 4.6, Leading zero omitted, Abs format (unit mm)*
G04 Created by KiCad (PCBNEW 9.0.5) date 2025-10-24 02:47:50*
%MOMM*%
%LPD*%
G01*
G04 APERTURE LIST*
G04 Aperture macros list*
%AMRoundRect*
0 Rectangle with rounded corners*
0 $1 Rounding radius*
0 $2 $3 $4 $5 $6 $7 $8 $9 X,Y pos of 4 corners*
0 Add a 4 corners polygon primitive as box body*
4,1,4,$2,$3,$4,$5,$6,$7,$8,$9,$2,$3,0*
0 Add four circle primitives for the rounded corners*
1,1,$1+$1,$2,$3*
1,1,$1+$1,$4,$5*
1,1,$1+$1,$6,$7*
1,1,$1+$1,$8,$9*
0 Add four rect primitives between the rounded corners*
20,1,$1+$1,$2,$3,$4,$5,0*
20,1,$1+$1,$4,$5,$6,$7,0*
20,1,$1+$1,$6,$7,$8,$9,0*
20,1,$1+$1,$8,$9,$2,$3,0*%
G04 Aperture macros list end*
%ADD10C,0.300000*%
%ADD11C,0.100000*%
%ADD12C,0.250000*%
%ADD13C,0.150000*%
%ADD14C,0.127000*%
%ADD15C,0.230278*%
%ADD16C,0.120000*%
%ADD17C,0.000000*%
%ADD18C,1.600000*%
%ADD19C,1.850000*%
%ADD20R,2.000000X2.000000*%
%ADD21C,2.000000*%
%ADD22R,3.200000X2.000000*%
%ADD23RoundRect,0.102000X-0.754000X-0.754000X0.754000X-0.754000X0.754000X0.754000X-0.754000X0.754000X0*%
%ADD24C,1.712000*%
%ADD25C,3.204000*%
%ADD26C,2.500000*%
%ADD27C,4.000000*%
%ADD28C,1.750000*%
%ADD29RoundRect,0.102000X0.649995X0.450000X-0.649995X0.450000X-0.649995X-0.450000X0.649995X-0.450000X0*%
%ADD30RoundRect,0.102000X0.649999X0.449999X-0.649999X0.449999X-0.649999X-0.449999X0.649999X-0.449999X0*%
%ADD31RoundRect,0.102000X-0.649995X-0.450000X0.649995X-0.450000X0.649995X0.450000X-0.649995X0.450000X0*%
%ADD32RoundRect,0.102000X-0.649999X-0.449999X0.649999X-0.449999X0.649999X0.449999X-0.649999X0.449999X0*%
%ADD33RoundRect,0.250000X0.412500X0.650000X-0.412500X0.650000X-0.412500X-0.650000X0.412500X-0.650000X0*%
%ADD34RoundRect,0.250000X-0.412500X-0.650000X0.412500X-0.650000X0.412500X0.650000X-0.412500X0.650000X0*%
G04 APERTURE END LIST*
D10*
X127300000Y-99895817D02*
G75*
G02*
X128299999Y-100895817I8J-999991D01*
G01*
X128300000Y-106900000D02*
G75*
G02*
X127300000Y-107900000I-999992J-8D01*
G01*
X107545817Y-100895817D02*
G75*
G02*
X108545817Y-99895817I999991J9D01*
G01*
X108545817Y-107900000D02*
G75*
G02*
X107545816Y-106900000I-9J999992D01*
G01*
X108545817Y-99895817D02*
X127300000Y-99895817D01*
X128300000Y-100895817D02*
X128300000Y-106900000D01*
X127300000Y-107900000D02*
X108545817Y-107900000D01*
X107545817Y-106900000D02*
X107545817Y-100895817D01*
D11*
X175676000Y-57136000D02*
X183676000Y-57136000D01*
X183676000Y-65136000D01*
X175676000Y-65136000D01*
X175676000Y-57136000D01*
G36*
X175676000Y-57136000D02*
G01*
X183676000Y-57136000D01*
X183676000Y-65136000D01*
X175676000Y-65136000D01*
X175676000Y-57136000D01*
G37*
D12*
G36*
X122623434Y-101070438D02*
G01*
X122682532Y-101077990D01*
X122737258Y-101090088D01*
X122789141Y-101106820D01*
X122836828Y-101127541D01*
X122881516Y-101152565D01*
X122922311Y-101181257D01*
X122959937Y-101213996D01*
X122993954Y-101250378D01*
X123024589Y-101290640D01*
X123075225Y-101382739D01*
X123110966Y-101491047D01*
X123130263Y-101616561D01*
X123133116Y-101692144D01*
X123133116Y-101732151D01*
X123130602Y-101806088D01*
X123123162Y-101875428D01*
X123111374Y-101938335D01*
X123095232Y-101996886D01*
X123075457Y-102049716D01*
X123051816Y-102098391D01*
X123024991Y-102142098D01*
X122994694Y-102181784D01*
X122961326Y-102217175D01*
X122924784Y-102248588D01*
X122842156Y-102299686D01*
X122746225Y-102335086D01*
X122636098Y-102353847D01*
X122572542Y-102356466D01*
X122510835Y-102353935D01*
X122451742Y-102346375D01*
X122397009Y-102334265D01*
X122345083Y-102317506D01*
X122297368Y-102296760D01*
X122252630Y-102271693D01*
X122211812Y-102242971D01*
X122174148Y-102210181D01*
X122140125Y-102173770D01*
X122109473Y-102133458D01*
X122058851Y-102041287D01*
X122023149Y-101932905D01*
X122003909Y-101807286D01*
X122001093Y-101732151D01*
X122001093Y-101693970D01*
X122239468Y-101693970D01*
X122239468Y-101755885D01*
X122242011Y-101821740D01*
X122249649Y-101883343D01*
X122261401Y-101936717D01*
X122277626Y-101985734D01*
X122296717Y-102027093D01*
X122319688Y-102064173D01*
X122344713Y-102094780D01*
X122373153Y-102121212D01*
X122403544Y-102142390D01*
X122437071Y-102159386D01*
X122473150Y-102171858D01*
X122512282Y-102179932D01*
X122565239Y-102183579D01*
X122613387Y-102181060D01*
X122657275Y-102173586D01*
X122695051Y-102162042D01*
X122729205Y-102146266D01*
X122759201Y-102126848D01*
X122785923Y-102103586D01*
X122830632Y-102044712D01*
X122864494Y-101966298D01*
X122886674Y-101863005D01*
X122894662Y-101730405D01*
X122894662Y-101666663D01*
X122892118Y-101600731D01*
X122884470Y-101539126D01*
X122872731Y-101485954D01*
X122856521Y-101437182D01*
X122837484Y-101396168D01*
X122814573Y-101359450D01*
X122789636Y-101329226D01*
X122761287Y-101303178D01*
X122730980Y-101282363D01*
X122697533Y-101265727D01*
X122661483Y-101253591D01*
X122622362Y-101245857D01*
X122572542Y-101242621D01*
X122523333Y-101245512D01*
X122478547Y-101253329D01*
X122440131Y-101265150D01*
X122405451Y-101281171D01*
X122375116Y-101300747D01*
X122348133Y-101324128D01*
X122303211Y-101382961D01*
X122269368Y-101460963D01*
X122247314Y-101563484D01*
X122239468Y-101693970D01*
X122001093Y-101693970D01*
X122001093Y-101692144D01*
X122003606Y-101618208D01*
X122011032Y-101548943D01*
X122022805Y-101486083D01*
X122038911Y-101427632D01*
X122058659Y-101374849D01*
X122082245Y-101326259D01*
X122109039Y-101282575D01*
X122139272Y-101242939D01*
X122172611Y-101207540D01*
X122209086Y-101176141D01*
X122291616Y-101124988D01*
X122387416Y-101089492D01*
X122497305Y-101070605D01*
X122561667Y-101067908D01*
X122623434Y-101070438D01*
G37*
G36*
X121793756Y-102301853D02*
G01*
X121699854Y-102328903D01*
X121554442Y-102350429D01*
X121427977Y-102356466D01*
X121362679Y-102353927D01*
X121301897Y-102346316D01*
X121249010Y-102334569D01*
X121200180Y-102318368D01*
X121157618Y-102298876D01*
X121118781Y-102275384D01*
X121084769Y-102248840D01*
X121054309Y-102218559D01*
X121004489Y-102147401D01*
X120968519Y-102059910D01*
X120947166Y-101952973D01*
X120942020Y-101857728D01*
X120942020Y-101852331D01*
X121160470Y-101852331D01*
X121160470Y-101888686D01*
X121162950Y-101946802D01*
X121170146Y-101997599D01*
X121181032Y-102039502D01*
X121195542Y-102075533D01*
X121212797Y-102105239D01*
X121232886Y-102130089D01*
X121281034Y-102166889D01*
X121341513Y-102188905D01*
X121415197Y-102196280D01*
X121513352Y-102187951D01*
X121584513Y-102168973D01*
X121584513Y-101599350D01*
X121528834Y-101576876D01*
X121453515Y-101558337D01*
X121397020Y-101553866D01*
X121347064Y-101556518D01*
X121303260Y-101564919D01*
X121272365Y-101576329D01*
X121245349Y-101592260D01*
X121224181Y-101610887D01*
X121206115Y-101633771D01*
X121179060Y-101693605D01*
X121163335Y-101781219D01*
X121160470Y-101852331D01*
X120942020Y-101852331D01*
X120942020Y-101835899D01*
X120944500Y-101768434D01*
X120951700Y-101707373D01*
X120962984Y-101653519D01*
X120978114Y-101605338D01*
X120996543Y-101563009D01*
X121018078Y-101525780D01*
X121042584Y-101493199D01*
X121069573Y-101465332D01*
X121131762Y-101421688D01*
X121204567Y-101393986D01*
X121287604Y-101382872D01*
X121298749Y-101382725D01*
X121353978Y-101385174D01*
X121403919Y-101392159D01*
X121492497Y-101418469D01*
X121575384Y-101462818D01*
X121584513Y-101462818D01*
X121584513Y-101005993D01*
X121793756Y-101005993D01*
X121793756Y-102301853D01*
G37*
G36*
X120488131Y-102350989D02*
G01*
X120426330Y-102348447D01*
X120369945Y-102340816D01*
X120323142Y-102329342D01*
X120281121Y-102313577D01*
X120246595Y-102295160D01*
X120216346Y-102273057D01*
X120191676Y-102248668D01*
X120171012Y-102220950D01*
X120142304Y-102156556D01*
X120129932Y-102077190D01*
X120129576Y-102059748D01*
X120132171Y-102009798D01*
X120140174Y-101965775D01*
X120151565Y-101932461D01*
X120167362Y-101902868D01*
X120209757Y-101856268D01*
X120272045Y-101818931D01*
X120365328Y-101787670D01*
X120384383Y-101783112D01*
X120473525Y-101763109D01*
X120529443Y-101746297D01*
X120568050Y-101725392D01*
X120582801Y-101710398D01*
X120592695Y-101692346D01*
X120599103Y-101652137D01*
X120596575Y-101627382D01*
X120589043Y-101605802D01*
X120561844Y-101574012D01*
X120515902Y-101552713D01*
X120443802Y-101543066D01*
X120431693Y-101542912D01*
X120326534Y-101551720D01*
X120224692Y-101577023D01*
X120180538Y-101593873D01*
X120180538Y-101435512D01*
X120237658Y-101413794D01*
X120307305Y-101396474D01*
X120366991Y-101388259D01*
X120436496Y-101384639D01*
X120449870Y-101384551D01*
X120508992Y-101387058D01*
X120562424Y-101394449D01*
X120607815Y-101405767D01*
X120648209Y-101421119D01*
X120682163Y-101439389D01*
X120711650Y-101461038D01*
X120736164Y-101485290D01*
X120756505Y-101512489D01*
X120784994Y-101575751D01*
X120797152Y-101652623D01*
X120797471Y-101668489D01*
X120794969Y-101713501D01*
X120787618Y-101753692D01*
X120776326Y-101787710D01*
X120761048Y-101817816D01*
X120719677Y-101866885D01*
X120661883Y-101904662D01*
X120582733Y-101932518D01*
X120559096Y-101937822D01*
X120471700Y-101957825D01*
X120421317Y-101971367D01*
X120383487Y-101988094D01*
X120362930Y-102003045D01*
X120348145Y-102020617D01*
X120334531Y-102060712D01*
X120333421Y-102079831D01*
X120336004Y-102104437D01*
X120343918Y-102126462D01*
X120355841Y-102143943D01*
X120372495Y-102158997D01*
X120421374Y-102181391D01*
X120498983Y-102192269D01*
X120519009Y-102192628D01*
X120582870Y-102190217D01*
X120637539Y-102183501D01*
X120732600Y-102158892D01*
X120797471Y-102134364D01*
X120797471Y-102287248D01*
X120712312Y-102321594D01*
X120601157Y-102344279D01*
X120488131Y-102350989D01*
G37*
G36*
X119932082Y-102336383D02*
G01*
X119720934Y-102336383D01*
X119720934Y-101399156D01*
X119932082Y-101399156D01*
X119932082Y-102336383D01*
G37*
G36*
X119932082Y-101244447D02*
G01*
X119719108Y-101244447D01*
X119719108Y-101053302D01*
X119932082Y-101053302D01*
X119932082Y-101244447D01*
G37*
G36*
X118873167Y-101435512D02*
G01*
X118924103Y-101412150D01*
X118994155Y-101392291D01*
X119042114Y-101385313D01*
X119097015Y-101382725D01*
X119151540Y-101385288D01*
X119203374Y-101393072D01*
X119249005Y-101405146D01*
X119291828Y-101421987D01*
X119329460Y-101442352D01*
X119364199Y-101467158D01*
X119394774Y-101495370D01*
X119422312Y-101527884D01*
X119446379Y-101564337D01*
X119467145Y-101605161D01*
X119498358Y-101701359D01*
X119514226Y-101819726D01*
X119515660Y-101872334D01*
X119515660Y-101895989D01*
X119513178Y-101960107D01*
X119505967Y-102018656D01*
X119494559Y-102071137D01*
X119479225Y-102118535D01*
X119460358Y-102160910D01*
X119438256Y-102198564D01*
X119384879Y-102261119D01*
X119320003Y-102307649D01*
X119244148Y-102338354D01*
X119158531Y-102352190D01*
X119135276Y-102352815D01*
X119082592Y-102350339D01*
X119034409Y-102343172D01*
X118990732Y-102331728D01*
X118951377Y-102316384D01*
X118915892Y-102297294D01*
X118884661Y-102275008D01*
X118869515Y-102261767D01*
X118862212Y-102261767D01*
X118844035Y-102336383D01*
X118665670Y-102336383D01*
X118665670Y-101593873D01*
X118873167Y-101593873D01*
X118873167Y-102127140D01*
X118911763Y-102151932D01*
X118963827Y-102174706D01*
X119004340Y-102185320D01*
X119049812Y-102190546D01*
X119062485Y-102190802D01*
X119107300Y-102188144D01*
X119148460Y-102179693D01*
X119179539Y-102167781D01*
X119207602Y-102150989D01*
X119230249Y-102131208D01*
X119250061Y-102106779D01*
X119280060Y-102044138D01*
X119297583Y-101956458D01*
X119300860Y-101886860D01*
X119300860Y-101852331D01*
X119298353Y-101789678D01*
X119290960Y-101735244D01*
X119280102Y-101692336D01*
X119265478Y-101655615D01*
X119248547Y-101626617D01*
X119228582Y-101602475D01*
X119181154Y-101568259D01*
X119120587Y-101549185D01*
X119064232Y-101544737D01*
X118972097Y-101553898D01*
X118930816Y-101564935D01*
X118896673Y-101579100D01*
X118873167Y-101593873D01*
X118665670Y-101593873D01*
X118665670Y-101005993D01*
X118873167Y-101005993D01*
X118873167Y-101435512D01*
G37*
G36*
X118415627Y-102336383D02*
G01*
X118204479Y-102336383D01*
X118204479Y-101399156D01*
X118415627Y-101399156D01*
X118415627Y-102336383D01*
G37*
G36*
X118415627Y-101244447D02*
G01*
X118202653Y-101244447D01*
X118202653Y-101053302D01*
X118415627Y-101053302D01*
X118415627Y-101244447D01*
G37*
G36*
X117696759Y-101387110D02*
G01*
X117770408Y-101394867D01*
X117833053Y-101406634D01*
X117891588Y-101422951D01*
X117926335Y-101435512D01*
X117926335Y-101579346D01*
X117848413Y-101564898D01*
X117752712Y-101555325D01*
X117698835Y-101553866D01*
X117626450Y-101556751D01*
X117570518Y-101566785D01*
X117543433Y-101577543D01*
X117521861Y-101592364D01*
X117507463Y-101608751D01*
X117496699Y-101628833D01*
X117485042Y-101683865D01*
X117484115Y-101710322D01*
X117484115Y-101781366D01*
X117704312Y-101806767D01*
X117766158Y-101818503D01*
X117821823Y-101834904D01*
X117864129Y-101852873D01*
X117901378Y-101874749D01*
X117930043Y-101897670D01*
X117954328Y-101924030D01*
X117972913Y-101951933D01*
X117987365Y-101983121D01*
X118003198Y-102054905D01*
X118004603Y-102087054D01*
X118002103Y-102130765D01*
X117994768Y-102170445D01*
X117983317Y-102204988D01*
X117967799Y-102235827D01*
X117925973Y-102286052D01*
X117869433Y-102322765D01*
X117796797Y-102345710D01*
X117717092Y-102352815D01*
X117666874Y-102350359D01*
X117622315Y-102343327D01*
X117583203Y-102332267D01*
X117549046Y-102317663D01*
X117492994Y-102278645D01*
X117474986Y-102259941D01*
X117464111Y-102259941D01*
X117447680Y-102336383D01*
X117274793Y-102336383D01*
X117274793Y-102148970D01*
X117484115Y-102148970D01*
X117529640Y-102178750D01*
X117600324Y-102200673D01*
X117653351Y-102205408D01*
X117688934Y-102202840D01*
X117720644Y-102195027D01*
X117744762Y-102183729D01*
X117764984Y-102168159D01*
X117779620Y-102150218D01*
X117790369Y-102128576D01*
X117798932Y-102076179D01*
X117796404Y-102041773D01*
X117788870Y-102012849D01*
X117778038Y-101991473D01*
X117763366Y-101973910D01*
X117723258Y-101949465D01*
X117657002Y-101935996D01*
X117484115Y-101917818D01*
X117484115Y-102148970D01*
X117274793Y-102148970D01*
X117274793Y-101663012D01*
X117277314Y-101617275D01*
X117284800Y-101575938D01*
X117296249Y-101541043D01*
X117311881Y-101509874D01*
X117330977Y-101483094D01*
X117353843Y-101459688D01*
X117411607Y-101422215D01*
X117488764Y-101396750D01*
X117590772Y-101384976D01*
X117616995Y-101384551D01*
X117696759Y-101387110D01*
G37*
G36*
X117031020Y-102336383D02*
G01*
X116821777Y-102336383D01*
X116821777Y-101608399D01*
X116776693Y-101589455D01*
X116725576Y-101573514D01*
X116672735Y-101562497D01*
X116619727Y-101557558D01*
X116610629Y-101557438D01*
X116559959Y-101560038D01*
X116520800Y-101568075D01*
X116497769Y-101578142D01*
X116480161Y-101591776D01*
X116460053Y-101626495D01*
X116452362Y-101681543D01*
X116452268Y-101690318D01*
X116452268Y-102336383D01*
X116241200Y-102336383D01*
X116241200Y-101641183D01*
X116243735Y-101591031D01*
X116251323Y-101546850D01*
X116262471Y-101511960D01*
X116277682Y-101481599D01*
X116295697Y-101457018D01*
X116317277Y-101436186D01*
X116371257Y-101405182D01*
X116444596Y-101386988D01*
X116514184Y-101382725D01*
X116610001Y-101392296D01*
X116709147Y-101421554D01*
X116801242Y-101468751D01*
X116821777Y-101482822D01*
X116829001Y-101482822D01*
X116829001Y-101399156D01*
X117031020Y-101399156D01*
X117031020Y-102336383D01*
G37*
G36*
X115976074Y-102336383D02*
G01*
X115752225Y-102336383D01*
X115752225Y-101779540D01*
X115220784Y-101779540D01*
X115220784Y-102336383D01*
X114996935Y-102336383D01*
X114996935Y-101087912D01*
X115220784Y-101087912D01*
X115220784Y-101603001D01*
X115752225Y-101603001D01*
X115752225Y-101087912D01*
X115976074Y-101087912D01*
X115976074Y-102336383D01*
G37*
G36*
X114449935Y-102352815D02*
G01*
X114355354Y-102343285D01*
X114268186Y-102315592D01*
X114183483Y-102269128D01*
X114162424Y-102254544D01*
X114153296Y-102254544D01*
X114135118Y-102336383D01*
X113953102Y-102336383D01*
X113953102Y-101399156D01*
X114162424Y-101399156D01*
X114162424Y-102127140D01*
X114258900Y-102165600D01*
X114312931Y-102178600D01*
X114371747Y-102183579D01*
X114416676Y-102180987D01*
X114452658Y-102173003D01*
X114475380Y-102162600D01*
X114493298Y-102148434D01*
X114515097Y-102111664D01*
X114524355Y-102054497D01*
X114524630Y-102039744D01*
X114524630Y-101399156D01*
X114733873Y-101399156D01*
X114733873Y-102079831D01*
X114731350Y-102127725D01*
X114723845Y-102170932D01*
X114712452Y-102207004D01*
X114696898Y-102239044D01*
X114678196Y-102265942D01*
X114655829Y-102289183D01*
X114600548Y-102324690D01*
X114528395Y-102346421D01*
X114449935Y-102352815D01*
G37*
G36*
X113708536Y-102301853D02*
G01*
X113614635Y-102328903D01*
X113469222Y-102350429D01*
X113342758Y-102356466D01*
X113277459Y-102353927D01*
X113216677Y-102346316D01*
X113163790Y-102334569D01*
X113114960Y-102318368D01*
X113072398Y-102298876D01*
X113033561Y-102275384D01*
X112999549Y-102248840D01*
X112969089Y-102218559D01*
X112919270Y-102147401D01*
X112883299Y-102059910D01*
X112861946Y-101952973D01*
X112856800Y-101857728D01*
X112856800Y-101852331D01*
X113075251Y-101852331D01*
X113075251Y-101888686D01*
X113077730Y-101946802D01*
X113084926Y-101997599D01*
X113095812Y-102039502D01*
X113110322Y-102075533D01*
X113127577Y-102105239D01*
X113147666Y-102130089D01*
X113195814Y-102166889D01*
X113256294Y-102188905D01*
X113329978Y-102196280D01*
X113428132Y-102187951D01*
X113499293Y-102168973D01*
X113499293Y-101599350D01*
X113443614Y-101576876D01*
X113368295Y-101558337D01*
X113311800Y-101553866D01*
X113261844Y-101556518D01*
X113218041Y-101564919D01*
X113187145Y-101576329D01*
X113160129Y-101592260D01*
X113138961Y-101610887D01*
X113120895Y-101633771D01*
X113093840Y-101693605D01*
X113078115Y-101781219D01*
X113075251Y-101852331D01*
X112856800Y-101852331D01*
X112856800Y-101835899D01*
X112859280Y-101768434D01*
X112866480Y-101707373D01*
X112877764Y-101653519D01*
X112892895Y-101605338D01*
X112911323Y-101563009D01*
X112932859Y-101525780D01*
X112957364Y-101493199D01*
X112984353Y-101465332D01*
X113046542Y-101421688D01*
X113119347Y-101393986D01*
X113202384Y-101382872D01*
X113213529Y-101382725D01*
X113268759Y-101385174D01*
X113318699Y-101392159D01*
X113407277Y-101418469D01*
X113490164Y-101462818D01*
X113499293Y-101462818D01*
X113499293Y-101005993D01*
X113708536Y-101005993D01*
X113708536Y-102301853D01*
G37*
G36*
X120077187Y-104520383D02*
G01*
X119864213Y-104520383D01*
X119525662Y-103583156D01*
X119727681Y-103583156D01*
X119957007Y-104267482D01*
X119966136Y-104267482D01*
X120193636Y-103583156D01*
X120417484Y-103583156D01*
X120077187Y-104520383D01*
G37*
G36*
X119209496Y-104527686D02*
G01*
X118983821Y-104527686D01*
X118983821Y-103270086D01*
X119102096Y-103270086D01*
X119418739Y-103412015D01*
X119418739Y-103543070D01*
X119209496Y-103501237D01*
X119209496Y-104527686D01*
G37*
G36*
X118687579Y-104549515D02*
G01*
X118465556Y-104549515D01*
X118465556Y-104336621D01*
X118687579Y-104336621D01*
X118687579Y-104549515D01*
G37*
G36*
X117821228Y-103261799D02*
G01*
X117875369Y-103269758D01*
X117923990Y-103282195D01*
X117970690Y-103299733D01*
X118012311Y-103320964D01*
X118051620Y-103347052D01*
X118086617Y-103376573D01*
X118118980Y-103410830D01*
X118147675Y-103448838D01*
X118173390Y-103491630D01*
X118195715Y-103538945D01*
X118214637Y-103591260D01*
X118230015Y-103649151D01*
X118241461Y-103712413D01*
X118251612Y-103858320D01*
X118251630Y-103865190D01*
X118251630Y-103943457D01*
X118249128Y-104021062D01*
X118241773Y-104092778D01*
X118230201Y-104156894D01*
X118214475Y-104215668D01*
X118195334Y-104267946D01*
X118172633Y-104315338D01*
X118147000Y-104357306D01*
X118118290Y-104394727D01*
X118086741Y-104427641D01*
X118052491Y-104456207D01*
X117975307Y-104501249D01*
X117886105Y-104530167D01*
X117784061Y-104542077D01*
X117767578Y-104542292D01*
X117712407Y-104539713D01*
X117658813Y-104531818D01*
X117610571Y-104519447D01*
X117564380Y-104502050D01*
X117523068Y-104480911D01*
X117484137Y-104454990D01*
X117449352Y-104425549D01*
X117417239Y-104391440D01*
X117388677Y-104353476D01*
X117363117Y-104310794D01*
X117340873Y-104263482D01*
X117322047Y-104211234D01*
X117295342Y-104090096D01*
X117285286Y-103944216D01*
X117285271Y-103938060D01*
X117285271Y-103859792D01*
X117516423Y-103859792D01*
X117516423Y-103952586D01*
X117518963Y-104037306D01*
X117526584Y-104111551D01*
X117537555Y-104168751D01*
X117552498Y-104218288D01*
X117569305Y-104256447D01*
X117589317Y-104288802D01*
X117610734Y-104313771D01*
X117634908Y-104334046D01*
X117690175Y-104360680D01*
X117758999Y-104371044D01*
X117767578Y-104371151D01*
X117805705Y-104368605D01*
X117840640Y-104360941D01*
X117870312Y-104349172D01*
X117897243Y-104332905D01*
X117942201Y-104287748D01*
X117977810Y-104222218D01*
X118003751Y-104129952D01*
X118017522Y-104002129D01*
X118018732Y-103943457D01*
X118018732Y-103847012D01*
X118016191Y-103764215D01*
X118008558Y-103691308D01*
X117997531Y-103634751D01*
X117982490Y-103585565D01*
X117965535Y-103547483D01*
X117945323Y-103515076D01*
X117923676Y-103489986D01*
X117899223Y-103469549D01*
X117843398Y-103442657D01*
X117774206Y-103432203D01*
X117765752Y-103432098D01*
X117727756Y-103434656D01*
X117692821Y-103442403D01*
X117663336Y-103454240D01*
X117636491Y-103470667D01*
X117591791Y-103516240D01*
X117556413Y-103582556D01*
X117530746Y-103676224D01*
X117517413Y-103806351D01*
X117516423Y-103859792D01*
X117285271Y-103859792D01*
X117287768Y-103781665D01*
X117295082Y-103709708D01*
X117306603Y-103645333D01*
X117322211Y-103586518D01*
X117341246Y-103534116D01*
X117363746Y-103486771D01*
X117389218Y-103444732D01*
X117417641Y-103407376D01*
X117482841Y-103345872D01*
X117559221Y-103300747D01*
X117647261Y-103271667D01*
X117747445Y-103259485D01*
X117765752Y-103259211D01*
X117821228Y-103261799D01*
G37*
G36*
X117056819Y-104549515D02*
G01*
X116834796Y-104549515D01*
X116834796Y-104336621D01*
X117056819Y-104336621D01*
X117056819Y-104549515D01*
G37*
G36*
X116190467Y-103261799D02*
G01*
X116244608Y-103269758D01*
X116293229Y-103282195D01*
X116339930Y-103299733D01*
X116381550Y-103320964D01*
X116420860Y-103347052D01*
X116455856Y-103376573D01*
X116488220Y-103410830D01*
X116516914Y-103448838D01*
X116542629Y-103491630D01*
X116564955Y-103538945D01*
X116583876Y-103591260D01*
X116599254Y-103649151D01*
X116610701Y-103712413D01*
X116620851Y-103858320D01*
X116620870Y-103865190D01*
X116620870Y-103943457D01*
X116618367Y-104021062D01*
X116611012Y-104092778D01*
X116599440Y-104156894D01*
X116583714Y-104215668D01*
X116564573Y-104267946D01*
X116541872Y-104315338D01*
X116516239Y-104357306D01*
X116487529Y-104394727D01*
X116455980Y-104427641D01*
X116421730Y-104456207D01*
X116344546Y-104501249D01*
X116255345Y-104530167D01*
X116153300Y-104542077D01*
X116136817Y-104542292D01*
X116081647Y-104539713D01*
X116028053Y-104531818D01*
X115979811Y-104519447D01*
X115933620Y-104502050D01*
X115892308Y-104480911D01*
X115853377Y-104454990D01*
X115818592Y-104425549D01*
X115786479Y-104391440D01*
X115757916Y-104353476D01*
X115732356Y-104310794D01*
X115710112Y-104263482D01*
X115691286Y-104211234D01*
X115664581Y-104090096D01*
X115654525Y-103944216D01*
X115654511Y-103938060D01*
X115654511Y-103859792D01*
X115885662Y-103859792D01*
X115885662Y-103952586D01*
X115888202Y-104037306D01*
X115895824Y-104111551D01*
X115906794Y-104168751D01*
X115921738Y-104218288D01*
X115938544Y-104256447D01*
X115958556Y-104288802D01*
X115979974Y-104313771D01*
X116004147Y-104334046D01*
X116059415Y-104360680D01*
X116128239Y-104371044D01*
X116136817Y-104371151D01*
X116174944Y-104368605D01*
X116209879Y-104360941D01*
X116239551Y-104349172D01*
X116266482Y-104332905D01*
X116311440Y-104287748D01*
X116347049Y-104222218D01*
X116372990Y-104129952D01*
X116386761Y-104002129D01*
X116387972Y-103943457D01*
X116387972Y-103847012D01*
X116385430Y-103764215D01*
X116377797Y-103691308D01*
X116366770Y-103634751D01*
X116351730Y-103585565D01*
X116334774Y-103547483D01*
X116314563Y-103515076D01*
X116292915Y-103489986D01*
X116268462Y-103469549D01*
X116212638Y-103442657D01*
X116143445Y-103432203D01*
X116134991Y-103432098D01*
X116096995Y-103434656D01*
X116062060Y-103442403D01*
X116032576Y-103454240D01*
X116005731Y-103470667D01*
X115961030Y-103516240D01*
X115925652Y-103582556D01*
X115899985Y-103676224D01*
X115886652Y-103806351D01*
X115885662Y-103859792D01*
X115654511Y-103859792D01*
X115657007Y-103781665D01*
X115664321Y-103709708D01*
X115675842Y-103645333D01*
X115691451Y-103586518D01*
X115710485Y-103534116D01*
X115732985Y-103486771D01*
X115758457Y-103444732D01*
X115786881Y-103407376D01*
X115852081Y-103345872D01*
X115928460Y-103300747D01*
X116016500Y-103271667D01*
X116116684Y-103259485D01*
X116134991Y-103259211D01*
X116190467Y-103261799D01*
G37*
G36*
X126648635Y-105704183D02*
G01*
X126697698Y-105712179D01*
X126739650Y-105724334D01*
X126778810Y-105741410D01*
X126811751Y-105761520D01*
X126841607Y-105786119D01*
X126866520Y-105813478D01*
X126888096Y-105845110D01*
X126905595Y-105880111D01*
X126919381Y-105919433D01*
X126934740Y-106011845D01*
X126935923Y-106049190D01*
X126935923Y-106069273D01*
X126933417Y-106123158D01*
X126926037Y-106172412D01*
X126914550Y-106215384D01*
X126898939Y-106254133D01*
X126879975Y-106287789D01*
X126857450Y-106317497D01*
X126802736Y-106364933D01*
X126734345Y-106397546D01*
X126650807Y-106414719D01*
X126604675Y-106416873D01*
X126516080Y-106408093D01*
X126438927Y-106383953D01*
X126411784Y-106371389D01*
X126411784Y-106238508D01*
X126477271Y-106264416D01*
X126519258Y-106273280D01*
X126570145Y-106276690D01*
X126609644Y-106274147D01*
X126643739Y-106266509D01*
X126669614Y-106255465D01*
X126691546Y-106240393D01*
X126723080Y-106200233D01*
X126742320Y-106141904D01*
X126748430Y-106067447D01*
X126748430Y-106032838D01*
X126745932Y-105989360D01*
X126738611Y-105951881D01*
X126727787Y-105922418D01*
X126713270Y-105897731D01*
X126696089Y-105878411D01*
X126675883Y-105863178D01*
X126625827Y-105844132D01*
X126581020Y-105839947D01*
X126532504Y-105842394D01*
X126489735Y-105849364D01*
X126417261Y-105872651D01*
X126417261Y-105736199D01*
X126452045Y-105722000D01*
X126497275Y-105710375D01*
X126543302Y-105703957D01*
X126597372Y-105701589D01*
X126648635Y-105704183D01*
G37*
G36*
X126740632Y-105429355D02*
G01*
X126850142Y-105458426D01*
X126951456Y-105505793D01*
X127042437Y-105570320D01*
X127120683Y-105650414D01*
X127154275Y-105695662D01*
X127183772Y-105743932D01*
X127208912Y-105794844D01*
X127229561Y-105848259D01*
X127245396Y-105903433D01*
X127256412Y-105960575D01*
X127263520Y-106058318D01*
X127253608Y-106174102D01*
X127224297Y-106284633D01*
X127176452Y-106387414D01*
X127111393Y-106479675D01*
X127072998Y-106520959D01*
X127030989Y-106558642D01*
X126985853Y-106592280D01*
X126937555Y-106621858D01*
X126886919Y-106646855D01*
X126833591Y-106667403D01*
X126778641Y-106683055D01*
X126721460Y-106693927D01*
X126624678Y-106700811D01*
X126509457Y-106690932D01*
X126399997Y-106661785D01*
X126298220Y-106614186D01*
X126206470Y-106549266D01*
X126127358Y-106468689D01*
X126093368Y-106423228D01*
X126063476Y-106374736D01*
X126038011Y-106323704D01*
X126017048Y-106270172D01*
X126000964Y-106215027D01*
X125989709Y-106157925D01*
X125982264Y-106058318D01*
X126093236Y-106058318D01*
X126095745Y-106116573D01*
X126103143Y-106172552D01*
X126115268Y-106226161D01*
X126131920Y-106277092D01*
X126152921Y-106325181D01*
X126178071Y-106370194D01*
X126207149Y-106411899D01*
X126239985Y-106450142D01*
X126276292Y-106484644D01*
X126315957Y-106515310D01*
X126358628Y-106541855D01*
X126404255Y-106564207D01*
X126452444Y-106582106D01*
X126503193Y-106595465D01*
X126556104Y-106604069D01*
X126611188Y-106607792D01*
X126624678Y-106607938D01*
X126680338Y-106605429D01*
X126733737Y-106598026D01*
X126784740Y-106585906D01*
X126833149Y-106569260D01*
X126878914Y-106548214D01*
X126921742Y-106522994D01*
X126998227Y-106460477D01*
X127061158Y-106382934D01*
X127108935Y-106291658D01*
X127126632Y-106241259D01*
X127139873Y-106188095D01*
X127148506Y-106132170D01*
X127152297Y-106073864D01*
X127152469Y-106058318D01*
X127149958Y-105999075D01*
X127142546Y-105942321D01*
X127130463Y-105888426D01*
X127113866Y-105837369D01*
X127093034Y-105789534D01*
X127068078Y-105744872D01*
X127039313Y-105703744D01*
X127006808Y-105666117D01*
X126970886Y-105632295D01*
X126931593Y-105602297D01*
X126889218Y-105576363D01*
X126843829Y-105554579D01*
X126795640Y-105537135D01*
X126744779Y-105524183D01*
X126691366Y-105515889D01*
X126635613Y-105512443D01*
X126624678Y-105512350D01*
X126568624Y-105514861D01*
X126514739Y-105522277D01*
X126463212Y-105534422D01*
X126414230Y-105551120D01*
X126367970Y-105572203D01*
X126324632Y-105597491D01*
X126284385Y-105626824D01*
X126247440Y-105660017D01*
X126213963Y-105696920D01*
X126184171Y-105737335D01*
X126158233Y-105781124D01*
X126136365Y-105828077D01*
X126118745Y-105878058D01*
X126105581Y-105930855D01*
X126097059Y-105986324D01*
X126093378Y-106044259D01*
X126093236Y-106058318D01*
X125982264Y-106058318D01*
X125992166Y-105944250D01*
X126021483Y-105835076D01*
X126069441Y-105733184D01*
X126134814Y-105641328D01*
X126173491Y-105600060D01*
X126215781Y-105562373D01*
X126261302Y-105528630D01*
X126309969Y-105498947D01*
X126361014Y-105473813D01*
X126414708Y-105453146D01*
X126469970Y-105437393D01*
X126527388Y-105426440D01*
X126624678Y-105419477D01*
X126740632Y-105429355D01*
G37*
G36*
X125817236Y-106704383D02*
G01*
X125023764Y-106704383D01*
X125023764Y-106529670D01*
X125524248Y-106529670D01*
X125376841Y-106378612D01*
X125258874Y-106252640D01*
X125201381Y-106184496D01*
X125148409Y-106113169D01*
X125102603Y-106038850D01*
X125066609Y-105961731D01*
X125043072Y-105882004D01*
X125034639Y-105799860D01*
X125037175Y-105748977D01*
X125044772Y-105701627D01*
X125056558Y-105660287D01*
X125072812Y-105622269D01*
X125092604Y-105588975D01*
X125116482Y-105558899D01*
X125175475Y-105509317D01*
X125251353Y-105472704D01*
X125347008Y-105449925D01*
X125447806Y-105443211D01*
X125561281Y-105452521D01*
X125673870Y-105480206D01*
X125778228Y-105524247D01*
X125802709Y-105537831D01*
X125766274Y-105703415D01*
X125715566Y-105675850D01*
X125658213Y-105651081D01*
X125604344Y-105633708D01*
X125549951Y-105622686D01*
X125507896Y-105619750D01*
X125453933Y-105622351D01*
X125406701Y-105630397D01*
X125372440Y-105641562D01*
X125342954Y-105656997D01*
X125320701Y-105674548D01*
X125302299Y-105695820D01*
X125277680Y-105748251D01*
X125267715Y-105820020D01*
X125267616Y-105828993D01*
X125277379Y-105902443D01*
X125308188Y-105982625D01*
X125365324Y-106075903D01*
X125459958Y-106193443D01*
X125578861Y-106322253D01*
X125817236Y-106573408D01*
X125817236Y-106704383D01*
G37*
G36*
X124419204Y-105445799D02*
G01*
X124473345Y-105453758D01*
X124521966Y-105466195D01*
X124568667Y-105483733D01*
X124610287Y-105504964D01*
X124649597Y-105531052D01*
X124684593Y-105560573D01*
X124716956Y-105594830D01*
X124745651Y-105632838D01*
X124771366Y-105675630D01*
X124793691Y-105722945D01*
X124812613Y-105775260D01*
X124827991Y-105833151D01*
X124839438Y-105896413D01*
X124849588Y-106042320D01*
X124849607Y-106049190D01*
X124849607Y-106127457D01*
X124847104Y-106205062D01*
X124839749Y-106276778D01*
X124828177Y-106340894D01*
X124812451Y-106399668D01*
X124793310Y-106451946D01*
X124770609Y-106499338D01*
X124744976Y-106541306D01*
X124716266Y-106578727D01*
X124684717Y-106611641D01*
X124650467Y-106640207D01*
X124573283Y-106685249D01*
X124484082Y-106714167D01*
X124382037Y-106726077D01*
X124365554Y-106726292D01*
X124310384Y-106723713D01*
X124256790Y-106715818D01*
X124208548Y-106703447D01*
X124162357Y-106686050D01*
X124121045Y-106664911D01*
X124082114Y-106638990D01*
X124047329Y-106609549D01*
X124015216Y-106575440D01*
X123986653Y-106537476D01*
X123961093Y-106494794D01*
X123938849Y-106447482D01*
X123920023Y-106395234D01*
X123893318Y-106274096D01*
X123883262Y-106128216D01*
X123883248Y-106122060D01*
X123883248Y-106043792D01*
X124114399Y-106043792D01*
X124114399Y-106136586D01*
X124116939Y-106221306D01*
X124124561Y-106295551D01*
X124135531Y-106352751D01*
X124150475Y-106402288D01*
X124167281Y-106440447D01*
X124187293Y-106472802D01*
X124208711Y-106497771D01*
X124232884Y-106518046D01*
X124288151Y-106544680D01*
X124356976Y-106555044D01*
X124365554Y-106555151D01*
X124403681Y-106552605D01*
X124438616Y-106544941D01*
X124468288Y-106533172D01*
X124495219Y-106516905D01*
X124540177Y-106471748D01*
X124575786Y-106406218D01*
X124601727Y-106313952D01*
X124615498Y-106186129D01*
X124616709Y-106127457D01*
X124616709Y-106031012D01*
X124614167Y-105948215D01*
X124606534Y-105875308D01*
X124595507Y-105818751D01*
X124580466Y-105769565D01*
X124563511Y-105731483D01*
X124543299Y-105699076D01*
X124521652Y-105673986D01*
X124497199Y-105653549D01*
X124441375Y-105626657D01*
X124372182Y-105616203D01*
X124363728Y-105616098D01*
X124325732Y-105618656D01*
X124290797Y-105626403D01*
X124261313Y-105638240D01*
X124234468Y-105654667D01*
X124189767Y-105700240D01*
X124154389Y-105766556D01*
X124128722Y-105860224D01*
X124115389Y-105990351D01*
X124114399Y-106043792D01*
X123883248Y-106043792D01*
X123885744Y-105965665D01*
X123893058Y-105893708D01*
X123904579Y-105829333D01*
X123920188Y-105770518D01*
X123939222Y-105718116D01*
X123961722Y-105670771D01*
X123987194Y-105628732D01*
X124015618Y-105591376D01*
X124080818Y-105529872D01*
X124157197Y-105484747D01*
X124245237Y-105455667D01*
X124345421Y-105443485D01*
X124363728Y-105443211D01*
X124419204Y-105445799D01*
G37*
G36*
X123705121Y-106704383D02*
G01*
X122911649Y-106704383D01*
X122911649Y-106529670D01*
X123412134Y-106529670D01*
X123264727Y-106378612D01*
X123146760Y-106252640D01*
X123089267Y-106184496D01*
X123036294Y-106113169D01*
X122990488Y-106038850D01*
X122954494Y-105961731D01*
X122930958Y-105882004D01*
X122922524Y-105799860D01*
X122925061Y-105748977D01*
X122932657Y-105701627D01*
X122944444Y-105660287D01*
X122960698Y-105622269D01*
X122980490Y-105588975D01*
X123004368Y-105558899D01*
X123063360Y-105509317D01*
X123139239Y-105472704D01*
X123234894Y-105449925D01*
X123335692Y-105443211D01*
X123449167Y-105452521D01*
X123561755Y-105480206D01*
X123666113Y-105524247D01*
X123690595Y-105537831D01*
X123654160Y-105703415D01*
X123603452Y-105675850D01*
X123546098Y-105651081D01*
X123492230Y-105633708D01*
X123437837Y-105622686D01*
X123395782Y-105619750D01*
X123341818Y-105622351D01*
X123294587Y-105630397D01*
X123260326Y-105641562D01*
X123230839Y-105656997D01*
X123208586Y-105674548D01*
X123190185Y-105695820D01*
X123165566Y-105748251D01*
X123155600Y-105820020D01*
X123155502Y-105828993D01*
X123165264Y-105902443D01*
X123196073Y-105982625D01*
X123253210Y-106075903D01*
X123347843Y-106193443D01*
X123466746Y-106322253D01*
X123705121Y-106573408D01*
X123705121Y-106704383D01*
G37*
G36*
X122415611Y-106722640D02*
G01*
X122358854Y-106720142D01*
X122305437Y-106712813D01*
X122255724Y-106700979D01*
X122209522Y-106684860D01*
X122167049Y-106664761D01*
X122128273Y-106640889D01*
X122093261Y-106613453D01*
X122062161Y-106582724D01*
X122011881Y-106511942D01*
X121978458Y-106430024D01*
X121963233Y-106338583D01*
X121962436Y-106311299D01*
X121964952Y-106254976D01*
X121972402Y-106203112D01*
X121984000Y-106157690D01*
X121999844Y-106116302D01*
X122019125Y-106080031D01*
X122042156Y-106047512D01*
X122098422Y-105994082D01*
X122169412Y-105954616D01*
X122257148Y-105929335D01*
X122366475Y-105920040D01*
X122456479Y-105928324D01*
X122523010Y-105941869D01*
X122499355Y-105637927D01*
X122018875Y-105637927D01*
X122018875Y-105463214D01*
X122670417Y-105463214D01*
X122715901Y-106149366D01*
X122614628Y-106110024D01*
X122550239Y-106092948D01*
X122487810Y-106083104D01*
X122462920Y-106081973D01*
X122407460Y-106084553D01*
X122357865Y-106092452D01*
X122319827Y-106103775D01*
X122286501Y-106119422D01*
X122260724Y-106137272D01*
X122238965Y-106158842D01*
X122222101Y-106182899D01*
X122209053Y-106210514D01*
X122194685Y-106277804D01*
X122193588Y-106305822D01*
X122196101Y-106344788D01*
X122203530Y-106380442D01*
X122215143Y-106411507D01*
X122230996Y-106439387D01*
X122274182Y-106484837D01*
X122333632Y-106517696D01*
X122411408Y-106536861D01*
X122472049Y-106540625D01*
X122561244Y-106531358D01*
X122655186Y-106503042D01*
X122730427Y-106466008D01*
X122770514Y-106637070D01*
X122686369Y-106676852D01*
X122570741Y-106708225D01*
X122505737Y-106717795D01*
X122437771Y-106722346D01*
X122415611Y-106722640D01*
G37*
G36*
X121268426Y-106704383D02*
G01*
X121071884Y-106704383D01*
X121071884Y-105734373D01*
X121066407Y-105734373D01*
X120755242Y-106704383D01*
X120571400Y-106704383D01*
X120258330Y-105734373D01*
X120251106Y-105734373D01*
X120251106Y-106704383D01*
X120027257Y-106704383D01*
X120027257Y-105455912D01*
X120340249Y-105455912D01*
X120644190Y-106396869D01*
X120649668Y-106396869D01*
X120953610Y-105455912D01*
X121268426Y-105455912D01*
X121268426Y-106704383D01*
G37*
G36*
X119502789Y-105755110D02*
G01*
X119576438Y-105762867D01*
X119639083Y-105774634D01*
X119697618Y-105790951D01*
X119732365Y-105803512D01*
X119732365Y-105947346D01*
X119654442Y-105932898D01*
X119558742Y-105923325D01*
X119504865Y-105921866D01*
X119432480Y-105924751D01*
X119376548Y-105934785D01*
X119349462Y-105945543D01*
X119327891Y-105960364D01*
X119313493Y-105976751D01*
X119302729Y-105996833D01*
X119291072Y-106051865D01*
X119290145Y-106078322D01*
X119290145Y-106149366D01*
X119510342Y-106174767D01*
X119572188Y-106186503D01*
X119627852Y-106202904D01*
X119670159Y-106220873D01*
X119707408Y-106242749D01*
X119736073Y-106265670D01*
X119760358Y-106292030D01*
X119778943Y-106319933D01*
X119793395Y-106351121D01*
X119809228Y-106422905D01*
X119810632Y-106455054D01*
X119808133Y-106498765D01*
X119800798Y-106538445D01*
X119789346Y-106572988D01*
X119773829Y-106603827D01*
X119732003Y-106654052D01*
X119675463Y-106690765D01*
X119602827Y-106713710D01*
X119523122Y-106720815D01*
X119472904Y-106718359D01*
X119428345Y-106711327D01*
X119389233Y-106700267D01*
X119355076Y-106685663D01*
X119299024Y-106646645D01*
X119281016Y-106627941D01*
X119270141Y-106627941D01*
X119253710Y-106704383D01*
X119080823Y-106704383D01*
X119080823Y-106516970D01*
X119290145Y-106516970D01*
X119335670Y-106546750D01*
X119406354Y-106568673D01*
X119459381Y-106573408D01*
X119494964Y-106570840D01*
X119526674Y-106563027D01*
X119550791Y-106551729D01*
X119571014Y-106536159D01*
X119585650Y-106518218D01*
X119596398Y-106496576D01*
X119604962Y-106444179D01*
X119602434Y-106409773D01*
X119594900Y-106380849D01*
X119584068Y-106359473D01*
X119569396Y-106341910D01*
X119529288Y-106317465D01*
X119463032Y-106303996D01*
X119290145Y-106285818D01*
X119290145Y-106516970D01*
X119080823Y-106516970D01*
X119080823Y-106031012D01*
X119083344Y-105985275D01*
X119090830Y-105943938D01*
X119102279Y-105909043D01*
X119117911Y-105877874D01*
X119137007Y-105851094D01*
X119159873Y-105827688D01*
X119217637Y-105790215D01*
X119294794Y-105764750D01*
X119396802Y-105752976D01*
X119423025Y-105752551D01*
X119502789Y-105755110D01*
G37*
G36*
X118837050Y-106704383D02*
G01*
X118627807Y-106704383D01*
X118627807Y-106007357D01*
X118552938Y-105971525D01*
X118459660Y-105949407D01*
X118400307Y-105945521D01*
X118323865Y-105950919D01*
X118323865Y-105765331D01*
X118382050Y-105759853D01*
X118458331Y-105769454D01*
X118533630Y-105798375D01*
X118568067Y-105819489D01*
X118598511Y-105844093D01*
X118627807Y-105876302D01*
X118635030Y-105876302D01*
X118635030Y-105767156D01*
X118837050Y-105767156D01*
X118837050Y-106704383D01*
G37*
G36*
X117756306Y-106720815D02*
G01*
X117698687Y-106718393D01*
X117646883Y-106711604D01*
X117555098Y-106686136D01*
X117479670Y-106648024D01*
X117479670Y-106495140D01*
X117480314Y-106495437D01*
X117521686Y-106513705D01*
X117575078Y-106532579D01*
X117640998Y-106547354D01*
X117719950Y-106553325D01*
X117769064Y-106550756D01*
X117813203Y-106542929D01*
X117848117Y-106531476D01*
X117879133Y-106515644D01*
X117904467Y-106496896D01*
X117926431Y-106474161D01*
X117959953Y-106417070D01*
X117980913Y-106339414D01*
X117987457Y-106247637D01*
X117987457Y-106205725D01*
X117984947Y-106155400D01*
X117977536Y-106109815D01*
X117966160Y-106071053D01*
X117950702Y-106036622D01*
X117932205Y-106007737D01*
X117910236Y-105982895D01*
X117857408Y-105945960D01*
X117791460Y-105924834D01*
X117734477Y-105920040D01*
X117672212Y-105922501D01*
X117619836Y-105929570D01*
X117529393Y-105955397D01*
X117488799Y-105971001D01*
X117488799Y-105807163D01*
X117534486Y-105785546D01*
X117587891Y-105768185D01*
X117638342Y-105758099D01*
X117697028Y-105752132D01*
X117747177Y-105750725D01*
X117804174Y-105753273D01*
X117858724Y-105760945D01*
X117908099Y-105773058D01*
X117954673Y-105789898D01*
X117996191Y-105810382D01*
X118034663Y-105835227D01*
X118068564Y-105863272D01*
X118099202Y-105895413D01*
X118125771Y-105930795D01*
X118148814Y-105970144D01*
X118168022Y-106013213D01*
X118183344Y-106060256D01*
X118201617Y-106167391D01*
X118204003Y-106227554D01*
X118204003Y-106256686D01*
X118201486Y-106319696D01*
X118194025Y-106378111D01*
X118182362Y-106429784D01*
X118166405Y-106477236D01*
X118147016Y-106519084D01*
X118123838Y-106556991D01*
X118097507Y-106590365D01*
X118067734Y-106619942D01*
X117998097Y-106667793D01*
X117913733Y-106700986D01*
X117812733Y-106718548D01*
X117756306Y-106720815D01*
G37*
G36*
X116499896Y-106726292D02*
G01*
X116433944Y-106723777D01*
X116373409Y-106716335D01*
X116320802Y-106704817D01*
X116273032Y-106689107D01*
X116231766Y-106670241D01*
X116194882Y-106647763D01*
X116163157Y-106622519D01*
X116135531Y-106594067D01*
X116092576Y-106528184D01*
X116065156Y-106448858D01*
X116054143Y-106353944D01*
X116054025Y-106342257D01*
X116056541Y-106288840D01*
X116063991Y-106241025D01*
X116075322Y-106200934D01*
X116090738Y-106165053D01*
X116132324Y-106105651D01*
X116190660Y-106056906D01*
X116272082Y-106014865D01*
X116368842Y-105981876D01*
X116485370Y-105945521D01*
X116540188Y-105927391D01*
X116581864Y-105906691D01*
X116604749Y-105889223D01*
X116621965Y-105869141D01*
X116640661Y-105823600D01*
X116645477Y-105770808D01*
X116642955Y-105740019D01*
X116635462Y-105712474D01*
X116623956Y-105689556D01*
X116608227Y-105669633D01*
X116564528Y-105639034D01*
X116501154Y-105620434D01*
X116441632Y-105616098D01*
X116312364Y-105625246D01*
X116197508Y-105651015D01*
X116123164Y-105677934D01*
X116123164Y-105503221D01*
X116178359Y-105477863D01*
X116245573Y-105456698D01*
X116302673Y-105445532D01*
X116369772Y-105438342D01*
X116445283Y-105435908D01*
X116507668Y-105438414D01*
X116564933Y-105445792D01*
X116615221Y-105457299D01*
X116660814Y-105472942D01*
X116700488Y-105491844D01*
X116735805Y-105514281D01*
X116766245Y-105539572D01*
X116792525Y-105567947D01*
X116832752Y-105633466D01*
X116856886Y-105711511D01*
X116863928Y-105790811D01*
X116861415Y-105844331D01*
X116853982Y-105892644D01*
X116842575Y-105933799D01*
X116827052Y-105970818D01*
X116807995Y-106003294D01*
X116785248Y-106032281D01*
X116727543Y-106081847D01*
X116649651Y-106122331D01*
X116579990Y-106145714D01*
X116461715Y-106178419D01*
X116395184Y-106201823D01*
X116345517Y-106227309D01*
X116321531Y-106246096D01*
X116303439Y-106267466D01*
X116284278Y-106314380D01*
X116279699Y-106364086D01*
X116282272Y-106399455D01*
X116290125Y-106431505D01*
X116301805Y-106457229D01*
X116318024Y-106479985D01*
X116337874Y-106498806D01*
X116362115Y-106514665D01*
X116425837Y-106537335D01*
X116518074Y-106546102D01*
X116644069Y-106536669D01*
X116767317Y-106508731D01*
X116872977Y-106469660D01*
X116872977Y-106646199D01*
X116824498Y-106668981D01*
X116768909Y-106688993D01*
X116708748Y-106704900D01*
X116641918Y-106716861D01*
X116573827Y-106723843D01*
X116499896Y-106726292D01*
G37*
G36*
X115457492Y-106720815D02*
G01*
X115399873Y-106718393D01*
X115348069Y-106711604D01*
X115256284Y-106686136D01*
X115180857Y-106648024D01*
X115180857Y-106495140D01*
X115181500Y-106495437D01*
X115222872Y-106513705D01*
X115276265Y-106532579D01*
X115342184Y-106547354D01*
X115421137Y-106553325D01*
X115470251Y-106550756D01*
X115514390Y-106542929D01*
X115549304Y-106531476D01*
X115580320Y-106515644D01*
X115605653Y-106496896D01*
X115627618Y-106474161D01*
X115661139Y-106417070D01*
X115682099Y-106339414D01*
X115688644Y-106247637D01*
X115688644Y-106205725D01*
X115686133Y-106155400D01*
X115678722Y-106109815D01*
X115667347Y-106071053D01*
X115651888Y-106036622D01*
X115633392Y-106007737D01*
X115611423Y-105982895D01*
X115558595Y-105945960D01*
X115492647Y-105924834D01*
X115435663Y-105920040D01*
X115373399Y-105922501D01*
X115321022Y-105929570D01*
X115230580Y-105955397D01*
X115189985Y-105971001D01*
X115189985Y-105807163D01*
X115235673Y-105785546D01*
X115289077Y-105768185D01*
X115339528Y-105758099D01*
X115398215Y-105752132D01*
X115448364Y-105750725D01*
X115505360Y-105753273D01*
X115559910Y-105760945D01*
X115609285Y-105773058D01*
X115655859Y-105789898D01*
X115697377Y-105810382D01*
X115735849Y-105835227D01*
X115769751Y-105863272D01*
X115800389Y-105895413D01*
X115826958Y-105930795D01*
X115850000Y-105970144D01*
X115869208Y-106013213D01*
X115884531Y-106060256D01*
X115902804Y-106167391D01*
X115905189Y-106227554D01*
X115905189Y-106256686D01*
X115902672Y-106319696D01*
X115895211Y-106378111D01*
X115883548Y-106429784D01*
X115867591Y-106477236D01*
X115848202Y-106519084D01*
X115825024Y-106556991D01*
X115798694Y-106590365D01*
X115768920Y-106619942D01*
X115699283Y-106667793D01*
X115614919Y-106700986D01*
X115513920Y-106718548D01*
X115457492Y-106720815D01*
G37*
G36*
X114998920Y-106704383D02*
G01*
X114789677Y-106704383D01*
X114789677Y-105976399D01*
X114744593Y-105957455D01*
X114693476Y-105941514D01*
X114640635Y-105930497D01*
X114587627Y-105925558D01*
X114578529Y-105925438D01*
X114527859Y-105928038D01*
X114488700Y-105936075D01*
X114465669Y-105946142D01*
X114448061Y-105959776D01*
X114427953Y-105994495D01*
X114420263Y-106049543D01*
X114420168Y-106058318D01*
X114420168Y-106704383D01*
X114209100Y-106704383D01*
X114209100Y-106009183D01*
X114211635Y-105959031D01*
X114219223Y-105914850D01*
X114230371Y-105879960D01*
X114245582Y-105849599D01*
X114263597Y-105825018D01*
X114285177Y-105804186D01*
X114339157Y-105773182D01*
X114412496Y-105754988D01*
X114482084Y-105750725D01*
X114578821Y-105760301D01*
X114675635Y-105789151D01*
X114721736Y-105810511D01*
X114763695Y-105835363D01*
X114780549Y-105847170D01*
X114789677Y-105847170D01*
X114789677Y-105373993D01*
X114998920Y-105373993D01*
X114998920Y-106704383D01*
G37*
G36*
X113644832Y-105760549D02*
G01*
X113694398Y-105768033D01*
X113740293Y-105780061D01*
X113783399Y-105796629D01*
X113822888Y-105817235D01*
X113859350Y-105842018D01*
X113892324Y-105870590D01*
X113922005Y-105903060D01*
X113970859Y-105979324D01*
X114004846Y-106070916D01*
X114022240Y-106178143D01*
X114024067Y-106229380D01*
X114024067Y-106260338D01*
X114021543Y-106322252D01*
X114014029Y-106380200D01*
X114002242Y-106431856D01*
X113986045Y-106479648D01*
X113966393Y-106521842D01*
X113942811Y-106560267D01*
X113916194Y-106593906D01*
X113885998Y-106623801D01*
X113816021Y-106671538D01*
X113732144Y-106703775D01*
X113632895Y-106719549D01*
X113592722Y-106720815D01*
X113541059Y-106718292D01*
X113491867Y-106710797D01*
X113446316Y-106698752D01*
X113403501Y-106682149D01*
X113364290Y-106661503D01*
X113328067Y-106636651D01*
X113295326Y-106608004D01*
X113265850Y-106575422D01*
X113217380Y-106498852D01*
X113183747Y-106406775D01*
X113166701Y-106298805D01*
X113165029Y-106249463D01*
X113165029Y-106223982D01*
X113165176Y-106220331D01*
X113350696Y-106220331D01*
X113350696Y-106269466D01*
X113353211Y-106326306D01*
X113360655Y-106377584D01*
X113371950Y-106420478D01*
X113387306Y-106458400D01*
X113405343Y-106489490D01*
X113426759Y-106516098D01*
X113450455Y-106537427D01*
X113477092Y-106554535D01*
X113538698Y-106575912D01*
X113590897Y-106580632D01*
X113634603Y-106577966D01*
X113675768Y-106569466D01*
X113707894Y-106557282D01*
X113737416Y-106540012D01*
X113761525Y-106519681D01*
X113782935Y-106494515D01*
X113800814Y-106465268D01*
X113815665Y-106430896D01*
X113835499Y-106343936D01*
X113840226Y-106262163D01*
X113840226Y-106213028D01*
X113837706Y-106156186D01*
X113830226Y-106104902D01*
X113818917Y-106062223D01*
X113803515Y-106024458D01*
X113785444Y-105993559D01*
X113763941Y-105967062D01*
X113740099Y-105945772D01*
X113713228Y-105928628D01*
X113650686Y-105906919D01*
X113594548Y-105901783D01*
X113551980Y-105904449D01*
X113511816Y-105912949D01*
X113480363Y-105925166D01*
X113451432Y-105942491D01*
X113427726Y-105962957D01*
X113406673Y-105988311D01*
X113389053Y-106017883D01*
X113374444Y-106052669D01*
X113355055Y-106140947D01*
X113350696Y-106220331D01*
X113165176Y-106220331D01*
X113167552Y-106161291D01*
X113175056Y-106102627D01*
X113186835Y-106050274D01*
X113203012Y-106001850D01*
X113222637Y-105959090D01*
X113246169Y-105920163D01*
X113272695Y-105886117D01*
X113302761Y-105855871D01*
X113335844Y-105829830D01*
X113372239Y-105807668D01*
X113455189Y-105775193D01*
X113552939Y-105759316D01*
X113592722Y-105758028D01*
X113644832Y-105760549D01*
G37*
G36*
X113530886Y-105659757D02*
G01*
X113347045Y-105659757D01*
X113347045Y-105485044D01*
X113530886Y-105485044D01*
X113530886Y-105659757D01*
G37*
G36*
X113854832Y-105659757D02*
G01*
X113672816Y-105659757D01*
X113672816Y-105485044D01*
X113854832Y-105485044D01*
X113854832Y-105659757D01*
G37*
G36*
X112978250Y-106704383D02*
G01*
X112769007Y-106704383D01*
X112769007Y-105976399D01*
X112723923Y-105957455D01*
X112672806Y-105941514D01*
X112619965Y-105930497D01*
X112566957Y-105925558D01*
X112557859Y-105925438D01*
X112507189Y-105928038D01*
X112468030Y-105936075D01*
X112444999Y-105946142D01*
X112427391Y-105959776D01*
X112407283Y-105994495D01*
X112399593Y-106049543D01*
X112399498Y-106058318D01*
X112399498Y-106704383D01*
X112188430Y-106704383D01*
X112188430Y-106009183D01*
X112190965Y-105959031D01*
X112198553Y-105914850D01*
X112209701Y-105879960D01*
X112224912Y-105849599D01*
X112242927Y-105825018D01*
X112264507Y-105804186D01*
X112318487Y-105773182D01*
X112391826Y-105754988D01*
X112461414Y-105750725D01*
X112557231Y-105760296D01*
X112656377Y-105789554D01*
X112748472Y-105836751D01*
X112769007Y-105850822D01*
X112776231Y-105850822D01*
X112776231Y-105767156D01*
X112978250Y-105767156D01*
X112978250Y-106704383D01*
G37*
G36*
X111351855Y-105803512D02*
G01*
X111402792Y-105780150D01*
X111472844Y-105760291D01*
X111520803Y-105753313D01*
X111575704Y-105750725D01*
X111630228Y-105753288D01*
X111682063Y-105761072D01*
X111727693Y-105773146D01*
X111770517Y-105789987D01*
X111808149Y-105810352D01*
X111842887Y-105835158D01*
X111873463Y-105863370D01*
X111901000Y-105895884D01*
X111925068Y-105932337D01*
X111945834Y-105973161D01*
X111977046Y-106069359D01*
X111992915Y-106187726D01*
X111994348Y-106240334D01*
X111994348Y-106263989D01*
X111991867Y-106328107D01*
X111984656Y-106386656D01*
X111973247Y-106439137D01*
X111957913Y-106486535D01*
X111939046Y-106528910D01*
X111916944Y-106566564D01*
X111863568Y-106629119D01*
X111798692Y-106675649D01*
X111722837Y-106706354D01*
X111637219Y-106720190D01*
X111613965Y-106720815D01*
X111561280Y-106718339D01*
X111513097Y-106711172D01*
X111469421Y-106699728D01*
X111430066Y-106684384D01*
X111394581Y-106665294D01*
X111363350Y-106643008D01*
X111348204Y-106629767D01*
X111340901Y-106629767D01*
X111322723Y-106704383D01*
X111144359Y-106704383D01*
X111144359Y-105961873D01*
X111351855Y-105961873D01*
X111351855Y-106495140D01*
X111390452Y-106519932D01*
X111442515Y-106542706D01*
X111483028Y-106553320D01*
X111528501Y-106558546D01*
X111541174Y-106558802D01*
X111585989Y-106556144D01*
X111627149Y-106547693D01*
X111658227Y-106535781D01*
X111686291Y-106518989D01*
X111708937Y-106499208D01*
X111728749Y-106474779D01*
X111758749Y-106412138D01*
X111776272Y-106324458D01*
X111779549Y-106254860D01*
X111779549Y-106220331D01*
X111777041Y-106157678D01*
X111769649Y-106103244D01*
X111758790Y-106060336D01*
X111744166Y-106023615D01*
X111727235Y-105994617D01*
X111707270Y-105970475D01*
X111659842Y-105936259D01*
X111599276Y-105917185D01*
X111542920Y-105912737D01*
X111450785Y-105921898D01*
X111409505Y-105932935D01*
X111375362Y-105947100D01*
X111351855Y-105961873D01*
X111144359Y-105961873D01*
X111144359Y-105373993D01*
X111351855Y-105373993D01*
X111351855Y-105803512D01*
G37*
G36*
X110558699Y-105753248D02*
G01*
X110610008Y-105760753D01*
X110657401Y-105772786D01*
X110701948Y-105789376D01*
X110742600Y-105809932D01*
X110780172Y-105834675D01*
X110814004Y-105863063D01*
X110844507Y-105895348D01*
X110871384Y-105931256D01*
X110894634Y-105970859D01*
X110929726Y-106061322D01*
X110948265Y-106167204D01*
X110950674Y-106225728D01*
X110950674Y-106254860D01*
X110948146Y-106317215D01*
X110940610Y-106375589D01*
X110928814Y-106427472D01*
X110912586Y-106475509D01*
X110892920Y-106517859D01*
X110869292Y-106556480D01*
X110842620Y-106590309D01*
X110812319Y-106620447D01*
X110741935Y-106668829D01*
X110657213Y-106701986D01*
X110556430Y-106718978D01*
X110506629Y-106720815D01*
X110452813Y-106718290D01*
X110401562Y-106710774D01*
X110354286Y-106698734D01*
X110309838Y-106682124D01*
X110269336Y-106661565D01*
X110231898Y-106636801D01*
X110198231Y-106608409D01*
X110167877Y-106576096D01*
X110141155Y-106540161D01*
X110118046Y-106500497D01*
X110083211Y-106409804D01*
X110064890Y-106303434D01*
X110062583Y-106245811D01*
X110062583Y-106220331D01*
X110062656Y-106218505D01*
X110280954Y-106218505D01*
X110280954Y-106263989D01*
X110283469Y-106322340D01*
X110290915Y-106374202D01*
X110302033Y-106416359D01*
X110317107Y-106453082D01*
X110334623Y-106482470D01*
X110355380Y-106507209D01*
X110378331Y-106526663D01*
X110404110Y-106541877D01*
X110464457Y-106559808D01*
X110502977Y-106562454D01*
X110546446Y-106559750D01*
X110587012Y-106550986D01*
X110617241Y-106538803D01*
X110644815Y-106521503D01*
X110667046Y-106501168D01*
X110686615Y-106475909D01*
X110702916Y-106446141D01*
X110716216Y-106410973D01*
X110733189Y-106319935D01*
X110735954Y-106254860D01*
X110735954Y-106211202D01*
X110733438Y-106153352D01*
X110725987Y-106101673D01*
X110714808Y-106059301D01*
X110699633Y-106022206D01*
X110681947Y-105992309D01*
X110660968Y-105967002D01*
X110637777Y-105946992D01*
X110611711Y-105931214D01*
X110550938Y-105912273D01*
X110508454Y-105909086D01*
X110466161Y-105911792D01*
X110426627Y-105920575D01*
X110397126Y-105932798D01*
X110370187Y-105950171D01*
X110348383Y-105970676D01*
X110329186Y-105996177D01*
X110300069Y-106062122D01*
X110283486Y-106155069D01*
X110280954Y-106218505D01*
X110062656Y-106218505D01*
X110065106Y-106157598D01*
X110072612Y-106098960D01*
X110084381Y-106046718D01*
X110100545Y-105998412D01*
X110120168Y-105955720D01*
X110143703Y-105916832D01*
X110170301Y-105882699D01*
X110200461Y-105852318D01*
X110270456Y-105803487D01*
X110354467Y-105769977D01*
X110454010Y-105752691D01*
X110504803Y-105750725D01*
X110558699Y-105753248D01*
G37*
G36*
X109870406Y-106704383D02*
G01*
X109661164Y-106704383D01*
X109661164Y-106007357D01*
X109586294Y-105971525D01*
X109493017Y-105949407D01*
X109433664Y-105945521D01*
X109357222Y-105950919D01*
X109357222Y-105765331D01*
X109415406Y-105759853D01*
X109491687Y-105769454D01*
X109566986Y-105798375D01*
X109601424Y-105819489D01*
X109631867Y-105844093D01*
X109661164Y-105876302D01*
X109668387Y-105876302D01*
X109668387Y-105767156D01*
X109870406Y-105767156D01*
X109870406Y-106704383D01*
G37*
G36*
X109108607Y-106704383D02*
G01*
X108902936Y-106704383D01*
X108902936Y-105930915D01*
X108697265Y-105930915D01*
X108697265Y-105767156D01*
X108902936Y-105767156D01*
X108902936Y-105672457D01*
X108900417Y-105634012D01*
X108892945Y-105601427D01*
X108882176Y-105577071D01*
X108867642Y-105557046D01*
X108829558Y-105530156D01*
X108775241Y-105517096D01*
X108750052Y-105516001D01*
X108658385Y-105523282D01*
X108629952Y-105528702D01*
X108629952Y-105388598D01*
X108667693Y-105375808D01*
X108718660Y-105365435D01*
X108806491Y-105359466D01*
X108856586Y-105362028D01*
X108903362Y-105369802D01*
X108942962Y-105381617D01*
X108979107Y-105398021D01*
X109009218Y-105417390D01*
X109035840Y-105440862D01*
X109057724Y-105467111D01*
X109075995Y-105497225D01*
X109090283Y-105530844D01*
X109100618Y-105568371D01*
X109108607Y-105650628D01*
X109108607Y-105767156D01*
X109243234Y-105767156D01*
X109243234Y-105930915D01*
X109108607Y-105930915D01*
X109108607Y-106704383D01*
G37*
D11*
X150619047Y-64457419D02*
X151095237Y-64457419D01*
X151095237Y-64457419D02*
X151095237Y-63457419D01*
X150285713Y-63933609D02*
X149952380Y-63933609D01*
X149809523Y-64457419D02*
X150285713Y-64457419D01*
X150285713Y-64457419D02*
X150285713Y-63457419D01*
X150285713Y-63457419D02*
X149809523Y-63457419D01*
X149380951Y-64457419D02*
X149380951Y-63457419D01*
X149380951Y-63457419D02*
X149142856Y-63457419D01*
X149142856Y-63457419D02*
X148999999Y-63505038D01*
X148999999Y-63505038D02*
X148904761Y-63600276D01*
X148904761Y-63600276D02*
X148857142Y-63695514D01*
X148857142Y-63695514D02*
X148809523Y-63885990D01*
X148809523Y-63885990D02*
X148809523Y-64028847D01*
X148809523Y-64028847D02*
X148857142Y-64219323D01*
X148857142Y-64219323D02*
X148904761Y-64314561D01*
X148904761Y-64314561D02*
X148999999Y-64409800D01*
X148999999Y-64409800D02*
X149142856Y-64457419D01*
X149142856Y-64457419D02*
X149380951Y-64457419D01*
X147857142Y-64457419D02*
X148428570Y-64457419D01*
X148142856Y-64457419D02*
X148142856Y-63457419D01*
X148142856Y-63457419D02*
X148238094Y-63600276D01*
X148238094Y-63600276D02*
X148333332Y-63695514D01*
X148333332Y-63695514D02*
X148428570Y-63743133D01*
X140419047Y-100757419D02*
X140895237Y-100757419D01*
X140895237Y-100757419D02*
X140895237Y-99757419D01*
X140085713Y-100233609D02*
X139752380Y-100233609D01*
X139609523Y-100757419D02*
X140085713Y-100757419D01*
X140085713Y-100757419D02*
X140085713Y-99757419D01*
X140085713Y-99757419D02*
X139609523Y-99757419D01*
X139180951Y-100757419D02*
X139180951Y-99757419D01*
X139180951Y-99757419D02*
X138942856Y-99757419D01*
X138942856Y-99757419D02*
X138799999Y-99805038D01*
X138799999Y-99805038D02*
X138704761Y-99900276D01*
X138704761Y-99900276D02*
X138657142Y-99995514D01*
X138657142Y-99995514D02*
X138609523Y-100185990D01*
X138609523Y-100185990D02*
X138609523Y-100328847D01*
X138609523Y-100328847D02*
X138657142Y-100519323D01*
X138657142Y-100519323D02*
X138704761Y-100614561D01*
X138704761Y-100614561D02*
X138799999Y-100709800D01*
X138799999Y-100709800D02*
X138942856Y-100757419D01*
X138942856Y-100757419D02*
X139180951Y-100757419D01*
X138228570Y-99852657D02*
X138180951Y-99805038D01*
X138180951Y-99805038D02*
X138085713Y-99757419D01*
X138085713Y-99757419D02*
X137847618Y-99757419D01*
X137847618Y-99757419D02*
X137752380Y-99805038D01*
X137752380Y-99805038D02*
X137704761Y-99852657D01*
X137704761Y-99852657D02*
X137657142Y-99947895D01*
X137657142Y-99947895D02*
X137657142Y-100043133D01*
X137657142Y-100043133D02*
X137704761Y-100185990D01*
X137704761Y-100185990D02*
X138276189Y-100757419D01*
X138276189Y-100757419D02*
X137657142Y-100757419D01*
D13*
X139466666Y-92409580D02*
X139514285Y-92457200D01*
X139514285Y-92457200D02*
X139657142Y-92504819D01*
X139657142Y-92504819D02*
X139752380Y-92504819D01*
X139752380Y-92504819D02*
X139895237Y-92457200D01*
X139895237Y-92457200D02*
X139990475Y-92361961D01*
X139990475Y-92361961D02*
X140038094Y-92266723D01*
X140038094Y-92266723D02*
X140085713Y-92076247D01*
X140085713Y-92076247D02*
X140085713Y-91933390D01*
X140085713Y-91933390D02*
X140038094Y-91742914D01*
X140038094Y-91742914D02*
X139990475Y-91647676D01*
X139990475Y-91647676D02*
X139895237Y-91552438D01*
X139895237Y-91552438D02*
X139752380Y-91504819D01*
X139752380Y-91504819D02*
X139657142Y-91504819D01*
X139657142Y-91504819D02*
X139514285Y-91552438D01*
X139514285Y-91552438D02*
X139466666Y-91600057D01*
X139085713Y-91600057D02*
X139038094Y-91552438D01*
X139038094Y-91552438D02*
X138942856Y-91504819D01*
X138942856Y-91504819D02*
X138704761Y-91504819D01*
X138704761Y-91504819D02*
X138609523Y-91552438D01*
X138609523Y-91552438D02*
X138561904Y-91600057D01*
X138561904Y-91600057D02*
X138514285Y-91695295D01*
X138514285Y-91695295D02*
X138514285Y-91790533D01*
X138514285Y-91790533D02*
X138561904Y-91933390D01*
X138561904Y-91933390D02*
X139133332Y-92504819D01*
X139133332Y-92504819D02*
X138514285Y-92504819D01*
X159866666Y-92709580D02*
X159914285Y-92757200D01*
X159914285Y-92757200D02*
X160057142Y-92804819D01*
X160057142Y-92804819D02*
X160152380Y-92804819D01*
X160152380Y-92804819D02*
X160295237Y-92757200D01*
X160295237Y-92757200D02*
X160390475Y-92661961D01*
X160390475Y-92661961D02*
X160438094Y-92566723D01*
X160438094Y-92566723D02*
X160485713Y-92376247D01*
X160485713Y-92376247D02*
X160485713Y-92233390D01*
X160485713Y-92233390D02*
X160438094Y-92042914D01*
X160438094Y-92042914D02*
X160390475Y-91947676D01*
X160390475Y-91947676D02*
X160295237Y-91852438D01*
X160295237Y-91852438D02*
X160152380Y-91804819D01*
X160152380Y-91804819D02*
X160057142Y-91804819D01*
X160057142Y-91804819D02*
X159914285Y-91852438D01*
X159914285Y-91852438D02*
X159866666Y-91900057D01*
X159533332Y-91804819D02*
X158914285Y-91804819D01*
X158914285Y-91804819D02*
X159247618Y-92185771D01*
X159247618Y-92185771D02*
X159104761Y-92185771D01*
X159104761Y-92185771D02*
X159009523Y-92233390D01*
X159009523Y-92233390D02*
X158961904Y-92281009D01*
X158961904Y-92281009D02*
X158914285Y-92376247D01*
X158914285Y-92376247D02*
X158914285Y-92614342D01*
X158914285Y-92614342D02*
X158961904Y-92709580D01*
X158961904Y-92709580D02*
X159009523Y-92757200D01*
X159009523Y-92757200D02*
X159104761Y-92804819D01*
X159104761Y-92804819D02*
X159390475Y-92804819D01*
X159390475Y-92804819D02*
X159485713Y-92757200D01*
X159485713Y-92757200D02*
X159533332Y-92709580D01*
X180858666Y-97309580D02*
X180906285Y-97357200D01*
X180906285Y-97357200D02*
X181049142Y-97404819D01*
X181049142Y-97404819D02*
X181144380Y-97404819D01*
X181144380Y-97404819D02*
X181287237Y-97357200D01*
X181287237Y-97357200D02*
X181382475Y-97261961D01*
X181382475Y-97261961D02*
X181430094Y-97166723D01*
X181430094Y-97166723D02*
X181477713Y-96976247D01*
X181477713Y-96976247D02*
X181477713Y-96833390D01*
X181477713Y-96833390D02*
X181430094Y-96642914D01*
X181430094Y-96642914D02*
X181382475Y-96547676D01*
X181382475Y-96547676D02*
X181287237Y-96452438D01*
X181287237Y-96452438D02*
X181144380Y-96404819D01*
X181144380Y-96404819D02*
X181049142Y-96404819D01*
X181049142Y-96404819D02*
X180906285Y-96452438D01*
X180906285Y-96452438D02*
X180858666Y-96500057D01*
X179953904Y-96404819D02*
X180430094Y-96404819D01*
X180430094Y-96404819D02*
X180477713Y-96881009D01*
X180477713Y-96881009D02*
X180430094Y-96833390D01*
X180430094Y-96833390D02*
X180334856Y-96785771D01*
X180334856Y-96785771D02*
X180096761Y-96785771D01*
X180096761Y-96785771D02*
X180001523Y-96833390D01*
X180001523Y-96833390D02*
X179953904Y-96881009D01*
X179953904Y-96881009D02*
X179906285Y-96976247D01*
X179906285Y-96976247D02*
X179906285Y-97214342D01*
X179906285Y-97214342D02*
X179953904Y-97309580D01*
X179953904Y-97309580D02*
X180001523Y-97357200D01*
X180001523Y-97357200D02*
X180096761Y-97404819D01*
X180096761Y-97404819D02*
X180334856Y-97404819D01*
X180334856Y-97404819D02*
X180430094Y-97357200D01*
X180430094Y-97357200D02*
X180477713Y-97309580D01*
D11*
X160819047Y-100757419D02*
X161295237Y-100757419D01*
X161295237Y-100757419D02*
X161295237Y-99757419D01*
X160485713Y-100233609D02*
X160152380Y-100233609D01*
X160009523Y-100757419D02*
X160485713Y-100757419D01*
X160485713Y-100757419D02*
X160485713Y-99757419D01*
X160485713Y-99757419D02*
X160009523Y-99757419D01*
X159580951Y-100757419D02*
X159580951Y-99757419D01*
X159580951Y-99757419D02*
X159342856Y-99757419D01*
X159342856Y-99757419D02*
X159199999Y-99805038D01*
X159199999Y-99805038D02*
X159104761Y-99900276D01*
X159104761Y-99900276D02*
X159057142Y-99995514D01*
X159057142Y-99995514D02*
X159009523Y-100185990D01*
X159009523Y-100185990D02*
X159009523Y-100328847D01*
X159009523Y-100328847D02*
X159057142Y-100519323D01*
X159057142Y-100519323D02*
X159104761Y-100614561D01*
X159104761Y-100614561D02*
X159199999Y-100709800D01*
X159199999Y-100709800D02*
X159342856Y-100757419D01*
X159342856Y-100757419D02*
X159580951Y-100757419D01*
X158676189Y-99757419D02*
X158057142Y-99757419D01*
X158057142Y-99757419D02*
X158390475Y-100138371D01*
X158390475Y-100138371D02*
X158247618Y-100138371D01*
X158247618Y-100138371D02*
X158152380Y-100185990D01*
X158152380Y-100185990D02*
X158104761Y-100233609D01*
X158104761Y-100233609D02*
X158057142Y-100328847D01*
X158057142Y-100328847D02*
X158057142Y-100566942D01*
X158057142Y-100566942D02*
X158104761Y-100662180D01*
X158104761Y-100662180D02*
X158152380Y-100709800D01*
X158152380Y-100709800D02*
X158247618Y-100757419D01*
X158247618Y-100757419D02*
X158533332Y-100757419D01*
X158533332Y-100757419D02*
X158628570Y-100709800D01*
X158628570Y-100709800D02*
X158676189Y-100662180D01*
D13*
X147076666Y-71655580D02*
X147124285Y-71703200D01*
X147124285Y-71703200D02*
X147267142Y-71750819D01*
X147267142Y-71750819D02*
X147362380Y-71750819D01*
X147362380Y-71750819D02*
X147505237Y-71703200D01*
X147505237Y-71703200D02*
X147600475Y-71607961D01*
X147600475Y-71607961D02*
X147648094Y-71512723D01*
X147648094Y-71512723D02*
X147695713Y-71322247D01*
X147695713Y-71322247D02*
X147695713Y-71179390D01*
X147695713Y-71179390D02*
X147648094Y-70988914D01*
X147648094Y-70988914D02*
X147600475Y-70893676D01*
X147600475Y-70893676D02*
X147505237Y-70798438D01*
X147505237Y-70798438D02*
X147362380Y-70750819D01*
X147362380Y-70750819D02*
X147267142Y-70750819D01*
X147267142Y-70750819D02*
X147124285Y-70798438D01*
X147124285Y-70798438D02*
X147076666Y-70846057D01*
X146743332Y-70750819D02*
X146076666Y-70750819D01*
X146076666Y-70750819D02*
X146505237Y-71750819D01*
X149666666Y-55959580D02*
X149714285Y-56007200D01*
X149714285Y-56007200D02*
X149857142Y-56054819D01*
X149857142Y-56054819D02*
X149952380Y-56054819D01*
X149952380Y-56054819D02*
X150095237Y-56007200D01*
X150095237Y-56007200D02*
X150190475Y-55911961D01*
X150190475Y-55911961D02*
X150238094Y-55816723D01*
X150238094Y-55816723D02*
X150285713Y-55626247D01*
X150285713Y-55626247D02*
X150285713Y-55483390D01*
X150285713Y-55483390D02*
X150238094Y-55292914D01*
X150238094Y-55292914D02*
X150190475Y-55197676D01*
X150190475Y-55197676D02*
X150095237Y-55102438D01*
X150095237Y-55102438D02*
X149952380Y-55054819D01*
X149952380Y-55054819D02*
X149857142Y-55054819D01*
X149857142Y-55054819D02*
X149714285Y-55102438D01*
X149714285Y-55102438D02*
X149666666Y-55150057D01*
X148714285Y-56054819D02*
X149285713Y-56054819D01*
X148999999Y-56054819D02*
X148999999Y-55054819D01*
X148999999Y-55054819D02*
X149095237Y-55197676D01*
X149095237Y-55197676D02*
X149190475Y-55292914D01*
X149190475Y-55292914D02*
X149285713Y-55340533D01*
D14*
X153500000Y-61750000D02*
X153900000Y-61750000D01*
X145600000Y-60250000D02*
X145200000Y-60250000D01*
X145400000Y-60050000D02*
X145400000Y-60450000D01*
D15*
X152015139Y-62850000D02*
G75*
G02*
X151784861Y-62850000I-115139J0D01*
G01*
X151784861Y-62850000D02*
G75*
G02*
X152015139Y-62850000I115139J0D01*
G01*
D14*
X135300000Y-97050000D02*
X134900000Y-97050000D01*
X143200000Y-98550000D02*
X143600000Y-98550000D01*
X143400000Y-98750000D02*
X143400000Y-98350000D01*
D15*
X137015139Y-95950000D02*
G75*
G02*
X136784861Y-95950000I-115139J0D01*
G01*
X136784861Y-95950000D02*
G75*
G02*
X137015139Y-95950000I115139J0D01*
G01*
D16*
X140011252Y-92990000D02*
X138588748Y-92990000D01*
X140011252Y-94810000D02*
X138588748Y-94810000D01*
X160411252Y-93290000D02*
X158988748Y-93290000D01*
X160411252Y-95110000D02*
X158988748Y-95110000D01*
X181403252Y-94008000D02*
X179980748Y-94008000D01*
X181403252Y-95828000D02*
X179980748Y-95828000D01*
D14*
X155700000Y-97050000D02*
X155300000Y-97050000D01*
X163600000Y-98550000D02*
X164000000Y-98550000D01*
X163800000Y-98750000D02*
X163800000Y-98350000D01*
D15*
X157415139Y-95950000D02*
G75*
G02*
X157184861Y-95950000I-115139J0D01*
G01*
X157184861Y-95950000D02*
G75*
G02*
X157415139Y-95950000I115139J0D01*
G01*
D16*
X147621252Y-68354000D02*
X146198748Y-68354000D01*
X147621252Y-70174000D02*
X146198748Y-70174000D01*
X148788748Y-58410000D02*
X150211252Y-58410000D01*
X148788748Y-56590000D02*
X150211252Y-56590000D01*
D17*
G36*
X115324060Y-94298987D02*
G01*
X115324060Y-94776615D01*
X115820058Y-94776615D01*
X116316056Y-94776615D01*
X116316056Y-94298987D01*
X116316056Y-93821360D01*
X116512006Y-93821360D01*
X116707956Y-93821360D01*
X116707956Y-94960318D01*
X116707956Y-96099277D01*
X116512006Y-96099277D01*
X116316056Y-96099277D01*
X116316056Y-95609402D01*
X116316056Y-95119527D01*
X115820058Y-95119527D01*
X115324060Y-95119527D01*
X115324060Y-95609402D01*
X115324060Y-96099277D01*
X115128110Y-96099277D01*
X114932161Y-96099277D01*
X114932161Y-94960318D01*
X114932161Y-93821360D01*
X115128110Y-93821360D01*
X115324060Y-93821360D01*
X115324060Y-94298987D01*
G37*
G36*
X122280280Y-94960318D02*
G01*
X122280280Y-96099277D01*
X121576085Y-96099277D01*
X120871891Y-96099277D01*
X120871891Y-95909450D01*
X120871891Y-95719624D01*
X121380135Y-95719624D01*
X121888380Y-95719624D01*
X121888380Y-95425699D01*
X121888380Y-95131774D01*
X121435246Y-95131774D01*
X120982112Y-95131774D01*
X120982112Y-94954195D01*
X120982112Y-94776615D01*
X121435246Y-94776615D01*
X121888380Y-94776615D01*
X121888380Y-94488814D01*
X121888380Y-94201012D01*
X121380135Y-94201012D01*
X120871891Y-94201012D01*
X120871891Y-94011186D01*
X120871891Y-93821360D01*
X121576085Y-93821360D01*
X122280280Y-93821360D01*
X122280280Y-94960318D01*
G37*
G36*
X121466789Y-92378773D02*
G01*
X121559880Y-92382353D01*
X121689967Y-92703775D01*
X121820053Y-93025198D01*
X121949130Y-92700846D01*
X122078207Y-92376495D01*
X122166997Y-92376362D01*
X122255786Y-92376229D01*
X122255786Y-92811530D01*
X122255786Y-93246830D01*
X122166997Y-93243232D01*
X122078207Y-93239633D01*
X122074341Y-93031437D01*
X122070476Y-92823240D01*
X121988387Y-93031437D01*
X121906299Y-93239633D01*
X121820797Y-93243121D01*
X121735295Y-93246609D01*
X121647020Y-93022678D01*
X121558746Y-92798746D01*
X121558230Y-93022788D01*
X121557715Y-93246830D01*
X121468925Y-93243232D01*
X121380135Y-93239633D01*
X121376916Y-92807413D01*
X121373698Y-92375193D01*
X121466789Y-92378773D01*
G37*
G36*
X117944890Y-92810993D02*
G01*
X117944890Y-93245757D01*
X117853038Y-93245757D01*
X117761187Y-93245757D01*
X117761187Y-93074301D01*
X117761187Y-92902845D01*
X117608101Y-92902845D01*
X117565754Y-92902755D01*
X117515353Y-92901979D01*
X117483030Y-92899909D01*
X117464832Y-92895958D01*
X117456811Y-92889538D01*
X117455015Y-92880060D01*
X117454733Y-92871942D01*
X117451975Y-92839854D01*
X117447227Y-92800456D01*
X117439439Y-92743635D01*
X117600313Y-92743635D01*
X117761187Y-92743635D01*
X117761187Y-92645660D01*
X117761187Y-92547685D01*
X117577484Y-92547685D01*
X117393781Y-92547685D01*
X117393781Y-92461957D01*
X117393781Y-92376229D01*
X117669335Y-92376229D01*
X117944890Y-92376229D01*
X117944890Y-92810993D01*
G37*
G36*
X118903207Y-92379057D02*
G01*
X119175700Y-92382353D01*
X119178928Y-92798665D01*
X119179409Y-92873203D01*
X119179724Y-92966899D01*
X119179678Y-93050864D01*
X119179289Y-93122145D01*
X119178576Y-93177791D01*
X119177557Y-93214849D01*
X119176250Y-93230367D01*
X119170219Y-93234954D01*
X119151191Y-93239192D01*
X119117051Y-93242260D01*
X119065456Y-93244290D01*
X118994064Y-93245412D01*
X118900529Y-93245757D01*
X118630714Y-93245757D01*
X118630714Y-93160029D01*
X118630714Y-93074301D01*
X118814417Y-93074301D01*
X118998120Y-93074301D01*
X118998120Y-92982449D01*
X118998120Y-92890598D01*
X118832228Y-92890598D01*
X118666336Y-92890598D01*
X118669957Y-92807931D01*
X118673578Y-92725265D01*
X118835849Y-92721848D01*
X118998120Y-92718431D01*
X118998120Y-92633058D01*
X118998120Y-92547685D01*
X118814417Y-92547685D01*
X118630714Y-92547685D01*
X118630714Y-92461723D01*
X118630714Y-92375761D01*
X118903207Y-92379057D01*
G37*
G36*
X120161572Y-93248181D02*
G01*
X119950314Y-93243745D01*
X119897631Y-93242561D01*
X119833042Y-93240544D01*
X119785292Y-93237771D01*
X119749723Y-93233630D01*
X119721681Y-93227510D01*
X119696510Y-93218801D01*
X119669553Y-93206890D01*
X119667873Y-93206103D01*
X119579190Y-93151955D01*
X119508063Y-93081912D01*
X119456277Y-92997727D01*
X119453613Y-92991866D01*
X119436811Y-92950523D01*
X119426942Y-92912786D01*
X119422241Y-92869306D01*
X119421194Y-92822161D01*
X119609584Y-92822161D01*
X119620651Y-92892940D01*
X119648355Y-92957793D01*
X119691977Y-93012110D01*
X119750796Y-93051281D01*
X119765117Y-93057063D01*
X119820973Y-93069797D01*
X119895203Y-93074032D01*
X119990116Y-93074301D01*
X119990116Y-92810993D01*
X119990116Y-92547685D01*
X119907450Y-92547754D01*
X119840977Y-92550560D01*
X119776712Y-92562379D01*
X119725993Y-92585049D01*
X119683487Y-92620299D01*
X119683409Y-92620381D01*
X119640243Y-92681271D01*
X119615875Y-92750068D01*
X119609584Y-92822161D01*
X119421194Y-92822161D01*
X119420940Y-92810736D01*
X119421033Y-92780129D01*
X119423039Y-92732829D01*
X119429037Y-92696313D01*
X119440915Y-92661464D01*
X119460558Y-92619165D01*
X119512960Y-92535640D01*
X119582504Y-92467386D01*
X119670228Y-92414787D01*
X119687307Y-92407045D01*
X119712513Y-92397281D01*
X119738974Y-92390311D01*
X119771337Y-92385529D01*
X119814249Y-92382327D01*
X119872359Y-92380100D01*
X119950314Y-92378241D01*
X120161572Y-92373806D01*
X120161572Y-92810993D01*
X120161572Y-93248181D01*
G37*
G36*
X116132353Y-92809846D02*
G01*
X116132353Y-93245757D01*
X116040502Y-93245757D01*
X115948650Y-93245757D01*
X115948650Y-93092671D01*
X115948650Y-92939585D01*
X115870853Y-92939585D01*
X115793056Y-92939585D01*
X115728207Y-93092671D01*
X115663358Y-93245757D01*
X115561370Y-93245757D01*
X115561015Y-93245757D01*
X115522227Y-93246387D01*
X115494474Y-93246157D01*
X115477473Y-93241939D01*
X115470945Y-93230606D01*
X115474610Y-93209029D01*
X115488186Y-93174083D01*
X115511392Y-93122638D01*
X115543950Y-93051569D01*
X115606998Y-92912492D01*
X115557643Y-92866927D01*
X115539823Y-92849380D01*
X115499793Y-92794789D01*
X115477827Y-92732228D01*
X115471292Y-92655239D01*
X115471302Y-92653434D01*
X115664840Y-92653434D01*
X115672744Y-92699255D01*
X115697033Y-92738069D01*
X115708302Y-92748494D01*
X115725463Y-92759051D01*
X115748684Y-92764968D01*
X115784106Y-92767557D01*
X115837872Y-92768129D01*
X115948650Y-92768129D01*
X115948650Y-92657907D01*
X115948650Y-92547685D01*
X115840080Y-92547685D01*
X115832820Y-92547695D01*
X115779696Y-92548833D01*
X115743962Y-92552677D01*
X115719262Y-92560374D01*
X115699241Y-92573068D01*
X115697736Y-92574284D01*
X115673208Y-92608985D01*
X115664840Y-92653434D01*
X115471302Y-92653434D01*
X115471305Y-92652926D01*
X115481122Y-92568437D01*
X115509460Y-92499630D01*
X115556963Y-92445448D01*
X115624276Y-92404840D01*
X115639005Y-92399187D01*
X115665803Y-92392414D01*
X115701734Y-92387331D01*
X115750638Y-92383578D01*
X115816355Y-92380793D01*
X115902725Y-92378614D01*
X116132353Y-92373935D01*
X116132353Y-92657907D01*
X116132353Y-92809846D01*
G37*
G36*
X121047236Y-92891104D02*
G01*
X121079201Y-92980604D01*
X121107495Y-93060551D01*
X121131177Y-93128254D01*
X121149305Y-93181019D01*
X121160937Y-93216153D01*
X121165132Y-93230963D01*
X121164169Y-93235029D01*
X121151748Y-93241459D01*
X121122182Y-93244029D01*
X121071885Y-93243210D01*
X120977955Y-93239633D01*
X120948396Y-93150844D01*
X120918837Y-93062054D01*
X120773916Y-93062054D01*
X120628994Y-93062054D01*
X120599435Y-93150844D01*
X120569877Y-93239633D01*
X120475946Y-93243210D01*
X120465524Y-93243547D01*
X120423008Y-93243530D01*
X120393070Y-93241248D01*
X120381645Y-93237087D01*
X120381648Y-93236978D01*
X120385818Y-93222733D01*
X120397247Y-93188132D01*
X120415032Y-93135799D01*
X120438269Y-93068353D01*
X120466057Y-92988416D01*
X120497491Y-92898609D01*
X120500358Y-92890468D01*
X120690820Y-92890468D01*
X120699337Y-92897731D01*
X120725992Y-92901663D01*
X120773916Y-92902845D01*
X120790799Y-92902743D01*
X120831977Y-92900793D01*
X120852831Y-92895917D01*
X120856490Y-92887536D01*
X120854421Y-92881698D01*
X120845434Y-92855018D01*
X120831917Y-92814084D01*
X120815915Y-92765067D01*
X120807542Y-92739905D01*
X120792464Y-92697801D01*
X120780579Y-92668743D01*
X120773916Y-92657907D01*
X120771250Y-92660910D01*
X120761636Y-92681806D01*
X120747848Y-92718250D01*
X120731916Y-92765067D01*
X120724265Y-92788567D01*
X120709169Y-92834578D01*
X120697513Y-92869625D01*
X120691341Y-92887536D01*
X120690820Y-92890468D01*
X120500358Y-92890468D01*
X120531669Y-92801555D01*
X120682064Y-92375723D01*
X120772795Y-92379038D01*
X120863526Y-92382353D01*
X121013987Y-92798746D01*
X121045952Y-92887536D01*
X121047236Y-92891104D01*
G37*
G36*
X117204949Y-92863447D02*
G01*
X117187061Y-92958630D01*
X117148941Y-93051962D01*
X117092229Y-93129666D01*
X117017350Y-93191178D01*
X116924728Y-93235933D01*
X116866501Y-93250937D01*
X116775016Y-93256261D01*
X116681552Y-93242708D01*
X116593451Y-93210836D01*
X116577688Y-93202767D01*
X116505492Y-93154521D01*
X116449036Y-93093303D01*
X116403023Y-93013625D01*
X116390048Y-92983972D01*
X116380149Y-92953020D01*
X116374431Y-92918466D01*
X116371801Y-92873352D01*
X116371311Y-92824974D01*
X116561954Y-92824974D01*
X116562979Y-92875555D01*
X116568618Y-92911976D01*
X116579639Y-92941016D01*
X116587479Y-92955644D01*
X116632356Y-93016309D01*
X116685916Y-93057094D01*
X116691373Y-93059650D01*
X116734182Y-93070181D01*
X116788036Y-93073188D01*
X116842469Y-93068690D01*
X116887016Y-93056707D01*
X116897724Y-93051498D01*
X116944969Y-93013288D01*
X116981758Y-92957494D01*
X117005614Y-92888884D01*
X117014059Y-92812227D01*
X117013131Y-92783200D01*
X116998693Y-92700907D01*
X116967696Y-92634452D01*
X116921332Y-92585242D01*
X116860790Y-92554685D01*
X116787262Y-92544186D01*
X116783659Y-92544208D01*
X116709147Y-92555523D01*
X116647179Y-92586932D01*
X116599703Y-92637465D01*
X116598333Y-92639547D01*
X116582089Y-92668142D01*
X116571981Y-92698142D01*
X116566190Y-92737240D01*
X116562898Y-92793130D01*
X116561954Y-92824974D01*
X116371311Y-92824974D01*
X116371167Y-92810719D01*
X116371202Y-92787481D01*
X116372108Y-92733455D01*
X116375252Y-92694267D01*
X116381973Y-92662729D01*
X116393604Y-92631653D01*
X116411484Y-92593851D01*
X116456959Y-92519720D01*
X116523466Y-92451795D01*
X116608314Y-92398933D01*
X116640289Y-92385477D01*
X116675623Y-92376668D01*
X116720130Y-92372152D01*
X116781437Y-92370684D01*
X116802739Y-92370658D01*
X116855666Y-92372083D01*
X116894936Y-92376863D01*
X116928707Y-92386391D01*
X116965140Y-92402062D01*
X117011377Y-92427778D01*
X117085997Y-92489588D01*
X117144169Y-92566954D01*
X117184387Y-92656982D01*
X117205149Y-92756778D01*
X117205045Y-92812227D01*
X117204949Y-92863447D01*
G37*
G36*
X118655208Y-94959118D02*
G01*
X118655208Y-96099277D01*
X118459258Y-96099277D01*
X118263308Y-96099277D01*
X118263308Y-95708386D01*
X118263308Y-95317496D01*
X117923458Y-95312810D01*
X117849163Y-95311748D01*
X117763698Y-95310267D01*
X117696751Y-95308530D01*
X117644837Y-95306246D01*
X117604470Y-95303122D01*
X117572166Y-95298865D01*
X117544437Y-95293185D01*
X117517800Y-95285789D01*
X117488768Y-95276385D01*
X117443008Y-95259777D01*
X117354688Y-95217332D01*
X117276476Y-95162298D01*
X117199927Y-95089202D01*
X117176680Y-95063323D01*
X117111587Y-94974924D01*
X117064224Y-94880025D01*
X117033452Y-94775089D01*
X117018135Y-94656579D01*
X117017380Y-94554228D01*
X117425325Y-94554228D01*
X117425603Y-94580437D01*
X117433050Y-94667058D01*
X117452155Y-94738164D01*
X117484967Y-94799480D01*
X117533533Y-94856730D01*
X117542591Y-94865541D01*
X117600524Y-94911940D01*
X117657192Y-94941769D01*
X117666498Y-94945002D01*
X117692808Y-94952069D01*
X117725344Y-94957543D01*
X117767759Y-94961729D01*
X117823707Y-94964931D01*
X117896841Y-94967454D01*
X117990815Y-94969603D01*
X118263308Y-94974927D01*
X118263308Y-94574560D01*
X118263308Y-94174192D01*
X117984692Y-94179732D01*
X117926339Y-94181084D01*
X117826239Y-94184582D01*
X117748105Y-94189110D01*
X117692772Y-94194612D01*
X117661081Y-94201035D01*
X117642149Y-94208471D01*
X117571091Y-94250483D01*
X117508566Y-94308817D01*
X117461907Y-94376998D01*
X117457473Y-94385764D01*
X117440655Y-94423257D01*
X117430951Y-94457726D01*
X117426471Y-94498331D01*
X117425325Y-94554228D01*
X117017380Y-94554228D01*
X117017134Y-94520961D01*
X117018250Y-94495173D01*
X117022689Y-94426660D01*
X117029305Y-94373480D01*
X117039168Y-94328672D01*
X117053345Y-94285276D01*
X117064161Y-94257483D01*
X117123207Y-94140674D01*
X117197668Y-94042698D01*
X117288374Y-93962795D01*
X117396153Y-93900200D01*
X117521833Y-93854151D01*
X117524790Y-93853323D01*
X117547784Y-93847466D01*
X117572368Y-93842599D01*
X117601086Y-93838597D01*
X117636484Y-93835337D01*
X117681107Y-93832694D01*
X117737499Y-93830545D01*
X117808204Y-93828764D01*
X117895769Y-93827229D01*
X118002737Y-93825814D01*
X118131654Y-93824396D01*
X118655208Y-93818960D01*
X118655208Y-94574560D01*
X118655208Y-94959118D01*
G37*
G36*
X114602072Y-95385121D02*
G01*
X114589596Y-95511927D01*
X114562294Y-95623650D01*
X114518572Y-95724404D01*
X114456837Y-95818300D01*
X114375495Y-95909450D01*
X114359363Y-95925149D01*
X114267175Y-96001508D01*
X114169135Y-96059015D01*
X114059878Y-96100328D01*
X113934041Y-96128103D01*
X113918533Y-96129594D01*
X113878877Y-96130931D01*
X113826547Y-96131021D01*
X113768708Y-96129791D01*
X113715302Y-96126535D01*
X113576766Y-96102897D01*
X113450018Y-96058477D01*
X113336362Y-95994290D01*
X113237099Y-95911353D01*
X113153532Y-95810683D01*
X113086963Y-95693295D01*
X113038695Y-95560205D01*
X113027255Y-95502985D01*
X113019099Y-95422764D01*
X113017257Y-95369472D01*
X113394604Y-95369472D01*
X113409139Y-95468231D01*
X113437478Y-95555867D01*
X113460245Y-95597142D01*
X113508107Y-95658211D01*
X113566389Y-95712981D01*
X113627378Y-95753428D01*
X113633774Y-95756638D01*
X113677299Y-95774150D01*
X113725054Y-95784182D01*
X113787079Y-95788967D01*
X113798253Y-95789338D01*
X113893481Y-95784490D01*
X113974080Y-95763287D01*
X114044773Y-95723911D01*
X114110285Y-95664543D01*
X114139624Y-95629891D01*
X114178415Y-95568187D01*
X114205368Y-95497361D01*
X114223784Y-95410010D01*
X114229051Y-95365733D01*
X114228041Y-95257182D01*
X114207521Y-95155560D01*
X114168677Y-95064021D01*
X114112696Y-94985718D01*
X114040767Y-94923807D01*
X114006489Y-94903102D01*
X113946412Y-94877700D01*
X113879097Y-94864132D01*
X113796534Y-94860316D01*
X113783916Y-94860538D01*
X113687374Y-94874756D01*
X113601763Y-94910050D01*
X113528620Y-94964980D01*
X113469482Y-95038102D01*
X113425885Y-95127973D01*
X113399367Y-95233151D01*
X113395035Y-95269450D01*
X113394604Y-95369472D01*
X113017257Y-95369472D01*
X113016023Y-95333786D01*
X113018050Y-95244125D01*
X113025199Y-95161850D01*
X113037492Y-95095034D01*
X113064928Y-95010174D01*
X113124097Y-94888880D01*
X113202009Y-94781431D01*
X113296880Y-94689757D01*
X113406925Y-94615790D01*
X113530361Y-94561461D01*
X113581575Y-94546806D01*
X113683618Y-94528737D01*
X113793782Y-94520648D01*
X113902799Y-94523032D01*
X114001399Y-94536383D01*
X114023119Y-94541286D01*
X114147930Y-94583032D01*
X114262383Y-94644586D01*
X114363606Y-94723769D01*
X114448730Y-94818400D01*
X114514884Y-94926300D01*
X114547391Y-94997116D01*
X114574535Y-95071598D01*
X114591641Y-95144886D01*
X114600591Y-95225409D01*
X114603273Y-95321601D01*
X114602439Y-95365733D01*
X114602072Y-95385121D01*
G37*
G36*
X110143636Y-95337368D02*
G01*
X110139196Y-95452520D01*
X110122680Y-95565244D01*
X110092265Y-95666699D01*
X110046185Y-95762603D01*
X109982677Y-95858671D01*
X109951470Y-95896909D01*
X109867499Y-95975703D01*
X109768871Y-96042209D01*
X109661707Y-96092666D01*
X109552131Y-96123308D01*
X109525220Y-96126677D01*
X109473445Y-96129953D01*
X109411497Y-96131476D01*
X109347590Y-96130940D01*
X109341995Y-96130785D01*
X109270834Y-96127479D01*
X109215185Y-96121385D01*
X109166673Y-96111223D01*
X109116925Y-96095714D01*
X109045321Y-96067162D01*
X108932735Y-96005612D01*
X108838068Y-95930751D01*
X108837718Y-95930416D01*
X108807258Y-95897704D01*
X108773823Y-95856396D01*
X108741208Y-95811920D01*
X108713212Y-95769701D01*
X108693630Y-95735168D01*
X108686259Y-95713747D01*
X108688251Y-95710982D01*
X108707023Y-95699268D01*
X108741418Y-95682031D01*
X108786308Y-95661454D01*
X108836566Y-95639721D01*
X108887066Y-95619016D01*
X108932679Y-95601523D01*
X108968279Y-95589426D01*
X108988740Y-95584908D01*
X108998603Y-95589598D01*
X109010815Y-95609448D01*
X109028437Y-95641442D01*
X109063196Y-95681162D01*
X109108255Y-95720925D01*
X109157448Y-95755338D01*
X109204611Y-95779006D01*
X109246900Y-95791527D01*
X109324971Y-95803584D01*
X109408624Y-95806100D01*
X109488514Y-95798990D01*
X109555297Y-95782171D01*
X109569427Y-95776477D01*
X109648248Y-95731023D01*
X109712198Y-95669720D01*
X109758255Y-95596124D01*
X109783396Y-95513792D01*
X109791607Y-95462440D01*
X109206603Y-95462440D01*
X108621599Y-95462440D01*
X108628244Y-95294045D01*
X108632025Y-95228595D01*
X108635018Y-95205255D01*
X109001896Y-95205255D01*
X109396514Y-95205255D01*
X109791132Y-95205255D01*
X109783003Y-95171577D01*
X109779496Y-95157176D01*
X109765084Y-95102386D01*
X109751714Y-95062274D01*
X109736470Y-95029115D01*
X109716438Y-94995182D01*
X109716350Y-94995043D01*
X109666060Y-94935319D01*
X109599615Y-94884660D01*
X109525169Y-94849286D01*
X109490618Y-94840459D01*
X109421885Y-94833010D01*
X109347200Y-94834158D01*
X109276319Y-94843537D01*
X109218998Y-94860781D01*
X109141419Y-94907557D01*
X109079378Y-94972133D01*
X109035403Y-95052441D01*
X109010512Y-95147083D01*
X109001896Y-95205255D01*
X108635018Y-95205255D01*
X108648202Y-95102423D01*
X108676682Y-94992627D01*
X108719062Y-94895109D01*
X108776939Y-94805775D01*
X108851911Y-94720529D01*
X108930956Y-94650532D01*
X109024563Y-94591061D01*
X109126956Y-94550327D01*
X109241784Y-94526920D01*
X109372697Y-94519431D01*
X109395659Y-94519659D01*
X109529839Y-94530839D01*
X109650897Y-94558357D01*
X109755711Y-94601545D01*
X109779365Y-94616221D01*
X109822631Y-94648547D01*
X109871205Y-94689445D01*
X109918368Y-94733466D01*
X109964649Y-94782532D01*
X110032742Y-94872894D01*
X110083316Y-94969881D01*
X110117741Y-95077171D01*
X110137391Y-95198441D01*
X110137697Y-95205255D01*
X110143636Y-95337368D01*
G37*
G36*
X111097940Y-94523390D02*
G01*
X111212598Y-94555981D01*
X111221684Y-94559654D01*
X111273149Y-94587435D01*
X111327060Y-94625877D01*
X111377265Y-94669709D01*
X111417610Y-94713660D01*
X111441943Y-94752458D01*
X111457377Y-94789719D01*
X111497637Y-94729937D01*
X111563366Y-94652231D01*
X111647778Y-94589422D01*
X111748791Y-94544607D01*
X111866381Y-94517798D01*
X111936488Y-94511287D01*
X112052694Y-94515947D01*
X112160990Y-94539831D01*
X112258003Y-94582057D01*
X112340359Y-94641742D01*
X112395714Y-94692767D01*
X112399448Y-94627531D01*
X112403183Y-94562295D01*
X112577701Y-94558897D01*
X112752218Y-94555499D01*
X112752218Y-95327388D01*
X112752218Y-96099277D01*
X112562392Y-96099277D01*
X112372566Y-96099277D01*
X112372566Y-95611625D01*
X112372549Y-95552345D01*
X112372275Y-95427859D01*
X112371413Y-95324426D01*
X112369647Y-95239625D01*
X112366661Y-95171034D01*
X112362140Y-95116234D01*
X112355766Y-95072801D01*
X112347224Y-95038317D01*
X112336198Y-95010358D01*
X112322371Y-94986505D01*
X112305428Y-94964335D01*
X112285051Y-94941429D01*
X112284669Y-94941014D01*
X112219232Y-94887591D01*
X112141915Y-94855327D01*
X112054147Y-94844818D01*
X111977932Y-94852114D01*
X111901903Y-94878393D01*
X111840549Y-94924067D01*
X111793364Y-94989414D01*
X111792930Y-94990226D01*
X111786458Y-95003095D01*
X111781094Y-95016760D01*
X111776702Y-95033590D01*
X111773146Y-95055954D01*
X111770289Y-95086223D01*
X111767996Y-95126767D01*
X111766130Y-95179954D01*
X111764556Y-95248156D01*
X111763138Y-95333740D01*
X111761738Y-95439078D01*
X111760222Y-95566538D01*
X111754099Y-96093153D01*
X111570396Y-96093153D01*
X111386693Y-96093153D01*
X111380569Y-95578785D01*
X111379261Y-95471064D01*
X111377825Y-95363938D01*
X111376383Y-95276886D01*
X111374795Y-95207509D01*
X111372924Y-95153412D01*
X111370630Y-95112195D01*
X111367774Y-95081463D01*
X111364219Y-95058818D01*
X111359824Y-95041862D01*
X111354452Y-95028198D01*
X111347964Y-95015429D01*
X111329698Y-94985431D01*
X111275362Y-94923882D01*
X111210355Y-94879300D01*
X111138470Y-94851923D01*
X111063503Y-94841989D01*
X110989248Y-94849739D01*
X110919500Y-94875411D01*
X110858054Y-94919243D01*
X110808705Y-94981476D01*
X110774350Y-95039923D01*
X110768226Y-95566538D01*
X110762103Y-96093153D01*
X110581461Y-96096542D01*
X110400820Y-96099931D01*
X110400820Y-95551068D01*
X110400870Y-95442543D01*
X110401202Y-95319924D01*
X110402043Y-95217430D01*
X110403619Y-95132583D01*
X110406152Y-95062906D01*
X110409868Y-95005919D01*
X110414990Y-94959144D01*
X110421744Y-94920102D01*
X110430354Y-94886316D01*
X110441043Y-94855307D01*
X110454036Y-94824596D01*
X110469558Y-94791706D01*
X110515114Y-94717279D01*
X110584976Y-94643286D01*
X110669685Y-94584715D01*
X110766288Y-94542504D01*
X110871833Y-94517588D01*
X110983368Y-94510905D01*
X111097940Y-94523390D01*
G37*
G36*
X119900369Y-93790423D02*
G01*
X119996240Y-93802217D01*
X120062435Y-93817587D01*
X120176913Y-93858677D01*
X120282615Y-93914921D01*
X120375734Y-93983744D01*
X120452462Y-94062573D01*
X120508990Y-94148832D01*
X120545825Y-94238257D01*
X120572735Y-94354948D01*
X120579635Y-94474925D01*
X120566713Y-94593584D01*
X120534155Y-94706321D01*
X120482150Y-94808530D01*
X120441564Y-94865022D01*
X120394790Y-94915784D01*
X120340377Y-94960212D01*
X120275536Y-94999777D01*
X120197479Y-95035949D01*
X120103420Y-95070201D01*
X119990569Y-95104003D01*
X119856140Y-95138825D01*
X119816053Y-95148740D01*
X119714733Y-95174985D01*
X119633505Y-95198402D01*
X119569400Y-95220210D01*
X119519448Y-95241626D01*
X119480680Y-95263866D01*
X119450127Y-95288149D01*
X119424821Y-95315693D01*
X119398170Y-95359906D01*
X119378451Y-95427664D01*
X119375734Y-95500187D01*
X119390095Y-95570127D01*
X119421609Y-95630136D01*
X119443763Y-95655967D01*
X119511527Y-95708763D01*
X119596781Y-95744681D01*
X119699247Y-95763625D01*
X119818652Y-95765504D01*
X119877349Y-95760463D01*
X119985968Y-95738423D01*
X120077106Y-95701102D01*
X120150003Y-95648977D01*
X120203900Y-95582526D01*
X120238036Y-95502224D01*
X120243682Y-95483930D01*
X120256417Y-95459802D01*
X120271277Y-95455697D01*
X120276235Y-95457078D01*
X120303299Y-95464164D01*
X120344895Y-95474757D01*
X120394263Y-95487129D01*
X120405056Y-95489826D01*
X120463043Y-95504646D01*
X120518684Y-95519329D01*
X120561252Y-95531055D01*
X120624143Y-95549089D01*
X120613054Y-95600677D01*
X120611551Y-95607308D01*
X120586943Y-95680362D01*
X120548614Y-95758566D01*
X120501589Y-95832826D01*
X120450895Y-95894048D01*
X120448816Y-95896149D01*
X120354583Y-95974927D01*
X120243244Y-96040426D01*
X120119514Y-96090322D01*
X119988109Y-96122288D01*
X119918608Y-96129998D01*
X119833575Y-96133475D01*
X119743423Y-96132663D01*
X119657704Y-96127653D01*
X119585970Y-96118532D01*
X119480844Y-96093953D01*
X119353085Y-96045483D01*
X119242128Y-95979402D01*
X119147622Y-95895490D01*
X119069217Y-95793526D01*
X119046160Y-95752358D01*
X119009508Y-95654858D01*
X118989044Y-95547440D01*
X118984769Y-95435764D01*
X118996684Y-95325489D01*
X119024789Y-95222272D01*
X119069087Y-95131774D01*
X119130935Y-95052404D01*
X119212724Y-94977637D01*
X119304596Y-94918143D01*
X119343861Y-94897946D01*
X119380930Y-94880318D01*
X119418342Y-94864679D01*
X119460005Y-94849728D01*
X119509826Y-94834164D01*
X119571716Y-94816686D01*
X119649582Y-94795994D01*
X119747332Y-94770786D01*
X119773265Y-94764112D01*
X119869769Y-94738308D01*
X119946263Y-94715671D01*
X120005981Y-94694814D01*
X120052155Y-94674347D01*
X120088019Y-94652882D01*
X120116805Y-94629032D01*
X120141746Y-94601407D01*
X120155140Y-94583684D01*
X120170944Y-94554678D01*
X120179525Y-94520248D01*
X120183962Y-94470871D01*
X120184441Y-94409928D01*
X120174528Y-94349559D01*
X120150819Y-94299018D01*
X120110981Y-94251277D01*
X120088026Y-94230025D01*
X120031925Y-94191890D01*
X119967392Y-94167566D01*
X119889711Y-94155613D01*
X119794166Y-94154594D01*
X119762817Y-94155927D01*
X119709001Y-94159802D01*
X119669183Y-94166155D01*
X119636170Y-94176389D01*
X119602770Y-94191906D01*
X119579034Y-94205313D01*
X119535329Y-94234673D01*
X119501260Y-94263112D01*
X119500793Y-94263581D01*
X119469824Y-94300481D01*
X119442108Y-94343338D01*
X119422165Y-94384229D01*
X119414513Y-94415229D01*
X119412838Y-94424566D01*
X119399205Y-94440043D01*
X119395198Y-94440352D01*
X119370505Y-94436834D01*
X119328727Y-94427953D01*
X119274495Y-94414746D01*
X119212440Y-94398249D01*
X119040984Y-94350882D01*
X119044082Y-94309626D01*
X119045342Y-94301047D01*
X119055561Y-94265424D01*
X119073385Y-94218779D01*
X119095940Y-94168917D01*
X119145859Y-94085669D01*
X119224687Y-93995373D01*
X119321009Y-93918750D01*
X119432129Y-93857879D01*
X119555352Y-93814836D01*
X119589504Y-93807028D01*
X119687097Y-93793112D01*
X119794020Y-93787482D01*
X119900369Y-93790423D01*
G37*
G36*
X125478592Y-92417232D02*
G01*
X125543265Y-92437144D01*
X125554522Y-92444832D01*
X125584659Y-92470373D01*
X125631377Y-92513087D01*
X125694731Y-92573028D01*
X125774779Y-92650251D01*
X125871574Y-92744809D01*
X125985174Y-92856758D01*
X126115634Y-92986150D01*
X126263009Y-93133042D01*
X126427356Y-93297486D01*
X126476445Y-93346691D01*
X126610790Y-93481436D01*
X126729202Y-93600375D01*
X126832741Y-93704620D01*
X126922465Y-93795282D01*
X126999433Y-93873471D01*
X127064702Y-93940299D01*
X127119333Y-93996876D01*
X127164382Y-94044314D01*
X127200910Y-94083724D01*
X127229974Y-94116217D01*
X127252633Y-94142904D01*
X127269946Y-94164896D01*
X127282971Y-94183305D01*
X127292767Y-94199241D01*
X127300393Y-94213815D01*
X127309971Y-94233625D01*
X127323091Y-94261491D01*
X127334307Y-94287798D01*
X127343767Y-94314551D01*
X127351620Y-94343753D01*
X127358015Y-94377408D01*
X127363102Y-94417521D01*
X127367029Y-94466096D01*
X127369945Y-94525136D01*
X127372000Y-94596646D01*
X127373342Y-94682629D01*
X127374120Y-94785090D01*
X127374483Y-94906033D01*
X127374581Y-95047461D01*
X127374562Y-95211379D01*
X127374508Y-95363393D01*
X127374359Y-95500224D01*
X127374064Y-95616233D01*
X127373572Y-95713298D01*
X127372832Y-95793297D01*
X127371792Y-95858106D01*
X127370402Y-95909603D01*
X127368610Y-95949665D01*
X127366365Y-95980170D01*
X127363616Y-96002996D01*
X127360311Y-96020018D01*
X127356399Y-96033116D01*
X127351829Y-96044166D01*
X127343123Y-96061495D01*
X127297849Y-96120995D01*
X127234137Y-96165745D01*
X127229629Y-96167855D01*
X127215687Y-96172268D01*
X127195436Y-96175867D01*
X127166602Y-96178731D01*
X127126914Y-96180939D01*
X127074097Y-96182571D01*
X127005880Y-96183707D01*
X126919988Y-96184425D01*
X126814149Y-96184806D01*
X126686090Y-96184929D01*
X126174783Y-96185005D01*
X126174783Y-94965885D01*
X126174783Y-93746765D01*
X126144723Y-93716705D01*
X126114662Y-93686644D01*
X125434405Y-93686644D01*
X125345346Y-93686650D01*
X125212568Y-93686718D01*
X125101158Y-93686916D01*
X125009150Y-93687314D01*
X124934577Y-93687980D01*
X124875472Y-93688981D01*
X124829869Y-93690386D01*
X124795800Y-93692265D01*
X124771300Y-93694684D01*
X124754402Y-93697713D01*
X124743140Y-93701419D01*
X124735545Y-93705871D01*
X124729653Y-93711138D01*
X124729585Y-93711206D01*
X124721076Y-93721278D01*
X124714804Y-93734372D01*
X124710431Y-93754066D01*
X124707618Y-93783940D01*
X124706027Y-93827571D01*
X124705320Y-93888538D01*
X124705160Y-93970419D01*
X124705188Y-94002237D01*
X124705663Y-94077901D01*
X124706936Y-94133728D01*
X124709277Y-94173165D01*
X124712958Y-94199659D01*
X124718251Y-94216656D01*
X124725428Y-94227604D01*
X124728493Y-94230684D01*
X124736544Y-94236074D01*
X124749078Y-94240362D01*
X124768596Y-94243671D01*
X124797598Y-94246127D01*
X124838588Y-94247855D01*
X124894065Y-94248982D01*
X124966532Y-94249631D01*
X125058489Y-94249928D01*
X125172439Y-94250000D01*
X125599181Y-94250000D01*
X125599181Y-94354098D01*
X125599181Y-94458197D01*
X125184439Y-94458197D01*
X125100789Y-94458220D01*
X125005080Y-94458404D01*
X124929331Y-94458898D01*
X124870916Y-94459852D01*
X124827209Y-94461415D01*
X124795586Y-94463736D01*
X124773422Y-94466964D01*
X124758091Y-94471248D01*
X124746968Y-94476736D01*
X124737428Y-94483579D01*
X124705160Y-94508962D01*
X124705160Y-94744989D01*
X124705163Y-94763040D01*
X124705367Y-94840456D01*
X124706141Y-94897636D01*
X124707839Y-94938132D01*
X124710813Y-94965499D01*
X124715416Y-94983287D01*
X124722002Y-94995052D01*
X124730923Y-95004346D01*
X124734549Y-95007418D01*
X124743779Y-95013118D01*
X124757053Y-95017695D01*
X124776928Y-95021303D01*
X124805960Y-95024095D01*
X124846704Y-95026225D01*
X124901718Y-95027847D01*
X124973557Y-95029113D01*
X125064777Y-95030178D01*
X125177934Y-95031195D01*
X125599181Y-95034715D01*
X125599181Y-95132232D01*
X125599181Y-95229749D01*
X125184439Y-95229749D01*
X125100789Y-95229773D01*
X125005080Y-95229956D01*
X124929331Y-95230451D01*
X124870916Y-95231405D01*
X124827209Y-95232968D01*
X124795586Y-95235289D01*
X124773422Y-95238516D01*
X124758091Y-95242800D01*
X124746968Y-95248289D01*
X124737428Y-95255132D01*
X124705160Y-95280514D01*
X124705160Y-95517550D01*
X124705160Y-95754587D01*
X124737428Y-95779969D01*
X124741583Y-95783145D01*
X124750892Y-95789009D01*
X124762814Y-95793738D01*
X124779781Y-95797455D01*
X124804224Y-95800281D01*
X124838574Y-95802338D01*
X124885263Y-95803748D01*
X124946721Y-95804632D01*
X125025379Y-95805113D01*
X125123669Y-95805312D01*
X125244022Y-95805352D01*
X125303378Y-95805346D01*
X125413079Y-95805246D01*
X125501858Y-95804930D01*
X125572145Y-95804275D01*
X125626372Y-95803159D01*
X125666970Y-95801461D01*
X125696371Y-95799058D01*
X125717004Y-95795830D01*
X125731302Y-95791653D01*
X125741695Y-95786407D01*
X125750615Y-95779969D01*
X125765282Y-95765392D01*
X125782314Y-95727030D01*
X125778868Y-95685572D01*
X125754713Y-95648441D01*
X125746945Y-95641683D01*
X125737431Y-95635906D01*
X125724015Y-95631332D01*
X125704123Y-95627792D01*
X125675182Y-95625116D01*
X125634617Y-95623134D01*
X125579854Y-95621676D01*
X125508320Y-95620573D01*
X125417440Y-95619654D01*
X125304641Y-95618751D01*
X124882739Y-95615525D01*
X124882739Y-95517550D01*
X124882739Y-95419576D01*
X125315440Y-95413452D01*
X125402296Y-95412193D01*
X125500374Y-95410606D01*
X125578256Y-95409003D01*
X125638412Y-95407220D01*
X125683315Y-95405093D01*
X125715435Y-95402458D01*
X125737244Y-95399151D01*
X125751212Y-95395008D01*
X125759811Y-95389864D01*
X125765512Y-95383556D01*
X125771816Y-95364563D01*
X125777275Y-95324769D01*
X125781194Y-95269952D01*
X125783573Y-95205045D01*
X125784413Y-95134981D01*
X125783713Y-95064695D01*
X125781472Y-94999119D01*
X125777692Y-94943188D01*
X125772372Y-94901834D01*
X125765512Y-94879992D01*
X125761481Y-94875214D01*
X125753878Y-94869782D01*
X125741552Y-94865393D01*
X125722031Y-94861883D01*
X125692845Y-94859088D01*
X125651522Y-94856845D01*
X125595591Y-94854988D01*
X125522581Y-94853354D01*
X125430021Y-94851778D01*
X125315440Y-94850096D01*
X124882739Y-94843973D01*
X124882739Y-94745998D01*
X124882739Y-94648023D01*
X125304641Y-94644798D01*
X125412341Y-94643938D01*
X125504256Y-94643025D01*
X125576696Y-94641935D01*
X125632237Y-94640499D01*
X125673451Y-94638547D01*
X125702912Y-94635909D01*
X125723196Y-94632416D01*
X125736874Y-94627898D01*
X125746522Y-94622185D01*
X125754713Y-94615107D01*
X125757838Y-94612131D01*
X125766902Y-94601941D01*
X125773466Y-94589213D01*
X125777931Y-94570290D01*
X125780703Y-94541510D01*
X125782183Y-94499216D01*
X125782776Y-94439747D01*
X125782884Y-94359444D01*
X125782794Y-94300789D01*
X125782186Y-94234235D01*
X125780714Y-94185928D01*
X125778043Y-94152175D01*
X125773837Y-94129287D01*
X125767763Y-94113569D01*
X125759485Y-94101332D01*
X125736086Y-94072420D01*
X125305846Y-94068766D01*
X124875607Y-94065111D01*
X124879173Y-93970791D01*
X124882739Y-93876470D01*
X125436910Y-93873284D01*
X125991080Y-93870097D01*
X125991080Y-95027551D01*
X125991080Y-96185005D01*
X124833264Y-96185005D01*
X124742618Y-96185003D01*
X124558762Y-96184976D01*
X124397201Y-96184893D01*
X124256419Y-96184723D01*
X124134902Y-96184434D01*
X124031132Y-96183997D01*
X123943596Y-96183381D01*
X123870777Y-96182555D01*
X123811160Y-96181489D01*
X123763230Y-96180152D01*
X123725472Y-96178512D01*
X123696369Y-96176541D01*
X123674407Y-96174206D01*
X123658071Y-96171478D01*
X123645844Y-96168325D01*
X123636211Y-96164717D01*
X123627657Y-96160624D01*
X123587930Y-96134113D01*
X123539557Y-96080486D01*
X123506658Y-96014783D01*
X123504789Y-96006248D01*
X123501836Y-95977358D01*
X123499326Y-95930115D01*
X123497244Y-95863641D01*
X123495575Y-95777060D01*
X123494303Y-95669494D01*
X123493413Y-95540068D01*
X123492891Y-95387903D01*
X123492720Y-95212124D01*
X123492720Y-95161718D01*
X123492759Y-95007116D01*
X123492972Y-94874332D01*
X123493506Y-94761304D01*
X123494509Y-94665969D01*
X123496128Y-94586263D01*
X123498509Y-94520124D01*
X123501801Y-94465489D01*
X123506150Y-94420295D01*
X123511704Y-94382479D01*
X123518611Y-94349978D01*
X123527016Y-94320730D01*
X123537068Y-94292671D01*
X123548914Y-94263739D01*
X123562701Y-94231871D01*
X123566064Y-94224541D01*
X123573541Y-94210586D01*
X123583767Y-94194650D01*
X123597783Y-94175639D01*
X123616631Y-94152458D01*
X123641353Y-94124012D01*
X123672991Y-94089206D01*
X123712587Y-94046947D01*
X123761182Y-93996139D01*
X123819818Y-93935687D01*
X123889536Y-93864498D01*
X123971380Y-93781476D01*
X124066390Y-93685526D01*
X124175608Y-93575555D01*
X124300075Y-93450467D01*
X124440835Y-93309168D01*
X124480286Y-93269603D01*
X124602175Y-93147652D01*
X124718753Y-93031445D01*
X124828829Y-92922150D01*
X124931210Y-92820933D01*
X125024705Y-92728960D01*
X125108122Y-92647397D01*
X125180269Y-92577413D01*
X125239955Y-92520172D01*
X125285987Y-92476842D01*
X125317174Y-92448589D01*
X125332324Y-92436579D01*
X125345305Y-92430522D01*
X125409407Y-92415017D01*
X125478592Y-92417232D01*
G37*
G36*
X128997686Y-96399325D02*
G01*
X128970621Y-96500753D01*
X128969857Y-96503608D01*
X128910973Y-96680472D01*
X128833387Y-96841814D01*
X128736633Y-96988458D01*
X128620246Y-97121225D01*
X128568778Y-97170066D01*
X128426931Y-97281811D01*
X128272877Y-97372382D01*
X128107247Y-97441444D01*
X127930672Y-97488659D01*
X127926414Y-97489289D01*
X127914767Y-97490284D01*
X127896880Y-97491236D01*
X127872285Y-97492148D01*
X127840515Y-97493019D01*
X127801102Y-97493851D01*
X127753577Y-97494644D01*
X127697472Y-97495399D01*
X127632320Y-97496117D01*
X127557652Y-97496798D01*
X127473000Y-97497442D01*
X127377896Y-97498052D01*
X127271872Y-97498626D01*
X127154461Y-97499167D01*
X127025193Y-97499675D01*
X126883601Y-97500150D01*
X126729217Y-97500593D01*
X126561573Y-97501005D01*
X126380200Y-97501386D01*
X126184631Y-97501738D01*
X125974398Y-97502060D01*
X125749032Y-97502354D01*
X125508065Y-97502621D01*
X125251030Y-97502860D01*
X124977458Y-97503074D01*
X124686882Y-97503261D01*
X124378832Y-97503424D01*
X124052842Y-97503562D01*
X123708443Y-97503677D01*
X123345167Y-97503770D01*
X122962546Y-97503840D01*
X122560112Y-97503888D01*
X122137396Y-97503916D01*
X121693932Y-97503924D01*
X121229250Y-97503912D01*
X120742882Y-97503882D01*
X120234362Y-97503834D01*
X119703219Y-97503769D01*
X119148988Y-97503687D01*
X118571198Y-97503589D01*
X117969383Y-97503477D01*
X108092286Y-97501543D01*
X107996391Y-97474237D01*
X107980182Y-97469543D01*
X107806969Y-97408200D01*
X107650922Y-97330835D01*
X107509732Y-97236129D01*
X107381093Y-97122765D01*
X107337540Y-97077050D01*
X107227538Y-96938213D01*
X107137065Y-96786335D01*
X107067625Y-96624209D01*
X107020724Y-96454628D01*
X107020517Y-96453611D01*
X107017417Y-96437853D01*
X107014592Y-96421710D01*
X107012029Y-96404034D01*
X107009716Y-96383676D01*
X107007640Y-96359490D01*
X107005788Y-96330326D01*
X107004146Y-96295036D01*
X107002704Y-96252474D01*
X107001447Y-96201490D01*
X107000363Y-96140936D01*
X106999439Y-96069665D01*
X106998662Y-95986529D01*
X106998020Y-95890379D01*
X106997500Y-95780068D01*
X106997089Y-95654447D01*
X106996774Y-95512368D01*
X106996543Y-95352684D01*
X106996382Y-95174247D01*
X106996280Y-94975908D01*
X106996222Y-94756519D01*
X106996197Y-94514932D01*
X106996192Y-94277590D01*
X107030961Y-94277590D01*
X107031071Y-94479769D01*
X107031355Y-94680110D01*
X107031812Y-94876994D01*
X107032442Y-95068803D01*
X107033246Y-95253918D01*
X107034223Y-95430723D01*
X107035373Y-95597598D01*
X107036697Y-95752925D01*
X107038194Y-95895087D01*
X107039864Y-96022464D01*
X107041708Y-96133439D01*
X107043725Y-96226394D01*
X107045915Y-96299710D01*
X107048279Y-96351770D01*
X107050816Y-96380955D01*
X107067797Y-96470951D01*
X107117119Y-96636841D01*
X107187083Y-96792230D01*
X107276112Y-96935537D01*
X107382623Y-97065182D01*
X107505039Y-97179583D01*
X107641779Y-97277159D01*
X107791264Y-97356329D01*
X107951913Y-97415513D01*
X108122147Y-97453129D01*
X108133517Y-97453908D01*
X108169967Y-97454977D01*
X108229684Y-97456013D01*
X108311956Y-97457015D01*
X108416068Y-97457984D01*
X108541309Y-97458920D01*
X108686966Y-97459823D01*
X108852326Y-97460692D01*
X109036675Y-97461529D01*
X109239302Y-97462332D01*
X109459493Y-97463103D01*
X109696535Y-97463840D01*
X109949715Y-97464545D01*
X110218322Y-97465216D01*
X110501641Y-97465855D01*
X110798960Y-97466461D01*
X111109567Y-97467034D01*
X111432747Y-97467574D01*
X111767789Y-97468081D01*
X112113980Y-97468556D01*
X112470607Y-97468998D01*
X112836956Y-97469407D01*
X113212316Y-97469783D01*
X113595972Y-97470127D01*
X113987213Y-97470438D01*
X114385326Y-97470717D01*
X114789597Y-97470963D01*
X115199314Y-97471176D01*
X115613764Y-97471358D01*
X116032235Y-97471506D01*
X116454012Y-97471622D01*
X116878384Y-97471706D01*
X117304638Y-97471757D01*
X117732060Y-97471776D01*
X118159939Y-97471763D01*
X118587560Y-97471718D01*
X119014212Y-97471640D01*
X119439180Y-97471530D01*
X119861754Y-97471388D01*
X120281219Y-97471213D01*
X120696863Y-97471007D01*
X121107973Y-97470768D01*
X121513836Y-97470498D01*
X121913740Y-97470195D01*
X122306970Y-97469860D01*
X122692816Y-97469493D01*
X123070563Y-97469095D01*
X123439499Y-97468664D01*
X123798911Y-97468202D01*
X124148087Y-97467707D01*
X124486313Y-97467181D01*
X124812876Y-97466623D01*
X125127064Y-97466033D01*
X125428164Y-97465412D01*
X125715462Y-97464759D01*
X125988247Y-97464074D01*
X126245806Y-97463357D01*
X126487424Y-97462609D01*
X126712390Y-97461829D01*
X126919991Y-97461018D01*
X127109514Y-97460175D01*
X127280246Y-97459301D01*
X127431475Y-97458395D01*
X127562486Y-97457457D01*
X127672568Y-97456489D01*
X127761008Y-97455489D01*
X127827092Y-97454457D01*
X127870109Y-97453394D01*
X127889345Y-97452300D01*
X127910658Y-97448557D01*
X127976243Y-97433848D01*
X128047755Y-97414353D01*
X128113120Y-97393258D01*
X128194367Y-97361176D01*
X128350632Y-97280541D01*
X128492501Y-97180847D01*
X128618612Y-97063452D01*
X128727603Y-96929717D01*
X128818114Y-96781000D01*
X128888784Y-96618661D01*
X128890350Y-96614288D01*
X128899983Y-96587634D01*
X128908784Y-96562961D01*
X128916788Y-96539119D01*
X128924031Y-96514957D01*
X128930548Y-96489324D01*
X128936375Y-96461068D01*
X128941548Y-96429039D01*
X128946102Y-96392085D01*
X128950072Y-96349056D01*
X128953495Y-96298799D01*
X128956406Y-96240165D01*
X128958840Y-96172001D01*
X128960833Y-96093158D01*
X128962422Y-96002482D01*
X128963640Y-95898825D01*
X128964525Y-95781033D01*
X128965111Y-95647957D01*
X128965434Y-95498445D01*
X128965530Y-95331346D01*
X128965435Y-95145509D01*
X128965184Y-94939783D01*
X128964812Y-94713016D01*
X128964355Y-94464058D01*
X128963849Y-94191757D01*
X128963552Y-94023087D01*
X128963136Y-93770797D01*
X128962760Y-93541113D01*
X128962380Y-93332874D01*
X128961955Y-93144916D01*
X128961442Y-92976076D01*
X128960798Y-92825189D01*
X128959982Y-92691094D01*
X128958951Y-92572627D01*
X128957661Y-92468624D01*
X128956072Y-92377923D01*
X128954140Y-92299360D01*
X128951824Y-92231771D01*
X128949080Y-92173995D01*
X128945866Y-92124866D01*
X128942140Y-92083222D01*
X128937859Y-92047901D01*
X128932981Y-92017737D01*
X128927464Y-91991569D01*
X128921264Y-91968233D01*
X128914340Y-91946566D01*
X128906650Y-91925404D01*
X128898150Y-91903584D01*
X128888798Y-91879944D01*
X128878553Y-91853319D01*
X128862406Y-91812460D01*
X128785168Y-91657415D01*
X128688503Y-91516502D01*
X128573492Y-91390650D01*
X128441216Y-91280787D01*
X128292755Y-91187843D01*
X128129189Y-91112747D01*
X127951600Y-91056427D01*
X127949917Y-91056029D01*
X127943255Y-91054816D01*
X127934079Y-91053652D01*
X127921891Y-91052535D01*
X127906191Y-91051464D01*
X127886480Y-91050438D01*
X127862257Y-91049455D01*
X127833023Y-91048515D01*
X127798279Y-91047616D01*
X127757525Y-91046757D01*
X127710262Y-91045937D01*
X127655990Y-91045154D01*
X127594209Y-91044407D01*
X127524420Y-91043695D01*
X127446123Y-91043017D01*
X127358819Y-91042371D01*
X127262008Y-91041757D01*
X127155191Y-91041172D01*
X127037868Y-91040616D01*
X126909539Y-91040088D01*
X126769705Y-91039586D01*
X126617866Y-91039109D01*
X126453524Y-91038656D01*
X126276177Y-91038226D01*
X126085327Y-91037817D01*
X125880474Y-91037427D01*
X125661119Y-91037057D01*
X125426762Y-91036705D01*
X125176903Y-91036368D01*
X124911043Y-91036047D01*
X124628682Y-91035740D01*
X124329321Y-91035446D01*
X124012460Y-91035163D01*
X123677600Y-91034890D01*
X123324241Y-91034626D01*
X122951883Y-91034370D01*
X122560027Y-91034120D01*
X122148174Y-91033875D01*
X121715823Y-91033635D01*
X121262475Y-91033397D01*
X120787631Y-91033161D01*
X120290791Y-91032925D01*
X119771456Y-91032689D01*
X119229126Y-91032450D01*
X118663301Y-91032207D01*
X118073482Y-91031960D01*
X117819439Y-91031856D01*
X117195303Y-91031615D01*
X116595210Y-91031405D01*
X116018838Y-91031225D01*
X115465866Y-91031075D01*
X114935971Y-91030958D01*
X114428830Y-91030872D01*
X113944122Y-91030817D01*
X113481523Y-91030795D01*
X113040712Y-91030806D01*
X112621367Y-91030849D01*
X112223165Y-91030926D01*
X111845784Y-91031036D01*
X111488901Y-91031180D01*
X111152195Y-91031358D01*
X110835343Y-91031570D01*
X110538023Y-91031818D01*
X110259912Y-91032100D01*
X110000688Y-91032418D01*
X109760029Y-91032771D01*
X109537613Y-91033160D01*
X109333117Y-91033586D01*
X109146219Y-91034049D01*
X108976597Y-91034548D01*
X108823929Y-91035084D01*
X108687892Y-91035659D01*
X108568163Y-91036271D01*
X108464422Y-91036921D01*
X108376344Y-91037610D01*
X108303609Y-91038338D01*
X108245894Y-91039105D01*
X108202876Y-91039911D01*
X108174233Y-91040757D01*
X108159644Y-91041643D01*
X108099308Y-91051027D01*
X107996986Y-91074527D01*
X107891200Y-91106451D01*
X107791269Y-91143876D01*
X107706510Y-91183876D01*
X107585818Y-91258465D01*
X107450242Y-91367343D01*
X107331428Y-91492610D01*
X107230728Y-91632340D01*
X107149493Y-91784606D01*
X107089072Y-91947484D01*
X107050816Y-92119045D01*
X107050108Y-92124636D01*
X107047618Y-92160212D01*
X107045301Y-92218222D01*
X107043158Y-92297049D01*
X107041188Y-92395073D01*
X107039392Y-92510676D01*
X107037769Y-92642241D01*
X107036319Y-92788149D01*
X107035043Y-92946783D01*
X107033939Y-93116523D01*
X107033010Y-93295752D01*
X107032253Y-93482851D01*
X107031670Y-93676203D01*
X107031260Y-93874189D01*
X107031024Y-94075190D01*
X107030961Y-94277590D01*
X106996192Y-94277590D01*
X106996191Y-94250000D01*
X106996191Y-94232402D01*
X106996198Y-93968992D01*
X106996225Y-93728854D01*
X106996285Y-93510840D01*
X106996391Y-93313803D01*
X106996555Y-93136595D01*
X106996792Y-92978066D01*
X106997112Y-92837071D01*
X106997530Y-92712460D01*
X106998058Y-92603085D01*
X106998708Y-92507798D01*
X106999493Y-92425452D01*
X107000427Y-92354898D01*
X107001522Y-92294989D01*
X107002790Y-92244575D01*
X107004245Y-92202510D01*
X107005899Y-92167645D01*
X107007765Y-92138833D01*
X107009856Y-92114924D01*
X107012185Y-92094772D01*
X107014764Y-92077228D01*
X107017606Y-92061143D01*
X107020724Y-92045371D01*
X107034730Y-91984369D01*
X107089821Y-91817120D01*
X107166916Y-91658320D01*
X107264508Y-91510761D01*
X107381093Y-91377235D01*
X107392014Y-91366432D01*
X107521669Y-91254770D01*
X107664079Y-91161649D01*
X107821551Y-91085753D01*
X107996391Y-91025762D01*
X108092286Y-90998457D01*
X117944890Y-90994787D01*
X118408104Y-90994619D01*
X119017303Y-90994414D01*
X119602635Y-90994237D01*
X120164459Y-90994087D01*
X120703137Y-90993965D01*
X121219030Y-90993872D01*
X121712497Y-90993807D01*
X122183899Y-90993772D01*
X122633598Y-90993766D01*
X123061953Y-90993791D01*
X123469326Y-90993845D01*
X123856078Y-90993931D01*
X124222568Y-90994047D01*
X124569158Y-90994195D01*
X124896209Y-90994375D01*
X125204080Y-90994587D01*
X125493133Y-90994832D01*
X125763729Y-90995110D01*
X126016227Y-90995421D01*
X126250990Y-90995766D01*
X126468377Y-90996145D01*
X126668749Y-90996559D01*
X126852466Y-90997007D01*
X127019891Y-90997491D01*
X127171382Y-90998011D01*
X127307302Y-90998566D01*
X127428010Y-90999158D01*
X127533867Y-90999787D01*
X127625234Y-91000453D01*
X127702472Y-91001157D01*
X127765941Y-91001898D01*
X127816002Y-91002678D01*
X127853016Y-91003496D01*
X127877343Y-91004354D01*
X127889345Y-91005251D01*
X128019371Y-91032272D01*
X128185772Y-91088367D01*
X128343855Y-91166698D01*
X128491671Y-91266257D01*
X128627274Y-91386042D01*
X128736941Y-91511759D01*
X128833795Y-91658871D01*
X128911647Y-91821292D01*
X128970621Y-91999247D01*
X128997686Y-92100675D01*
X128997686Y-94250000D01*
X128997686Y-95331346D01*
X128997686Y-96399325D01*
G37*
%LPC*%
D18*
X118442000Y-57834000D03*
X115942000Y-57834000D03*
D19*
X124600000Y-82900000D03*
X124600000Y-80360000D03*
X124600000Y-77820000D03*
X124600000Y-75280000D03*
X124600000Y-72740000D03*
X124600000Y-70200000D03*
X124600000Y-67660000D03*
X124600000Y-65120000D03*
D20*
X171000000Y-74500000D03*
D21*
X171000000Y-79500000D03*
X171000000Y-77000000D03*
D22*
X178500000Y-71400000D03*
X178500000Y-82600000D03*
D21*
X185500000Y-79500000D03*
X185500000Y-74500000D03*
D23*
X145690000Y-66500000D03*
D24*
X148230000Y-66500000D03*
X150770000Y-66500000D03*
X153310000Y-66500000D03*
D25*
X138500000Y-67000000D03*
X160500000Y-67000000D03*
X160500000Y-89000000D03*
X138500000Y-89000000D03*
D26*
X143110000Y-105540000D03*
X136760000Y-108080000D03*
D27*
X139300000Y-103000000D03*
D28*
X144380000Y-103000000D03*
X134220000Y-103000000D03*
D26*
X163510000Y-105540000D03*
X157160000Y-108080000D03*
D27*
X159700000Y-103000000D03*
D28*
X164780000Y-103000000D03*
X154620000Y-103000000D03*
D19*
X168350000Y-57320000D03*
X168350000Y-59860000D03*
X168350000Y-62400000D03*
X168350000Y-64940000D03*
X168350000Y-67480000D03*
X183320000Y-91800000D03*
X180780000Y-91800000D03*
X178240000Y-91800000D03*
X175700000Y-91800000D03*
D29*
X146650005Y-60250000D03*
D30*
X146650001Y-61749999D03*
X152349999Y-61749999D03*
X152349999Y-60250001D03*
D31*
X142149995Y-98550000D03*
D32*
X142149999Y-97050001D03*
X136450001Y-97050001D03*
X136450001Y-98549999D03*
D33*
X140862500Y-93900000D03*
X137737500Y-93900000D03*
X161262500Y-94200000D03*
X158137500Y-94200000D03*
X182254500Y-94918000D03*
X179129500Y-94918000D03*
D31*
X162549995Y-98550000D03*
D32*
X162549999Y-97050001D03*
X156850001Y-97050001D03*
X156850001Y-98549999D03*
D33*
X148472500Y-69264000D03*
X145347500Y-69264000D03*
D34*
X147937500Y-57500000D03*
X151062500Y-57500000D03*
%LPD*%
M02*
