G04 #@! TF.GenerationSoftware,KiCad,Pcbnew,9.0.5*
G04 #@! TF.CreationDate,2025-10-24T02:47:50+02:00*
G04 #@! TF.ProjectId,ESPHomeModule,45535048-6f6d-4654-9d6f-64756c652e6b,V1.0*
G04 #@! TF.SameCoordinates,Original*
G04 #@! TF.FileFunction,Paste,Top*
G04 #@! TF.FilePolarity,Positive*
%FSLAX46Y46*%
G04 Gerber Fmt 4.6, Leading zero omitted, Abs format (unit mm)*
G04 Created by KiCad (PCBNEW 9.0.5) date 2025-10-24 02:47:50*
%MOMM*%
%LPD*%
G01*
G04 APERTURE LIST*
G04 Aperture macros list*
%AMRoundRect*
0 Rectangle with rounded corners*
0 $1 Rounding radius*
0 $2 $3 $4 $5 $6 $7 $8 $9 X,Y pos of 4 corners*
0 Add a 4 corners polygon primitive as box body*
4,1,4,$2,$3,$4,$5,$6,$7,$8,$9,$2,$3,0*
0 Add four circle primitives for the rounded corners*
1,1,$1+$1,$2,$3*
1,1,$1+$1,$4,$5*
1,1,$1+$1,$6,$7*
1,1,$1+$1,$8,$9*
0 Add four rect primitives between the rounded corners*
20,1,$1+$1,$2,$3,$4,$5,0*
20,1,$1+$1,$4,$5,$6,$7,0*
20,1,$1+$1,$6,$7,$8,$9,0*
20,1,$1+$1,$8,$9,$2,$3,0*%
G04 Aperture macros list end*
%ADD10RoundRect,0.250000X-0.400000X-0.625000X0.400000X-0.625000X0.400000X0.625000X-0.400000X0.625000X0*%
%ADD11RoundRect,0.250000X0.400000X0.625000X-0.400000X0.625000X-0.400000X-0.625000X0.400000X-0.625000X0*%
%ADD12RoundRect,0.250000X-0.412500X-0.650000X0.412500X-0.650000X0.412500X0.650000X-0.412500X0.650000X0*%
%ADD13RoundRect,0.150000X0.512500X0.150000X-0.512500X0.150000X-0.512500X-0.150000X0.512500X-0.150000X0*%
%ADD14R,1.524000X4.025000*%
%ADD15RoundRect,0.250000X0.412500X0.650000X-0.412500X0.650000X-0.412500X-0.650000X0.412500X-0.650000X0*%
%ADD16RoundRect,0.250000X0.650000X-0.412500X0.650000X0.412500X-0.650000X0.412500X-0.650000X-0.412500X0*%
%ADD17RoundRect,0.250000X-0.625000X0.400000X-0.625000X-0.400000X0.625000X-0.400000X0.625000X0.400000X0*%
G04 APERTURE END LIST*
D10*
X158150000Y-94200000D03*
X161250000Y-94200000D03*
D11*
X151050000Y-57500000D03*
X147950000Y-57500000D03*
D12*
X129599500Y-80948000D03*
X132724500Y-80948000D03*
X129599500Y-86028000D03*
X132724500Y-86028000D03*
D13*
X132299500Y-64880000D03*
X132299500Y-63930000D03*
X132299500Y-62980000D03*
X130024500Y-62980000D03*
X130024500Y-63930000D03*
X130024500Y-64880000D03*
D10*
X164700000Y-78250000D03*
X167800000Y-78250000D03*
D12*
X129599500Y-83488000D03*
X132724500Y-83488000D03*
D10*
X164700000Y-75750000D03*
X167800000Y-75750000D03*
X140788000Y-93902000D03*
X143888000Y-93902000D03*
D13*
X132299500Y-60562000D03*
X132299500Y-59612000D03*
X132299500Y-58662000D03*
X130024500Y-58662000D03*
X130024500Y-59612000D03*
X130024500Y-60562000D03*
D14*
X124530000Y-89718000D03*
X121990000Y-89718000D03*
X119450000Y-89718000D03*
X116910000Y-89718000D03*
X111830000Y-89718000D03*
X114370000Y-89718000D03*
X106744000Y-106482000D03*
X106750000Y-89718000D03*
X109284000Y-106482000D03*
X111824000Y-106482000D03*
X114364000Y-106482000D03*
X116904000Y-106482000D03*
X119444000Y-106482000D03*
X121984000Y-106482000D03*
X124524000Y-106482000D03*
X109290000Y-89718000D03*
D13*
X132299500Y-69198000D03*
X132299500Y-68248000D03*
X132299500Y-67298000D03*
X130024500Y-67298000D03*
X130024500Y-68248000D03*
X130024500Y-69198000D03*
X132299500Y-77834000D03*
X132299500Y-76884000D03*
X132299500Y-75934000D03*
X130024500Y-75934000D03*
X130024500Y-76884000D03*
X130024500Y-77834000D03*
X132299500Y-73516000D03*
X132299500Y-72566000D03*
X132299500Y-71616000D03*
X130024500Y-71616000D03*
X130024500Y-72566000D03*
X130024500Y-73516000D03*
D15*
X138058500Y-93902000D03*
X134933500Y-93902000D03*
D16*
X164944000Y-68540500D03*
X164944000Y-65415500D03*
D17*
X189000000Y-75450000D03*
X189000000Y-78550000D03*
M02*
